SplineFontDB: 3.2
FontName: undefeated
FullName: undefeated
FamilyName: undefeated
Weight: Book
Version: 1.1
ItalicAngle: 0
UnderlinePosition: 0
UnderlineWidth: 0
Ascent: 960
Descent: 64
InvalidEm: 0
sfntRevision: 0x00010000
LayerCount: 2
Layer: 0 1 "Back" 1
Layer: 1 1 "Fore" 0
XUID: [1021 417 1299161893 14799]
StyleMap: 0x0000
FSType: 0
OS2Version: 3
OS2_WeightWidthSlopeOnly: 0
OS2_UseTypoMetrics: 0
CreationTime: 1455832394
ModificationTime: 1779976015
PfmFamily: 81
TTFWeight: 400
TTFWidth: 5
LineGap: 0
VLineGap: 0
Panose: 0 0 0 0 0 0 0 0 0 0
OS2TypoAscent: 960
OS2TypoAOffset: 0
OS2TypoDescent: -64
OS2TypoDOffset: 0
OS2TypoLinegap: 64
OS2WinAscent: 960
OS2WinAOffset: 0
OS2WinDescent: 64
OS2WinDOffset: 0
HheadAscent: 960
HheadAOffset: 0
HheadDescent: -64
HheadDOffset: 0
OS2SubXSize: 665
OS2SubYSize: 716
OS2SubXOff: 0
OS2SubYOff: 143
OS2SupXSize: 665
OS2SupYSize: 716
OS2SupXOff: 0
OS2SupYOff: 491
OS2StrikeYSize: 51
OS2StrikeYPos: 265
OS2CapHeight: 858
OS2XHeight: 867
OS2Vendor: 'PfEd'
OS2CodePages: 00000001.00000000
OS2UnicodeRanges: 00000001.10000000.00000000.00000000
MarkAttachClasses: 1
DEI: 91125
ShortTable: maxp 16
  1
  0
  65
  559
  16
  0
  0
  2
  0
  0
  0
  0
  0
  0
  0
  0
EndShort
LangName: 1033 "" "" "Regular" "FontForge 2.0 : undefeated : 3-3-2017" "" "Version 1.1"
GaspTable: 1 65535 15 1
Encoding: Custom
UnicodeInterp: none
NameList: AGL For New Fonts
DisplaySize: -48
AntiAlias: 1
FitToEm: 0
WinInfo: 0 25 9
BeginChars: 65540 75

StartChar: glyph1
Encoding: 0 0 1
Width: 0
GlyphClass: 2
Flags: W
LayerCount: 2
Fore
SplineSet
0 0 m 1,0,-1
 0 0 l 1,1,-1
 0 0 l 1,2,-1
 0 0 l 1,0,-1
EndSplineSet
EndChar

StartChar: uni0001
Encoding: 1 1 3
Width: 0
GlyphClass: 2
Flags: W
LayerCount: 2
Fore
SplineSet
0 0 m 1,0,-1
 0 0 l 1,1,-1
 0 0 l 1,2,-1
 0 0 l 1,0,-1
EndSplineSet
EndChar

StartChar: space
Encoding: 32 32 4
Width: 512
GlyphClass: 2
Flags: W
LayerCount: 2
Fore
SplineSet
0 0 m 1,0,-1
 0 0 l 1,1,-1
 0 0 l 1,2,-1
 0 0 l 1,0,-1
EndSplineSet
EndChar

StartChar: zero
Encoding: 48 57344 5
Width: 2253
GlyphClass: 2
Flags: W
LayerCount: 2
Fore
SplineSet
2036 551 m 1,0,1
 2060 553 2060 553 2084 555.5 c 128,-1,2
 2108 558 2108 558 2131 560 c 1,3,4
 2130 555 2130 555 2126 551.5 c 128,-1,5
 2122 548 2122 548 2119 544 c 0,6,7
 2113 539 2113 539 2107.5 533 c 128,-1,8
 2102 527 2102 527 2097 521 c 0,9,10
 2083 507 2083 507 2067.5 493 c 128,-1,11
 2052 479 2052 479 2035 470 c 0,12,13
 2002 451 2002 451 1969.5 432.5 c 128,-1,14
 1937 414 1937 414 1901 402 c 0,15,16
 1848 386 1848 386 1792.5 379.5 c 128,-1,17
 1737 373 1737 373 1682 368 c 0,18,19
 1659 365 1659 365 1636 365 c 128,-1,20
 1613 365 1613 365 1591 364 c 0,21,22
 1580 364 1580 364 1568.5 364.5 c 128,-1,23
 1557 365 1557 365 1546 365 c 0,24,25
 1536 366 1536 366 1525 365.5 c 128,-1,26
 1514 365 1514 365 1504 367 c 0,27,28
 1475 372 1475 372 1446 376.5 c 128,-1,29
 1417 381 1417 381 1388 386 c 0,30,31
 1365 390 1365 390 1341.5 396 c 128,-1,32
 1318 402 1318 402 1295 407 c 0,33,34
 1272 413 1272 413 1245.5 411.5 c 128,-1,35
 1219 410 1219 410 1194 411 c 0,36,37
 1191 411 1191 411 1187 411 c 128,-1,38
 1183 411 1183 411 1179 411 c 0,39,40
 1178 411 1178 411 1176 414.5 c 128,-1,41
 1174 418 1174 418 1173 419 c 0,42,43
 1171 422 1171 422 1165.5 418 c 128,-1,44
 1160 414 1160 414 1156 413 c 0,45,46
 1143 408 1143 408 1129.5 403 c 128,-1,47
 1116 398 1116 398 1103 393 c 0,48,49
 1088 388 1088 388 1070 380 c 128,-1,50
 1052 372 1052 372 1036 373 c 0,51,52
 1029 374 1029 374 1024.5 387.5 c 128,-1,53
 1020 401 1020 401 1018 406 c 0,54,55
 1004 441 1004 441 982.5 481.5 c 128,-1,56
 961 522 961 522 915 518 c 0,57,58
 897 516 897 516 881 512 c 128,-1,59
 865 508 865 508 855 491 c 0,60,61
 851 486 851 486 847.5 480.5 c 128,-1,62
 844 475 844 475 841 469 c 0,63,64
 838 462 838 462 835.5 458.5 c 128,-1,65
 833 455 833 455 825 454 c 0,66,67
 812 453 812 453 799 456.5 c 128,-1,68
 786 460 786 460 774 462 c 0,69,70
 764 464 764 464 754 465.5 c 128,-1,71
 744 467 744 467 733 468 c 0,72,73
 709 470 709 470 683 473 c 128,-1,74
 657 476 657 476 633 472 c 0,75,76
 621 470 621 470 608.5 468 c 128,-1,77
 596 466 596 466 584 463 c 0,78,79
 573 461 573 461 560 457.5 c 128,-1,80
 547 454 547 454 536 454 c 0,81,82
 525 455 525 455 513 460 c 128,-1,83
 501 465 501 465 491 469 c 0,84,85
 476 474 476 474 458 461.5 c 128,-1,86
 440 449 440 449 432 438 c 0,87,88
 423 427 423 427 418.5 413 c 128,-1,89
 414 399 414 399 407 387 c 0,90,91
 404 382 404 382 401.5 376.5 c 128,-1,92
 399 371 399 371 393 369 c 0,93,94
 386 368 386 368 378 366.5 c 128,-1,95
 370 365 370 365 364 372 c 0,96,97
 353 383 353 383 342 395.5 c 128,-1,98
 331 408 331 408 315 410 c 0,99,100
 293 412 293 412 276.5 401 c 128,-1,101
 260 390 260 390 245 376 c 0,102,103
 223 354 223 354 203.5 330.5 c 128,-1,104
 184 307 184 307 164 284 c 0,105,106
 156 274 156 274 147.5 263.5 c 128,-1,107
 139 253 139 253 130 245 c 0,108,109
 124 240 124 240 118.5 235 c 128,-1,110
 113 230 113 230 107 226 c 0,111,112
 102 221 102 221 98.5 219.5 c 128,-1,113
 95 218 95 218 91 226 c 0,114,115
 83 241 83 241 83.5 258.5 c 128,-1,116
 84 276 84 276 84 292 c 0,117,118
 85 321 85 321 94 349.5 c 128,-1,119
 103 378 103 378 115 404 c 0,120,121
 142 463 142 463 191 506 c 128,-1,122
 240 549 240 549 295 581 c 0,123,124
 338 607 338 607 387.5 621 c 128,-1,125
 437 635 437 635 486 644 c 0,126,127
 508 648 508 648 530 652.5 c 128,-1,128
 552 657 552 657 575 659 c 0,129,130
 607 662 607 662 639.5 665.5 c 128,-1,131
 672 669 672 669 705 673 c 0,132,133
 712 674 712 674 721 675.5 c 128,-1,134
 730 677 730 677 737 676 c 0,135,136
 741 675 741 675 746 673 c 128,-1,137
 751 671 751 671 754 671 c 0,138,139
 761 671 761 671 768.5 670.5 c 128,-1,140
 776 670 776 670 783 670 c 0,141,142
 809 669 809 669 835.5 668 c 128,-1,143
 862 667 862 667 888 666 c 0,144,145
 891 666 891 666 893 668 c 128,-1,146
 895 670 895 670 897 670 c 0,147,148
 903 670 903 670 908 670 c 128,-1,149
 913 670 913 670 919 670 c 0,150,151
 926 670 926 670 933 670.5 c 128,-1,152
 940 671 940 671 947 670 c 0,153,154
 968 668 968 668 988.5 666.5 c 128,-1,155
 1009 665 1009 665 1029 664 c 0,156,157
 1058 662 1058 662 1086.5 659.5 c 128,-1,158
 1115 657 1115 657 1144 655 c 0,159,160
 1153 654 1153 654 1162.5 653.5 c 128,-1,161
 1172 653 1172 653 1181 652 c 0,162,163
 1182 652 1182 652 1183.5 652 c 128,-1,164
 1185 652 1185 652 1187 652 c 0,165,166
 1194 651 1194 651 1197 644.5 c 128,-1,167
 1200 638 1200 638 1202 634 c 0,168,169
 1203 633 1203 633 1203.5 636 c 128,-1,170
 1204 639 1204 639 1204 640 c 0,171,172
 1204 642 1204 642 1203.5 644.5 c 128,-1,173
 1203 647 1203 647 1202 649 c 1,174,175
 1219 649 1219 649 1235.5 649 c 128,-1,176
 1252 649 1252 649 1269 649 c 0,177,178
 1277 649 1277 649 1280.5 649 c 128,-1,179
 1284 649 1284 649 1284 641 c 0,180,181
 1284 636 1284 636 1283 636 c 128,-1,182
 1282 636 1282 636 1277 636 c 0,183,184
 1273 636 1273 636 1268.5 636 c 128,-1,185
 1264 636 1264 636 1260 636 c 1,186,187
 1263 629 1263 629 1267.5 621.5 c 128,-1,188
 1272 614 1272 614 1280 611 c 0,189,190
 1284 610 1284 610 1288.5 611 c 128,-1,191
 1293 612 1293 612 1297 612 c 0,192,193
 1314 612 1314 612 1330.5 612.5 c 128,-1,194
 1347 613 1347 613 1364 613 c 0,195,196
 1388 614 1388 614 1411.5 615.5 c 128,-1,197
 1435 617 1435 617 1458 619 c 0,198,199
 1467 619 1467 619 1477 622 c 128,-1,200
 1487 625 1487 625 1496 622 c 0,201,202
 1511 617 1511 617 1525.5 612.5 c 128,-1,203
 1540 608 1540 608 1555 603 c 0,204,205
 1591 591 1591 591 1628 581 c 128,-1,206
 1665 571 1665 571 1702 568 c 0,207,208
 1750 563 1750 563 1798.5 558.5 c 128,-1,209
 1847 554 1847 554 1896 550 c 0,210,211
 1931 547 1931 547 1965.5 548 c 128,-1,212
 2000 549 2000 549 2036 551 c 1,213,-1
 2036 551 l 1,214,-1
 2036 551 l 1,0,1
EndSplineSet
EndChar

StartChar: one
Encoding: 49 57345 6
Width: 2040
GlyphClass: 2
Flags: WO
LayerCount: 2
Fore
SplineSet
1434.7578125 533.177734375 m 1,0,-1
 935.2109375 533.177734375 l 2,1,2
 930.2734375 533.892578125 930.2734375 533.892578125 926.810546875 537.388671875 c 0,3,4
 922.6015625 541.59765625 922.6015625 541.59765625 922.6015625 547.19921875 c 128,-1,5
 922.6015625 552.833984375 922.6015625 552.833984375 926.810546875 557.009765625 c 0,6,7
 930.2734375 560.50390625 930.2734375 560.50390625 935.2109375 560.50390625 c 2,8,-1
 1434.7578125 560.50390625 l 1,9,-1
 1436.16796875 560.50390625 l 2,10,11
 1441.79101562 560.50390625 1441.79101562 560.50390625 1445.28515625 557.009765625 c 0,12,13
 1449.47265625 552.787109375 1449.47265625 552.787109375 1449.47265625 547.19921875 c 128,-1,14
 1449.47265625 541.576171875 1449.47265625 541.576171875 1445.28515625 537.388671875 c 0,15,16
 1441.78125 533.884765625 1441.78125 533.884765625 1436.16796875 533.177734375 c 2,17,-1
 1434.7578125 533.177734375 l 1,0,-1
1688.37109375 396.548828125 m 1,18,-1
 2005.93359375 549.3046875 l 1,19,-1
 1523.18554688 592.7109375 l 1,20,-1
 1132.94140625 592.7109375 l 1,21,-1
 1069.19726562 622.859375 l 1,22,-1
 786.150390625 622.859375 l 1,23,-1
 721.7109375 590.62890625 l 1,24,-1
 716.08984375 596.228515625 l 2,25,26
 716.08984375 601.861328125 716.08984375 601.861328125 711.900390625 605.34375 c 0,27,28
 708.400390625 609.5546875 708.400390625 609.5546875 702.806640625 609.5546875 c 128,-1,29
 697.21875 609.5546875 697.21875 609.5546875 692.974609375 605.34375 c 0,30,31
 688.8203125 601.90234375 688.8203125 601.90234375 688.78515625 596.228515625 c 1,32,33
 688.720703125 601.873046875 688.720703125 601.873046875 684.57421875 605.34375 c 0,34,35
 681.0390625 609.5546875 681.0390625 609.5546875 675.458984375 609.5546875 c 128,-1,36
 669.859375 609.5546875 669.859375 609.5546875 665.6484375 605.34375 c 0,37,38
 662.1484375 601.87890625 662.1484375 601.87890625 661.4375 596.228515625 c 1,39,40
 661.4375 601.828125 661.4375 601.828125 657.921875 605.34375 c 0,41,42
 653.7109375 609.5546875 653.7109375 609.5546875 648.111328125 609.5546875 c 128,-1,43
 642.5078125 609.5546875 642.5078125 609.5546875 638.30078125 605.34375 c 0,44,45
 634.7734375 601.8515625 634.7734375 601.8515625 634.06640625 596.228515625 c 1,46,47
 634.06640625 601.875 634.06640625 601.875 630.595703125 605.34375 c 0,48,49
 626.384765625 609.5546875 626.384765625 609.5546875 620.78515625 609.5546875 c 128,-1,50
 615.185546875 609.5546875 615.185546875 609.5546875 610.974609375 605.34375 c 0,51,52
 607.48046875 601.8515625 607.48046875 601.8515625 607.48046875 596.228515625 c 1,53,54
 606.7734375 601.841796875 606.7734375 601.841796875 603.26953125 605.34375 c 0,55,56
 599.0625 609.5546875 599.0625 609.5546875 593.458984375 609.5546875 c 128,-1,57
 587.859375 609.5546875 587.859375 609.5546875 583.6484375 605.34375 c 0,58,59
 580.154296875 601.849609375 580.154296875 601.849609375 580.154296875 596.228515625 c 1,60,61
 579.44140625 601.890625 579.44140625 601.890625 575.921875 605.34375 c 0,62,63
 571.74609375 609.5546875 571.74609375 609.5546875 566.1328125 609.5546875 c 128,-1,64
 560.533203125 609.5546875 560.533203125 609.5546875 556.322265625 605.34375 c 0,65,66
 552.90625 601.927734375 552.90625 601.927734375 552.806640625 596.228515625 c 1,67,68
 552.740234375 601.892578125 552.740234375 601.892578125 548.619140625 605.34375 c 0,69,70
 544.408203125 609.5546875 544.408203125 609.5546875 538.80859375 609.5546875 c 128,-1,71
 533.1953125 609.5546875 533.1953125 609.5546875 529.01953125 605.34375 c 0,72,73
 525.53515625 601.896484375 525.53515625 601.896484375 525.50390625 596.228515625 c 1,74,75
 525.4375 601.873046875 525.4375 601.873046875 521.29296875 605.34375 c 0,76,77
 517.7578125 609.5546875 517.7578125 609.5546875 511.482421875 609.5546875 c 0,78,79
 505.869140625 609.5546875 505.869140625 609.5546875 502.365234375 605.34375 c 0,80,81
 498.22265625 601.9375 498.22265625 601.9375 498.154296875 596.228515625 c 1,82,83
 498.087890625 601.90234375 498.087890625 601.90234375 493.943359375 605.34375 c 0,84,85
 490.408203125 609.5546875 490.408203125 609.5546875 484.828125 609.5546875 c 0,86,87
 478.521484375 609.5546875 478.521484375 609.5546875 475.017578125 605.34375 c 0,88,89
 470.875 601.908203125 470.875 601.908203125 470.806640625 596.228515625 c 1,90,91
 470.740234375 601.90234375 470.740234375 601.90234375 466.595703125 605.34375 c 0,92,93
 463.095703125 609.5546875 463.095703125 609.5546875 457.501953125 609.5546875 c 128,-1,94
 451.90234375 609.5546875 451.90234375 609.5546875 447.69140625 605.34375 c 0,95,96
 443.548828125 601.908203125 443.548828125 601.908203125 443.48046875 596.228515625 c 1,97,98
 443.380859375 601.90234375 443.380859375 601.90234375 439.26953125 605.34375 c 0,99,100
 435.734375 609.5546875 435.734375 609.5546875 430.154296875 609.5546875 c 128,-1,101
 424.5546875 609.5546875 424.5546875 609.5546875 420.34375 605.34375 c 0,102,103
 416.84375 601.87890625 416.84375 601.87890625 416.1328125 596.228515625 c 1,104,105
 416.1328125 601.86328125 416.1328125 601.86328125 412.6171875 605.34375 c 0,106,107
 408.40625 609.5546875 408.40625 609.5546875 402.828125 609.5546875 c 128,-1,108
 397.228515625 609.5546875 397.228515625 609.5546875 393.017578125 605.34375 c 0,109,110
 389.5390625 601.865234375 389.5390625 601.865234375 388.830078125 596.228515625 c 1,111,112
 388.830078125 601.830078125 388.830078125 601.830078125 385.3125 605.34375 c 0,113,114
 381.10546875 609.5546875 381.10546875 609.5546875 375.501953125 609.5546875 c 128,-1,115
 369.90234375 609.5546875 369.90234375 609.5546875 365.69140625 605.34375 c 0,116,117
 362.17578125 601.828125 362.17578125 601.828125 362.17578125 596.228515625 c 1,118,119
 361.466796875 601.8671875 361.466796875 601.8671875 357.986328125 605.34375 c 0,120,121
 353.779296875 609.5546875 353.779296875 609.5546875 348.177734375 609.5546875 c 128,-1,122
 342.57421875 609.5546875 342.57421875 609.5546875 338.3671875 605.34375 c 0,123,124
 334.873046875 601.884765625 334.873046875 601.884765625 334.873046875 596.228515625 c 1,125,126
 334.16796875 601.837890625 334.16796875 601.837890625 330.662109375 605.34375 c 0,127,128
 326.451171875 609.5546875 326.451171875 609.5546875 320.8515625 609.5546875 c 128,-1,129
 315.248046875 609.5546875 315.248046875 609.5546875 311.041015625 605.34375 c 0,130,131
 307.615234375 601.919921875 307.615234375 601.919921875 307.546875 596.228515625 c 1,132,133
 307.51171875 601.875 307.51171875 601.875 303.3359375 605.34375 c 0,134,135
 299.125 609.5546875 299.125 609.5546875 293.525390625 609.5546875 c 128,-1,136
 287.92578125 609.5546875 287.92578125 609.5546875 283.71484375 605.34375 c 0,137,138
 280.23046875 601.896484375 280.23046875 601.896484375 280.19921875 596.228515625 c 1,139,140
 280.09765625 601.90234375 280.09765625 601.90234375 275.98828125 605.34375 c 0,141,142
 271.77734375 609.5546875 271.77734375 609.5546875 266.177734375 609.5546875 c 128,-1,143
 260.564453125 609.5546875 260.564453125 609.5546875 257.060546875 605.34375 c 0,144,145
 252.884765625 601.880859375 252.884765625 601.880859375 252.849609375 596.228515625 c 1,146,147
 252.818359375 601.86328125 252.818359375 601.86328125 248.662109375 605.34375 c 0,148,149
 245.126953125 609.5546875 245.126953125 609.5546875 239.5234375 609.5546875 c 0,150,151
 233.248046875 609.5546875 233.248046875 609.5546875 229.712890625 605.34375 c 0,152,153
 225.58984375 601.927734375 225.58984375 601.927734375 225.525390625 596.228515625 c 1,154,155
 225.458984375 601.873046875 225.458984375 601.873046875 221.314453125 605.34375 c 0,156,157
 217.810546875 609.5546875 217.810546875 609.5546875 212.197265625 609.5546875 c 128,-1,158
 206.6171875 609.5546875 206.6171875 609.5546875 202.41015625 605.34375 c 0,159,160
 198.232421875 601.908203125 198.232421875 601.908203125 198.19921875 596.228515625 c 1,161,162
 198.1328125 601.90234375 198.1328125 601.90234375 193.98828125 605.34375 c 0,163,164
 190.484375 609.5546875 190.484375 609.5546875 184.87109375 609.5546875 c 128,-1,165
 179.271484375 609.5546875 179.271484375 609.5546875 175.060546875 605.34375 c 0,166,167
 171.560546875 601.87890625 171.560546875 601.87890625 170.849609375 596.228515625 c 1,168,169
 170.849609375 601.8515625 170.849609375 601.8515625 167.35546875 605.34375 c 0,170,171
 163.1484375 609.5546875 163.1484375 609.5546875 157.568359375 609.5546875 c 128,-1,172
 151.943359375 609.5546875 151.943359375 609.5546875 147.736328125 605.34375 c 0,173,174
 144.255859375 601.8671875 144.255859375 601.8671875 143.546875 596.228515625 c 1,175,176
 143.546875 601.828125 143.546875 601.828125 140.03125 605.34375 c 0,177,178
 135.8203125 609.5546875 135.8203125 609.5546875 130.220703125 609.5546875 c 128,-1,179
 124.6171875 609.5546875 124.6171875 609.5546875 120.41015625 605.34375 c 0,180,181
 116.892578125 601.830078125 116.892578125 601.830078125 116.892578125 596.228515625 c 1,182,183
 116.189453125 601.83984375 116.189453125 601.83984375 112.681640625 605.34375 c 0,184,185
 108.474609375 609.5546875 108.474609375 609.5546875 102.87109375 609.5546875 c 128,-1,186
 97.26953125 609.5546875 97.26953125 609.5546875 93.0625 605.34375 c 0,187,188
 89.544921875 601.86328125 89.544921875 601.86328125 89.544921875 596.228515625 c 2,189,-1
 83.9453125 586.439453125 l 1,190,-1
 11.083984375 540.8828125 l 1,191,-1
 11.083984375 486.92578125 l 1,192,-1
 74 440 l 1,193,-1
 81.705078125 420.380859375 l 2,194,195
 81.705078125 415.474609375 81.705078125 415.474609375 85.89453125 411.287109375 c 0,196,197
 89.4296875 407.076171875 89.4296875 407.076171875 95.009765625 407.076171875 c 128,-1,198
 100.599609375 407.076171875 100.599609375 407.076171875 104.84375 411.287109375 c 128,-1,199
 109 415.474609375 109 415.474609375 109.03125 420.380859375 c 1,200,201
 109.06640625 415.416015625 109.06640625 415.416015625 112.525390625 411.287109375 c 0,202,203
 116.736328125 407.076171875 116.736328125 407.076171875 122.3359375 407.076171875 c 128,-1,204
 127.939453125 407.076171875 127.939453125 407.076171875 132.146484375 411.287109375 c 128,-1,205
 136.291015625 415.427734375 136.291015625 415.427734375 136.357421875 420.380859375 c 1,206,207
 136.388671875 415.419921875 136.388671875 415.419921875 139.8515625 411.287109375 c 0,208,209
 144.05859375 407.076171875 144.05859375 407.076171875 149.662109375 407.076171875 c 128,-1,210
 155.26171875 407.076171875 155.26171875 407.076171875 159.47265625 411.287109375 c 0,211,212
 162.974609375 415.455078125 162.974609375 415.455078125 163.68359375 420.380859375 c 1,213,214
 163.68359375 415.484375 163.68359375 415.484375 167.177734375 411.287109375 c 0,215,216
 171.384765625 407.076171875 171.384765625 407.076171875 176.98828125 407.076171875 c 128,-1,217
 182.568359375 407.076171875 182.568359375 407.076171875 186.775390625 411.287109375 c 0,218,219
 190.306640625 415.48828125 190.306640625 415.48828125 191.009765625 420.380859375 c 1,220,221
 191.009765625 415.484375 191.009765625 415.484375 194.50390625 411.287109375 c 0,222,223
 198.7109375 407.076171875 198.7109375 407.076171875 204.291015625 407.076171875 c 128,-1,224
 209.890625 407.076171875 209.890625 407.076171875 214.1015625 411.287109375 c 0,225,226
 217.595703125 415.484375 217.595703125 415.484375 217.595703125 420.380859375 c 1,227,228
 218.296875 415.501953125 218.296875 415.501953125 221.806640625 411.287109375 c 0,229,230
 226.013671875 407.076171875 226.013671875 407.076171875 231.6171875 407.076171875 c 128,-1,231
 237.18359375 407.076171875 237.18359375 407.076171875 241.427734375 411.287109375 c 0,232,233
 244.921875 415.48828125 244.921875 415.48828125 244.921875 420.380859375 c 1,234,235
 245.623046875 415.501953125 245.623046875 415.501953125 249.1328125 411.287109375 c 0,236,237
 253.376953125 407.076171875 253.376953125 407.076171875 258.96484375 407.076171875 c 128,-1,238
 264.5546875 407.076171875 264.5546875 407.076171875 268.05859375 411.287109375 c 0,239,240
 272.201171875 415.396484375 272.201171875 415.396484375 272.26953125 420.380859375 c 1,241,242
 272.3359375 415.427734375 272.3359375 415.427734375 276.48046875 411.287109375 c 128,-1,243
 280.6875 407.076171875 280.6875 407.076171875 286.291015625 407.076171875 c 128,-1,244
 291.90625 407.076171875 291.90625 407.076171875 295.40625 411.287109375 c 0,245,246
 299.548828125 415.396484375 299.548828125 415.396484375 299.6171875 420.380859375 c 1,247,248
 299.68359375 415.431640625 299.68359375 415.431640625 303.828125 411.287109375 c 0,249,250
 307.36328125 407.076171875 307.36328125 407.076171875 313.638671875 407.076171875 c 0,251,252
 319.251953125 407.076171875 319.251953125 407.076171875 322.755859375 411.287109375 c 0,253,254
 326.931640625 415.427734375 326.931640625 415.427734375 326.966796875 420.380859375 c 1,255,256
 327.03125 415.396484375 327.03125 415.396484375 331.17578125 411.287109375 c 0,257,258
 334.646484375 407.076171875 334.646484375 407.076171875 340.26953125 407.076171875 c 128,-1,259
 345.873046875 407.076171875 345.873046875 407.076171875 350.080078125 411.287109375 c 128,-1,260
 354.224609375 415.427734375 354.224609375 415.427734375 354.291015625 420.380859375 c 1,261,262
 354.291015625 415.419921875 354.291015625 415.419921875 357.78515625 411.287109375 c 0,263,264
 361.99609375 407.076171875 361.99609375 407.076171875 367.595703125 407.076171875 c 128,-1,265
 373.19921875 407.076171875 373.19921875 407.076171875 377.40625 411.287109375 c 128,-1,266
 381.55078125 415.427734375 381.55078125 415.427734375 381.6171875 420.380859375 c 1,267,268
 381.65234375 415.44140625 381.65234375 415.44140625 385.134765625 411.287109375 c 0,269,270
 389.341796875 407.076171875 389.341796875 407.076171875 394.943359375 407.076171875 c 128,-1,271
 400.546875 407.076171875 400.546875 407.076171875 404.75390625 411.287109375 c 0,272,273
 408.236328125 415.470703125 408.236328125 415.470703125 408.943359375 420.380859375 c 1,274,275
 408.943359375 415.484375 408.943359375 415.484375 412.4375 411.287109375 c 0,276,277
 416.64453125 407.076171875 416.64453125 407.076171875 422.248046875 407.076171875 c 128,-1,278
 427.84765625 407.076171875 427.84765625 407.076171875 432.05859375 411.287109375 c 0,279,280
 435.5390625 415.47265625 435.5390625 415.47265625 436.24609375 420.380859375 c 1,281,282
 436.24609375 415.51171875 436.24609375 415.51171875 439.763671875 411.287109375 c 0,283,284
 443.970703125 407.076171875 443.970703125 407.076171875 449.57421875 407.076171875 c 128,-1,285
 455.173828125 407.076171875 455.173828125 407.076171875 459.384765625 411.287109375 c 0,286,287
 462.900390625 415.513671875 462.900390625 415.513671875 462.900390625 420.380859375 c 1,288,289
 463.564453125 415.5234375 463.564453125 415.5234375 467.087890625 411.287109375 c 0,290,291
 471.298828125 407.076171875 471.298828125 407.076171875 476.8984375 407.076171875 c 128,-1,292
 482.501953125 407.076171875 482.501953125 407.076171875 486.708984375 411.287109375 c 0,293,294
 490.203125 415.484375 490.203125 415.484375 490.203125 420.380859375 c 1,295,296
 490.904296875 415.505859375 490.904296875 415.505859375 494.4140625 411.287109375 c 0,297,298
 498.625 407.076171875 498.625 407.076171875 504.224609375 407.076171875 c 128,-1,299
 509.837890625 407.076171875 509.837890625 407.076171875 513.341796875 411.287109375 c 0,300,301
 517.517578125 415.427734375 517.517578125 415.427734375 517.552734375 420.380859375 c 1,302,303
 517.62109375 415.396484375 517.62109375 415.396484375 521.763671875 411.287109375 c 128,-1,304
 525.970703125 407.076171875 525.970703125 407.076171875 531.572265625 407.076171875 c 128,-1,305
 537.185546875 407.076171875 537.185546875 407.076171875 540.689453125 411.287109375 c 0,306,307
 544.833984375 415.431640625 544.833984375 415.431640625 544.900390625 420.380859375 c 1,308,309
 544.931640625 415.443359375 544.931640625 415.443359375 549.087890625 411.287109375 c 0,310,311
 552.623046875 407.076171875 552.623046875 407.076171875 558.8984375 407.076171875 c 0,312,313
 564.51171875 407.076171875 564.51171875 407.076171875 568.015625 411.287109375 c 0,314,315
 572.171875 415.408203125 572.171875 415.408203125 572.203125 420.380859375 c 1,316,317
 572.3046875 415.416015625 572.3046875 415.416015625 576.4375 411.287109375 c 0,318,319
 579.9375 407.076171875 579.9375 407.076171875 585.552734375 407.076171875 c 128,-1,320
 591.15234375 407.076171875 591.15234375 407.076171875 595.36328125 411.287109375 c 128,-1,321
 599.5390625 415.427734375 599.5390625 415.427734375 599.57421875 420.380859375 c 1,322,323
 599.642578125 415.404296875 599.642578125 415.404296875 603.08984375 411.287109375 c 0,324,325
 607.30078125 407.076171875 607.30078125 407.076171875 612.900390625 407.076171875 c 128,-1,326
 618.50390625 407.076171875 618.50390625 407.076171875 622.7109375 411.287109375 c 128,-1,327
 626.853515625 415.396484375 626.853515625 415.396484375 626.921875 420.380859375 c 1,328,329
 626.95703125 415.455078125 626.95703125 415.455078125 630.416015625 411.287109375 c 0,330,331
 634.626953125 407.076171875 634.626953125 407.076171875 640.2265625 407.076171875 c 128,-1,332
 645.830078125 407.076171875 645.830078125 407.076171875 650.037109375 411.287109375 c 0,333,334
 653.51953125 415.470703125 653.51953125 415.470703125 654.2265625 420.380859375 c 1,335,336
 654.2265625 415.484375 654.2265625 415.484375 657.720703125 411.287109375 c 0,337,338
 661.9609375 407.076171875 661.9609375 407.076171875 667.529296875 407.076171875 c 128,-1,339
 673.15234375 407.076171875 673.15234375 407.076171875 677.36328125 411.287109375 c 0,340,341
 680.865234375 415.455078125 680.865234375 415.455078125 681.57421875 420.380859375 c 1,342,343
 681.57421875 415.470703125 681.57421875 415.470703125 685.08984375 411.287109375 c 0,344,345
 689.30078125 407.076171875 689.30078125 407.076171875 694.900390625 407.076171875 c 128,-1,346
 700.50390625 407.076171875 700.50390625 407.076171875 704.7109375 411.287109375 c 0,347,348
 708.205078125 415.484375 708.205078125 415.484375 708.205078125 420.380859375 c 1,349,-1
 712.416015625 413.369140625 l 1,350,-1
 712.416015625 394.443359375 l 1,351,-1
 719.42578125 383.265625 l 1,352,-1
 738.330078125 383.265625 l 1,353,-1
 741.130859375 386.73828125 l 1,354,-1
 741.130859375 432.294921875 l 1,355,-1
 788.078125 432.294921875 l 1,356,-1
 800.6875 396.548828125 l 1,357,-1
 1688.37109375 396.548828125 l 1,18,-1
805.591796875 609.533203125 m 2,358,359
 810.529296875 609.533203125 810.529296875 609.533203125 814.708984375 605.322265625 c 128,-1,360
 818.919921875 601.107421875 818.919921875 601.107421875 818.919921875 595.51171875 c 128,-1,361
 818.919921875 589.912109375 818.919921875 589.912109375 814.708984375 586.439453125 c 0,362,363
 810.494140625 582.228515625 810.494140625 582.228515625 805.591796875 582.228515625 c 2,364,-1
 804.8984375 582.228515625 l 2,365,366
 799.298828125 582.228515625 799.298828125 582.228515625 795.087890625 586.439453125 c 0,367,368
 791.5703125 589.857421875 791.5703125 589.857421875 791.5703125 595.51171875 c 128,-1,369
 791.5703125 601.09375 791.5703125 601.09375 795.087890625 605.322265625 c 0,370,371
 799.298828125 609.533203125 799.298828125 609.533203125 804.8984375 609.533203125 c 2,372,-1
 805.591796875 609.533203125 l 2,358,359
1019.29296875 595.51171875 m 128,-1,374
 1019.29296875 589.849609375 1019.29296875 589.849609375 1015.08203125 586.439453125 c 0,375,376
 1011.54492188 582.228515625 1011.54492188 582.228515625 1005.96679688 582.228515625 c 2,377,-1
 862.326171875 582.228515625 l 2,378,379
 857.46484375 582.228515625 857.46484375 582.228515625 853.927734375 586.439453125 c 0,380,381
 849.740234375 589.884765625 849.740234375 589.884765625 849.740234375 595.51171875 c 128,-1,382
 849.740234375 601.1328125 849.740234375 601.1328125 853.927734375 605.322265625 c 0,383,384
 857.396484375 608.82421875 857.396484375 608.82421875 862.326171875 609.533203125 c 2,385,-1
 1005.96679688 609.533203125 l 2,386,387
 1011.58007812 609.533203125 1011.58007812 609.533203125 1015.08203125 605.322265625 c 0,388,373
 1019.29296875 601.142578125 1019.29296875 601.142578125 1019.29296875 595.51171875 c 128,-1,374
1046.59765625 582.20703125 m 128,-1,390
 1041.06640625 582.20703125 1041.06640625 582.20703125 1036.78710938 586.41796875 c 0,391,392
 1032.57617188 589.853515625 1032.57617188 589.853515625 1032.57617188 595.48828125 c 128,-1,393
 1032.57617188 601.091796875 1032.57617188 601.091796875 1036.78710938 605.298828125 c 128,-1,394
 1040.99414062 609.509765625 1040.99414062 609.509765625 1046.59765625 609.509765625 c 128,-1,395
 1052.1875 609.509765625 1052.1875 609.509765625 1055.69140625 605.298828125 c 0,396,397
 1059.92382812 601.1015625 1059.92382812 601.1015625 1059.92382812 595.48828125 c 128,-1,398
 1059.92382812 589.90625 1059.92382812 589.90625 1055.69140625 586.41796875 c 0,399,389
 1052.22070312 582.20703125 1052.22070312 582.20703125 1046.59765625 582.20703125 c 128,-1,390
EndSplineSet
EndChar

StartChar: two
Encoding: 50 57346 7
Width: 2253
GlyphClass: 2
Flags: W
LayerCount: 2
Fore
SplineSet
2026 610 m 1,0,1
 1979 597 1979 597 1931.5 585 c 128,-1,2
 1884 573 1884 573 1836 567 c 0,3,4
 1805 563 1805 563 1774 559 c 128,-1,5
 1743 555 1743 555 1713 551 c 0,6,7
 1666 545 1666 545 1619 542.5 c 128,-1,8
 1572 540 1572 540 1525 538 c 0,9,10
 1476 536 1476 536 1427.5 536.5 c 128,-1,11
 1379 537 1379 537 1330 541 c 128,-1,12
 1281 545 1281 545 1233 552.5 c 128,-1,13
 1185 560 1185 560 1137 570 c 0,14,15
 1133 571 1133 571 1126 574 c 128,-1,16
 1119 577 1119 577 1115 576 c 0,17,18
 1112 575 1112 575 1108.5 571.5 c 128,-1,19
 1105 568 1105 568 1103 567 c 0,20,21
 1100 565 1100 565 1097 565.5 c 128,-1,22
 1094 566 1094 566 1091 566 c 1,23,24
 1092 564 1092 564 1091.5 562.5 c 128,-1,25
 1091 561 1091 561 1091 559 c 1,26,27
 1089 560 1089 560 1087 561 c 128,-1,28
 1085 562 1085 562 1082 562 c 1,29,30
 1082 560 1082 560 1082 558 c 128,-1,31
 1082 556 1082 556 1082 553 c 1,32,33
 1080 554 1080 554 1078 555 c 128,-1,34
 1076 556 1076 556 1074 557 c 1,35,36
 1074 555 1074 555 1073.5 553.5 c 128,-1,37
 1073 552 1073 552 1072 550 c 0,38,39
 1066 552 1066 552 1064.5 552.5 c 128,-1,40
 1063 553 1063 553 1060 547 c 0,41,42
 1059 547 1059 547 1056.5 549.5 c 128,-1,43
 1054 552 1054 552 1053 550 c 0,44,45
 1050 546 1050 546 1049 546.5 c 128,-1,46
 1048 547 1048 547 1043 550 c 1,47,48
 1043 548 1043 548 1042 546.5 c 128,-1,49
 1041 545 1041 545 1041 544 c 1,50,51
 1037 546 1037 546 1034 544 c 128,-1,52
 1031 542 1031 542 1030 543 c 0,53,54
 1025 546 1025 546 1024 546 c 128,-1,55
 1023 546 1023 546 1018 541 c 1,56,57
 1017 543 1017 543 1015.5 544.5 c 128,-1,58
 1014 546 1014 546 1012 547 c 0,59,60
 1007 540 1007 540 1004.5 541 c 128,-1,61
 1002 542 1002 542 994 547 c 0,62,63
 983 553 983 553 971 556 c 128,-1,64
 959 559 959 559 946 560 c 0,65,66
 935 561 935 561 924 560.5 c 128,-1,67
 913 560 913 560 901 560 c 0,68,69
 871 560 871 560 840 560 c 128,-1,70
 809 560 809 560 778 560 c 0,71,72
 735 559 735 559 692 559 c 128,-1,73
 649 559 649 559 606 556 c 0,74,75
 575 554 575 554 544.5 552 c 128,-1,76
 514 550 514 550 483 549 c 0,77,78
 459 547 459 547 435 542.5 c 128,-1,79
 411 538 411 538 387 534 c 0,80,81
 365 530 365 530 343 523 c 128,-1,82
 321 516 321 516 299 509 c 0,83,84
 269 499 269 499 241 487.5 c 128,-1,85
 213 476 213 476 188 457 c 0,86,87
 164 438 164 438 143.5 416.5 c 128,-1,88
 123 395 123 395 106 370 c 0,89,90
 99 359 99 359 91.5 348.5 c 128,-1,91
 84 338 84 338 83 325 c 0,92,93
 83 313 83 313 96.5 306 c 128,-1,94
 110 299 110 299 118 295 c 0,95,96
 122 293 122 293 123 286 c 128,-1,97
 124 279 124 279 125 274 c 256,98,99
 126 269 126 269 131.5 267 c 128,-1,100
 137 265 137 265 142 263 c 0,101,102
 151 260 151 260 162.5 258 c 128,-1,103
 174 256 174 256 183 259 c 0,104,105
 191 261 191 261 198 263.5 c 128,-1,106
 205 266 205 266 213 269 c 0,107,108
 222 272 222 272 229.5 278 c 128,-1,109
 237 284 237 284 245 290 c 0,110,111
 269 309 269 309 294 324.5 c 128,-1,112
 319 340 319 340 349 348 c 0,113,114
 364 351 364 351 380.5 352.5 c 128,-1,115
 397 354 397 354 413 355 c 0,116,117
 447 355 447 355 481 349.5 c 128,-1,118
 515 344 515 344 547 334 c 0,119,120
 557 331 557 331 566 327.5 c 128,-1,121
 575 324 575 324 586 325 c 0,122,123
 591 326 591 326 597 331.5 c 128,-1,124
 603 337 603 337 608 340 c 0,125,126
 625 352 625 352 647 359 c 128,-1,127
 669 366 669 366 690 367 c 0,128,129
 704 367 704 367 717.5 364.5 c 128,-1,130
 731 362 731 362 744 357 c 0,131,132
 752 354 752 354 760.5 348.5 c 128,-1,133
 769 343 769 343 778 344 c 0,134,135
 784 344 784 344 788 348 c 128,-1,136
 792 352 792 352 797 355 c 0,137,138
 808 362 808 362 820.5 366.5 c 128,-1,139
 833 371 833 371 846 373 c 0,140,141
 868 376 868 376 885 370.5 c 128,-1,142
 902 365 902 365 917 350 c 0,143,144
 925 343 925 343 930.5 336 c 128,-1,145
 936 329 936 329 942 320 c 0,146,147
 949 310 949 310 953.5 304 c 128,-1,148
 958 298 958 298 971 297 c 0,149,150
 981 296 981 296 986.5 298 c 128,-1,151
 992 300 992 300 999 307 c 0,152,153
 1007 315 1007 315 1015 323 c 128,-1,154
 1023 331 1023 331 1031 339 c 1,155,156
 1033 333 1033 333 1034.5 326.5 c 128,-1,157
 1036 320 1036 320 1037 314 c 0,158,159
 1039 308 1039 308 1041.5 308.5 c 128,-1,160
 1044 309 1044 309 1049 309 c 0,161,162
 1065 309 1065 309 1080.5 309 c 128,-1,163
 1096 309 1096 309 1111 309 c 0,164,165
 1116 309 1116 309 1121 314 c 128,-1,166
 1126 319 1126 319 1131 321 c 0,167,168
 1138 325 1138 325 1145.5 322.5 c 128,-1,169
 1153 320 1153 320 1160 318 c 0,170,171
 1165 316 1165 316 1169 313.5 c 128,-1,172
 1173 311 1173 311 1177 313 c 0,173,174
 1186 319 1186 319 1193.5 321 c 128,-1,175
 1201 323 1201 323 1211 320 c 0,176,177
 1213 320 1213 320 1221.5 316 c 128,-1,178
 1230 312 1230 312 1230 313 c 0,179,180
 1235 316 1235 316 1241 320 c 128,-1,181
 1247 324 1247 324 1253 325 c 0,182,183
 1257 325 1257 325 1264 323.5 c 128,-1,184
 1271 322 1271 322 1274 320 c 0,185,186
 1275 319 1275 319 1278.5 316.5 c 128,-1,187
 1282 314 1282 314 1284 315 c 0,188,189
 1288 318 1288 318 1291.5 320.5 c 128,-1,190
 1295 323 1295 323 1300 325 c 0,191,192
 1307 328 1307 328 1313.5 327 c 128,-1,193
 1320 326 1320 326 1328 324 c 0,194,195
 1330 324 1330 324 1332 321.5 c 128,-1,196
 1334 319 1334 319 1336 319 c 0,197,198
 1339 319 1339 319 1343.5 323 c 128,-1,199
 1348 327 1348 327 1351 328 c 0,200,201
 1360 333 1360 333 1367 332.5 c 128,-1,202
 1374 332 1374 332 1384 330 c 0,203,204
 1386 330 1386 330 1388.5 328.5 c 128,-1,205
 1391 327 1391 327 1393 326 c 0,206,207
 1396 324 1396 324 1398.5 326.5 c 128,-1,208
 1401 329 1401 329 1404 331 c 0,209,210
 1413 339 1413 339 1424 342 c 128,-1,211
 1435 345 1435 345 1445 336 c 0,212,213
 1452 331 1452 331 1456.5 331 c 128,-1,214
 1461 331 1461 331 1470 333 c 0,215,216
 1483 335 1483 335 1496 337 c 128,-1,217
 1509 339 1509 339 1522 341 c 0,218,219
 1576 349 1576 349 1629.5 361 c 128,-1,220
 1683 373 1683 373 1735 392 c 0,221,222
 1792 412 1792 412 1847.5 440 c 128,-1,223
 1903 468 1903 468 1953 503 c 0,224,225
 1987 526 1987 526 2019.5 551 c 128,-1,226
 2052 576 2052 576 2084 602 c 0,227,228
 2096 611 2096 611 2108 620.5 c 128,-1,229
 2120 630 2120 630 2131 639 c 1,230,231
 2105 632 2105 632 2079 624.5 c 128,-1,232
 2053 617 2053 617 2026 610 c 1,233,-1
 2026 610 l 1,0,1
848 480 m 1,234,235
 848 482 848 482 848 489 c 128,-1,236
 848 496 848 496 849 496 c 0,237,238
 854 496 854 496 859 496 c 128,-1,239
 864 496 864 496 868 496 c 0,240,241
 879 496 879 496 890 496 c 128,-1,242
 901 496 901 496 912 496 c 1,243,244
 911 492 911 492 911.5 488.5 c 128,-1,245
 912 485 912 485 913 481 c 1,246,247
 897 481 897 481 881 481 c 128,-1,248
 865 481 865 481 848 480 c 1,249,-1
 848 480 l 1,234,235
EndSplineSet
EndChar

StartChar: three
Encoding: 51 57347 8
Width: 2150
GlyphClass: 2
Flags: W
LayerCount: 2
Fore
SplineSet
1978 511 m 1,0,1
 1917 537 1917 537 1852.5 557 c 128,-1,2
 1788 577 1788 577 1724 594 c 0,3,4
 1712 597 1712 597 1703.5 597.5 c 128,-1,5
 1695 598 1695 598 1685 590 c 0,6,7
 1679 585 1679 585 1687 581.5 c 128,-1,8
 1695 578 1695 578 1698 577 c 0,9,10
 1704 575 1704 575 1709.5 573 c 128,-1,11
 1715 571 1715 571 1721 569 c 0,12,13
 1733 563 1733 563 1745 557.5 c 128,-1,14
 1757 552 1757 552 1767 543 c 0,15,16
 1773 539 1773 539 1776.5 536 c 128,-1,17
 1780 533 1780 533 1781 526 c 256,18,19
 1782 519 1782 519 1781 508.5 c 128,-1,20
 1780 498 1780 498 1770 497 c 0,21,22
 1762 496 1762 496 1755 495 c 128,-1,23
 1748 494 1748 494 1741 493 c 0,24,25
 1737 492 1737 492 1731.5 494 c 128,-1,26
 1726 496 1726 496 1722 498 c 0,27,28
 1709 502 1709 502 1696 506.5 c 128,-1,29
 1683 511 1683 511 1670 515 c 0,30,31
 1630 529 1630 529 1589 542 c 128,-1,32
 1548 555 1548 555 1507 566 c 0,33,34
 1479 574 1479 574 1450.5 579 c 128,-1,35
 1422 584 1422 584 1394 590 c 0,36,37
 1383 592 1383 592 1371.5 594 c 128,-1,38
 1360 596 1360 596 1348 598 c 0,39,40
 1344 598 1344 598 1339 593.5 c 128,-1,41
 1334 589 1334 589 1330 590 c 0,42,43
 1323 592 1323 592 1321.5 598 c 128,-1,44
 1320 604 1320 604 1311 600 c 0,45,46
 1303 597 1303 597 1300 596 c 128,-1,47
 1297 595 1297 595 1290 601 c 0,48,49
 1282 606 1282 606 1278 604.5 c 128,-1,50
 1274 603 1274 603 1266 600 c 0,51,52
 1260 598 1260 598 1256 603 c 128,-1,53
 1252 608 1252 608 1248 611 c 0,54,55
 1246 614 1246 614 1240 608 c 128,-1,56
 1234 602 1234 602 1229 607 c 0,57,58
 1221 614 1221 614 1219 614 c 128,-1,59
 1217 614 1217 614 1208 610 c 0,60,61
 1202 607 1202 607 1196.5 611 c 128,-1,62
 1191 615 1191 615 1186 618 c 0,63,64
 1183 620 1183 620 1178 615 c 128,-1,65
 1173 610 1173 610 1169 612 c 0,66,67
 1161 617 1161 617 1157.5 619 c 128,-1,68
 1154 621 1154 621 1146 616 c 0,69,70
 1138 612 1138 612 1135.5 614 c 128,-1,71
 1133 616 1133 616 1126 622 c 0,72,73
 1121 626 1121 626 1115 622 c 128,-1,74
 1109 618 1109 618 1104 616 c 0,75,76
 1102 615 1102 615 1096.5 622 c 128,-1,77
 1091 629 1091 629 1089 628 c 0,78,79
 1082 622 1082 622 1079 619.5 c 128,-1,80
 1076 617 1076 617 1069 622 c 0,81,82
 1061 627 1061 627 1058.5 626.5 c 128,-1,83
 1056 626 1056 626 1047 622 c 0,84,85
 1039 617 1039 617 1037 622.5 c 128,-1,86
 1035 628 1035 628 1028 631 c 0,87,88
 1026 632 1026 632 1022.5 631.5 c 128,-1,89
 1019 631 1019 631 1017 631 c 0,90,91
 1010 631 1010 631 1003 631 c 128,-1,92
 996 631 996 631 989 631 c 0,93,94
 940 631 940 631 891.5 630 c 128,-1,95
 843 629 843 629 794 627 c 0,96,97
 736 623 736 623 676.5 621.5 c 128,-1,98
 617 620 617 620 559 613 c 0,99,100
 499 605 499 605 439 595.5 c 128,-1,101
 379 586 379 586 320 572 c 0,102,103
 307 569 307 569 294.5 566.5 c 128,-1,104
 282 564 282 564 269 562 c 0,105,106
 264 561 264 561 257 560.5 c 128,-1,107
 250 560 250 560 245 556 c 0,108,109
 237 550 237 550 233.5 550 c 128,-1,110
 230 550 230 550 220 553 c 1,111,112
 223 538 223 538 206 539.5 c 128,-1,113
 189 541 189 541 182 539 c 0,114,115
 170 536 170 536 162 519.5 c 128,-1,116
 154 503 154 503 149 494 c 0,117,118
 135 469 135 469 121.5 443.5 c 128,-1,119
 108 418 108 418 96 392 c 0,120,121
 90 380 90 380 87 368.5 c 128,-1,122
 84 357 84 357 84 344 c 0,123,124
 83 326 83 326 91 311 c 128,-1,125
 99 296 99 296 116 288 c 0,126,127
 126 284 126 284 135 281.5 c 128,-1,128
 144 279 144 279 156 282 c 0,129,130
 162 284 162 284 168.5 286 c 128,-1,131
 175 288 175 288 181 290 c 0,132,133
 204 298 204 298 227 309.5 c 128,-1,134
 250 321 250 321 272 331 c 0,135,136
 284 336 284 336 293.5 339.5 c 128,-1,137
 303 343 303 343 315 346 c 0,138,139
 327 348 327 348 338 350 c 128,-1,140
 349 352 349 352 360 353 c 0,141,142
 383 357 383 357 406.5 360 c 128,-1,143
 430 363 430 363 453 366 c 0,144,145
 509 370 509 370 565 375 c 128,-1,146
 621 380 621 380 677 383 c 0,147,148
 687 383 687 383 697.5 383.5 c 128,-1,149
 708 384 708 384 718 384 c 0,150,151
 723 384 723 384 731.5 385 c 128,-1,152
 740 386 740 386 744 382 c 0,153,154
 758 373 758 373 769 365 c 128,-1,155
 780 357 780 357 798 361 c 0,156,157
 804 363 804 363 809.5 367.5 c 128,-1,158
 815 372 815 372 820 375 c 0,159,160
 831 383 831 383 841 390.5 c 128,-1,161
 851 398 851 398 863 403 c 0,162,163
 883 412 883 412 903 414 c 128,-1,164
 923 416 923 416 945 413 c 0,165,166
 952 412 952 412 959.5 411 c 128,-1,167
 967 410 967 410 974 409 c 0,168,169
 986 408 986 408 998 401.5 c 128,-1,170
 1010 395 1010 395 1020 389 c 0,171,172
 1040 377 1040 377 1051 358 c 128,-1,173
 1062 339 1062 339 1067 316 c 0,174,175
 1068 309 1068 309 1069.5 302 c 128,-1,176
 1071 295 1071 295 1072 289 c 0,177,178
 1073 288 1073 288 1077 287 c 128,-1,179
 1081 286 1081 286 1082 286 c 0,180,181
 1086 284 1086 284 1087 285.5 c 128,-1,182
 1088 287 1088 287 1091 290 c 0,183,184
 1094 294 1094 294 1099.5 295 c 128,-1,185
 1105 296 1105 296 1108 292 c 0,186,187
 1114 284 1114 284 1116 280.5 c 128,-1,188
 1118 277 1118 277 1118 267 c 0,189,190
 1118 264 1118 264 1133 264.5 c 128,-1,191
 1148 265 1148 265 1151 265 c 0,192,193
 1170 265 1170 265 1188 265 c 128,-1,194
 1206 265 1206 265 1225 265 c 0,195,196
 1242 265 1242 265 1260 265 c 128,-1,197
 1278 265 1278 265 1296 266 c 0,198,199
 1354 267 1354 267 1413 267.5 c 128,-1,200
 1472 268 1472 268 1530 273 c 0,201,202
 1572 277 1572 277 1614.5 284 c 128,-1,203
 1657 291 1657 291 1699 301.5 c 128,-1,204
 1741 312 1741 312 1781 327 c 128,-1,205
 1821 342 1821 342 1859 361 c 0,206,207
 1908 386 1908 386 1948.5 419.5 c 128,-1,208
 1989 453 1989 453 2029 489 c 1,209,210
 2016 495 2016 495 2003.5 500.5 c 128,-1,211
 1991 506 1991 506 1978 511 c 1,212,-1
 1978 511 l 1,0,1
151 361 m 1,213,214
 158 351 158 351 160.5 343 c 128,-1,215
 163 335 163 335 159 323 c 0,216,217
 156 317 156 317 145.5 309.5 c 128,-1,218
 135 302 135 302 127 305 c 0,219,220
 115 309 115 309 109 315 c 128,-1,221
 103 321 103 321 100 334 c 0,222,223
 96 355 96 355 116.5 363 c 128,-1,224
 137 371 137 371 151 361 c 1,225,-1
 151 361 l 1,213,214
EndSplineSet
EndChar

StartChar: four
Encoding: 52 57348 9
Width: 2125
GlyphClass: 2
Flags: W
LayerCount: 2
Fore
SplineSet
1949 354 m 1,0,1
 1927 396 1927 396 1900.5 434.5 c 128,-1,2
 1874 473 1874 473 1843 509 c 0,3,4
 1800 560 1800 560 1747.5 601 c 128,-1,5
 1695 642 1695 642 1636 674 c 0,6,7
 1592 698 1592 698 1544.5 718.5 c 128,-1,8
 1497 739 1497 739 1447 749 c 0,9,10
 1415 756 1415 756 1382.5 763 c 128,-1,11
 1350 770 1350 770 1317 773 c 0,12,13
 1294 774 1294 774 1270.5 776 c 128,-1,14
 1247 778 1247 778 1224 780 c 0,15,16
 1217 780 1217 780 1210 780.5 c 128,-1,17
 1203 781 1203 781 1196 782 c 0,18,19
 1195 782 1195 782 1191.5 790.5 c 128,-1,20
 1188 799 1188 799 1186 802 c 0,21,22
 1178 812 1178 812 1155 806.5 c 128,-1,23
 1132 801 1132 801 1120 799 c 0,24,25
 1115 799 1115 799 1108 791 c 128,-1,26
 1101 783 1101 783 1097 780 c 0,27,28
 1086 770 1086 770 1072.5 763 c 128,-1,29
 1059 756 1059 756 1045 751 c 0,30,31
 1007 736 1007 736 963.5 731.5 c 128,-1,32
 920 727 920 727 880 731 c 0,33,34
 873 732 873 732 865 733 c 128,-1,35
 857 734 857 734 850 733 c 0,36,37
 847 733 847 733 843.5 731 c 128,-1,38
 840 729 840 729 836 729 c 0,39,40
 832 730 832 730 827.5 733 c 128,-1,41
 823 736 823 736 819 737 c 0,42,43
 812 740 812 740 808.5 741.5 c 128,-1,44
 805 743 805 743 798 742 c 0,45,46
 787 739 787 739 775.5 736 c 128,-1,47
 764 733 764 733 753 731 c 0,48,49
 684 714 684 714 618.5 691 c 128,-1,50
 553 668 553 668 491 634 c 0,51,52
 476 626 476 626 461.5 618 c 128,-1,53
 447 610 447 610 433 602 c 0,54,55
 430 601 430 601 429.5 599.5 c 128,-1,56
 429 598 429 598 429 595 c 0,57,58
 428 593 428 593 424.5 591.5 c 128,-1,59
 421 590 421 590 419 589 c 0,60,61
 413 586 413 586 407.5 583 c 128,-1,62
 402 580 402 580 399 575 c 0,63,64
 395 570 395 570 392 566.5 c 128,-1,65
 389 563 389 563 382 561 c 0,66,67
 371 558 371 558 364 556.5 c 128,-1,68
 357 555 357 555 354 541 c 0,69,70
 353 531 353 531 350 532.5 c 128,-1,71
 347 534 347 534 341 534 c 0,72,73
 333 534 333 534 323.5 531 c 128,-1,74
 314 528 314 528 316 518 c 1,75,76
 313 511 313 511 311.5 506.5 c 128,-1,77
 310 502 310 502 303 501 c 0,78,79
 298 499 298 499 293 503 c 128,-1,80
 288 507 288 507 283 507 c 0,81,82
 277 507 277 507 273 503.5 c 128,-1,83
 269 500 269 500 268 495 c 0,84,85
 264 487 264 487 263 481 c 128,-1,86
 262 475 262 475 252 474 c 0,87,88
 246 473 246 473 236.5 475.5 c 128,-1,89
 227 478 227 478 229 466 c 0,90,91
 231 449 231 449 213 449.5 c 128,-1,92
 195 450 195 450 189 442 c 256,93,94
 183 434 183 434 180 425 c 128,-1,95
 177 416 177 416 174 406 c 0,96,97
 172 398 172 398 174.5 395 c 128,-1,98
 177 392 177 392 183 386 c 1,99,100
 177 383 177 383 169.5 380 c 128,-1,101
 162 377 162 377 160 370 c 0,102,103
 158 362 158 362 155.5 354 c 128,-1,104
 153 346 153 346 151 338 c 0,105,106
 146 320 146 320 141 302.5 c 128,-1,107
 136 285 136 285 131 267 c 0,108,109
 127 251 127 251 119.5 235.5 c 128,-1,110
 112 220 112 220 103 206 c 0,111,112
 99 200 99 200 91.5 191 c 128,-1,113
 84 182 84 182 84 175 c 0,114,115
 82 161 82 161 109.5 157.5 c 128,-1,116
 137 154 137 154 146 152 c 0,117,118
 151 150 151 150 155.5 146.5 c 128,-1,119
 160 143 160 143 165 140 c 0,120,121
 173 135 173 135 181.5 130 c 128,-1,122
 190 125 190 125 199 120 c 0,123,124
 228 102 228 102 262.5 93 c 128,-1,125
 297 84 297 84 331 93 c 0,126,127
 384 106 384 106 421.5 149.5 c 128,-1,128
 459 193 459 193 463 247 c 0,129,130
 464 254 464 254 464 260.5 c 128,-1,131
 464 267 464 267 464 274 c 1,132,133
 471 269 471 269 474.5 278 c 128,-1,134
 478 287 478 287 480 290 c 0,135,136
 487 302 487 302 494 313.5 c 128,-1,137
 501 325 501 325 511 334 c 0,138,139
 533 356 533 356 561.5 357.5 c 128,-1,140
 590 359 590 359 618 357 c 0,141,142
 626 356 626 356 629 361.5 c 128,-1,143
 632 367 632 367 636 373 c 0,144,145
 645 386 645 386 654.5 398 c 128,-1,146
 664 410 664 410 677 420 c 0,147,148
 706 444 706 444 741.5 450.5 c 128,-1,149
 777 457 777 457 813 446 c 0,150,151
 825 442 825 442 828 442 c 128,-1,152
 831 442 831 442 837 453 c 0,153,154
 845 470 845 470 858.5 484.5 c 128,-1,155
 872 499 872 499 887 509 c 0,156,157
 917 530 917 530 954.5 529.5 c 128,-1,158
 992 529 992 529 1021 508 c 0,159,160
 1037 496 1037 496 1050 480 c 128,-1,161
 1063 464 1063 464 1072 447 c 0,162,163
 1076 440 1076 440 1081.5 422.5 c 128,-1,164
 1087 405 1087 405 1097 403 c 0,165,166
 1104 402 1104 402 1127.5 411.5 c 128,-1,167
 1151 421 1151 421 1155 426 c 0,168,169
 1162 434 1162 434 1158 439 c 128,-1,170
 1154 444 1154 444 1165 448 c 0,171,172
 1171 450 1171 450 1177.5 452.5 c 128,-1,173
 1184 455 1184 455 1190 457 c 0,174,175
 1218 465 1218 465 1245.5 472.5 c 128,-1,176
 1273 480 1273 480 1301 485 c 0,177,178
 1351 494 1351 494 1402 496.5 c 128,-1,179
 1453 499 1453 499 1504 494 c 0,180,181
 1569 488 1569 488 1635.5 466.5 c 128,-1,182
 1702 445 1702 445 1761 415 c 0,183,184
 1796 397 1796 397 1830.5 374 c 128,-1,185
 1865 351 1865 351 1896 323.5 c 128,-1,186
 1927 296 1927 296 1954.5 265 c 128,-1,187
 1982 234 1982 234 2003 200 c 1,188,189
 1999 240 1999 240 1983 279 c 128,-1,190
 1967 318 1967 318 1949 354 c 1,191,-1
 1949 354 l 1,0,1
385 164 m 1,192,193
 369 146 369 146 351 138 c 128,-1,194
 333 130 333 130 310 128 c 0,195,196
 289 126 289 126 273 128.5 c 128,-1,197
 257 131 257 131 237 143 c 0,198,199
 216 156 216 156 204.5 172.5 c 128,-1,200
 193 189 193 189 185 211 c 0,201,202
 177 234 177 234 179 256.5 c 128,-1,203
 181 279 181 279 188 302 c 256,204,205
 195 325 195 325 221 348 c 128,-1,206
 247 371 247 371 272 373 c 0,207,208
 287 373 287 373 302.5 373.5 c 128,-1,209
 318 374 318 374 333 369 c 0,210,211
 361 359 361 359 383 333.5 c 128,-1,212
 405 308 405 308 412 279 c 0,213,214
 420 249 420 249 413 218 c 128,-1,215
 406 187 406 187 385 164 c 1,216,-1
 385 164 l 1,192,193
EndSplineSet
EndChar

StartChar: five
Encoding: 53 57349 10
Width: 2381
GlyphClass: 2
Flags: W
LayerCount: 2
Fore
SplineSet
2270 452 m 1,0,1
 2215 461 2215 461 2160.5 469 c 128,-1,2
 2106 477 2106 477 2051.5 485.5 c 128,-1,3
 1997 494 1997 494 1942.5 502.5 c 128,-1,4
 1888 511 1888 511 1834 519 c 0,5,6
 1827 520 1827 520 1820 520 c 128,-1,7
 1813 520 1813 520 1807 520 c 0,8,9
 1785 520 1785 520 1763 520 c 128,-1,10
 1741 520 1741 520 1719 521 c 0,11,12
 1647 521 1647 521 1575 521 c 128,-1,13
 1503 521 1503 521 1431 522 c 0,14,15
 1361 522 1361 522 1290 522.5 c 128,-1,16
 1219 523 1219 523 1149 523 c 0,17,18
 1128 523 1128 523 1107.5 523 c 128,-1,19
 1087 523 1087 523 1067 523 c 0,20,21
 1062 523 1062 523 1058 523 c 128,-1,22
 1054 523 1054 523 1050 523 c 0,23,24
 1044 523 1044 523 1038 518 c 128,-1,25
 1032 513 1032 513 1025 513 c 0,26,27
 1008 513 1008 513 992 513 c 128,-1,28
 976 513 976 513 960 513 c 0,29,30
 948 513 948 513 945 513 c 128,-1,31
 942 513 942 513 942 525 c 0,32,33
 942 559 942 559 942 593 c 128,-1,34
 942 627 942 627 942 661 c 0,35,36
 942 665 942 665 942 669.5 c 128,-1,37
 942 674 942 674 942 679 c 0,38,39
 942 682 942 682 935 681.5 c 128,-1,40
 928 681 928 681 926 681 c 256,41,42
 924 681 924 681 916.5 681 c 128,-1,43
 909 681 909 681 909 679 c 0,44,45
 909 675 909 675 909 670.5 c 128,-1,46
 909 666 909 666 909 662 c 0,47,48
 909 627 909 627 909 592.5 c 128,-1,49
 909 558 909 558 909 523 c 0,50,51
 909 517 909 517 910 510 c 128,-1,52
 911 503 911 503 904 503 c 0,53,54
 886 503 886 503 869 503 c 128,-1,55
 852 503 852 503 835 503 c 0,56,57
 829 503 829 503 822.5 503 c 128,-1,58
 816 503 816 503 810 503 c 0,59,60
 805 503 805 503 803 498 c 128,-1,61
 801 493 801 493 795 492 c 256,62,63
 789 491 789 491 784.5 493.5 c 128,-1,64
 780 496 780 496 777 500 c 0,65,66
 775 502 775 502 774.5 502.5 c 128,-1,67
 774 503 774 503 772 503 c 0,68,69
 764 503 764 503 756 503 c 128,-1,70
 748 503 748 503 740 503 c 256,71,72
 732 503 732 503 724 503 c 128,-1,73
 716 503 716 503 708 503 c 0,74,75
 701 503 701 503 696.5 497.5 c 128,-1,76
 692 492 692 492 685 493 c 0,77,78
 680 494 680 494 676 498.5 c 128,-1,79
 672 503 672 503 669 503 c 0,80,81
 661 503 661 503 653.5 503 c 128,-1,82
 646 503 646 503 639 503 c 0,83,84
 630 503 630 503 622 503 c 128,-1,85
 614 503 614 503 605 503 c 0,86,87
 603 503 603 503 601.5 503 c 128,-1,88
 600 503 600 503 598 503 c 2,89,90
 598 503 598 503 596 501 c 256,91,92
 594 499 594 499 595 499 c 1,93,94
 592 497 592 497 588.5 495 c 128,-1,95
 585 493 585 493 582 493 c 0,96,97
 574 492 574 492 570.5 497.5 c 128,-1,98
 567 503 567 503 559 503 c 0,99,100
 550 503 550 503 541 503 c 128,-1,101
 532 503 532 503 524 503 c 0,102,103
 517 503 517 503 510.5 503 c 128,-1,104
 504 503 504 503 498 504 c 0,105,106
 496 504 496 504 495 502 c 128,-1,107
 494 500 494 500 494 499 c 0,108,109
 493 497 493 497 488 495.5 c 128,-1,110
 483 494 483 494 481 494 c 256,111,112
 479 494 479 494 475 496 c 128,-1,113
 471 498 471 498 469 498 c 0,114,115
 467 499 467 499 465.5 501.5 c 128,-1,116
 464 504 464 504 463 504 c 0,117,118
 457 504 457 504 450 504 c 128,-1,119
 443 504 443 504 437 504 c 0,120,121
 428 504 428 504 419.5 504 c 128,-1,122
 411 504 411 504 402 504 c 0,123,124
 395 504 395 504 393 502.5 c 128,-1,125
 391 501 391 501 385 498 c 0,126,127
 379 496 379 496 374 494 c 128,-1,128
 369 492 369 492 364 498 c 0,129,130
 359 503 359 503 352.5 502.5 c 128,-1,131
 346 502 346 502 339 502 c 0,132,133
 324 501 324 501 312.5 504.5 c 128,-1,134
 301 508 301 508 287 513 c 0,135,136
 280 516 280 516 270 515 c 128,-1,137
 260 514 260 514 252 514 c 0,138,139
 220 514 220 514 188 514 c 128,-1,140
 156 514 156 514 124 515 c 0,141,142
 114 515 114 515 106 507 c 128,-1,143
 98 499 98 499 96 490 c 0,144,145
 93 477 93 477 94 463 c 128,-1,146
 95 449 95 449 94 436 c 0,147,148
 94 424 94 424 94 412 c 128,-1,149
 94 400 94 400 94 388 c 0,150,151
 94 381 94 381 94 374.5 c 128,-1,152
 94 368 94 368 94 362 c 0,153,154
 94 357 94 357 98 350.5 c 128,-1,155
 102 344 102 344 104 339 c 0,156,157
 105 337 105 337 108.5 329.5 c 128,-1,158
 112 322 112 322 114 322 c 0,159,160
 117 322 117 322 120 322 c 128,-1,161
 123 322 123 322 127 322 c 0,162,163
 143 322 143 322 159.5 322 c 128,-1,164
 176 322 176 322 192 322 c 0,165,166
 210 322 210 322 228.5 322 c 128,-1,167
 247 322 247 322 265 322 c 0,168,169
 273 322 273 322 281.5 321.5 c 128,-1,170
 290 321 290 321 297 324 c 0,171,172
 303 327 303 327 310 330.5 c 128,-1,173
 317 334 317 334 323 335 c 0,174,175
 330 336 330 336 337.5 335.5 c 128,-1,176
 345 335 345 335 352 335 c 256,177,178
 359 335 359 335 362 336 c 128,-1,179
 365 337 365 337 371 339 c 0,180,181
 375 340 375 340 379 340 c 128,-1,182
 383 340 383 340 387 336 c 0,183,184
 389 334 389 334 389 333 c 128,-1,185
 389 332 389 332 392 332 c 0,186,187
 408 332 408 332 424.5 332 c 128,-1,188
 441 332 441 332 457 332 c 0,189,190
 465 332 465 332 466 333.5 c 128,-1,191
 467 335 467 335 473 339 c 0,192,193
 483 345 483 345 487.5 338.5 c 128,-1,194
 492 332 492 332 499 332 c 0,195,196
 515 332 515 332 531 332 c 128,-1,197
 547 332 547 332 564 332 c 0,198,199
 570 332 570 332 574 337.5 c 128,-1,200
 578 343 578 343 587 340 c 0,201,202
 589 339 589 339 592 335.5 c 128,-1,203
 595 332 595 332 596 332 c 0,204,205
 599 332 599 332 601 332 c 128,-1,206
 603 332 603 332 606 332 c 0,207,208
 621 332 621 332 637 332 c 128,-1,209
 653 332 653 332 668 332 c 0,210,211
 669 332 669 332 671.5 335 c 128,-1,212
 674 338 674 338 675 339 c 0,213,214
 681 342 681 342 687.5 340.5 c 128,-1,215
 694 339 694 339 698 335 c 256,216,217
 702 331 702 331 707.5 331.5 c 128,-1,218
 713 332 713 332 718 332 c 0,219,220
 728 332 728 332 737 332 c 128,-1,221
 746 332 746 332 755 332 c 0,222,223
 758 332 758 332 766 331 c 128,-1,224
 774 330 774 330 776 333 c 0,225,226
 781 340 781 340 788.5 340 c 128,-1,227
 796 340 796 340 803 337 c 0,228,229
 809 334 809 334 810.5 333.5 c 128,-1,230
 812 333 812 333 819 333 c 0,231,232
 837 333 837 333 854.5 333 c 128,-1,233
 872 333 872 333 890 333 c 0,234,235
 895 333 895 333 900 333 c 128,-1,236
 905 333 905 333 909 333 c 0,237,238
 910 333 910 333 910 327.5 c 128,-1,239
 910 322 910 322 910 321 c 0,240,241
 910 303 910 303 910 285 c 128,-1,242
 910 267 910 267 910 249 c 0,243,244
 910 242 910 242 910 235 c 128,-1,245
 910 228 910 228 910 221 c 0,246,247
 910 216 910 216 911 215.5 c 128,-1,248
 912 215 912 215 918 215 c 0,249,250
 920 215 920 215 931 215 c 2,251,-1
 942 215 l 1,252,253
 942 221 942 221 942 227 c 128,-1,254
 942 233 942 233 942 238 c 0,255,256
 942 255 942 255 942 272 c 128,-1,257
 942 289 942 289 942 306 c 0,258,259
 942 311 942 311 942.5 311.5 c 128,-1,260
 943 312 943 312 947 312 c 0,261,262
 952 312 952 312 957 312 c 128,-1,263
 962 312 962 312 968 312 c 0,264,265
 988 312 988 312 1009 312 c 128,-1,266
 1030 312 1030 312 1050 312 c 0,267,268
 1119 313 1119 313 1187.5 313 c 128,-1,269
 1256 313 1256 313 1324 313 c 0,270,271
 1388 313 1388 313 1451.5 313 c 128,-1,272
 1515 313 1515 313 1579 313 c 128,-1,273
 1643 313 1643 313 1706.5 313.5 c 128,-1,274
 1770 314 1770 314 1834 314 c 0,275,276
 1868 314 1868 314 1901.5 316.5 c 128,-1,277
 1935 319 1935 319 1969 323 c 0,278,279
 2019 328 2019 328 2067 340 c 128,-1,280
 2115 352 2115 352 2161 374 c 0,281,282
 2192 389 2192 389 2218 409 c 128,-1,283
 2244 429 2244 429 2270 452 c 1,284,-1
 2270 452 l 1,0,1
1950 460 m 1,285,286
 1957 456 1957 456 1960 450 c 128,-1,287
 1963 444 1963 444 1961 436 c 0,288,289
 1961 434 1961 434 1959.5 425.5 c 128,-1,290
 1958 417 1958 417 1953 417 c 0,291,292
 1941 417 1941 417 1929 417 c 128,-1,293
 1917 417 1917 417 1905 417 c 0,294,295
 1899 417 1899 417 1894.5 425.5 c 128,-1,296
 1890 434 1890 434 1890 439 c 0,297,298
 1890 442 1890 442 1894 451.5 c 128,-1,299
 1898 461 1898 461 1903 461 c 0,300,301
 1910 461 1910 461 1917 461 c 128,-1,302
 1924 461 1924 461 1931 461 c 0,303,304
 1935 461 1935 461 1940.5 462 c 128,-1,305
 1946 463 1946 463 1950 460 c 1,306,-1
 1950 460 l 1,285,286
EndSplineSet
EndChar

StartChar: six
Encoding: 54 57350 11
Width: 2253
GlyphClass: 2
Flags: W
LayerCount: 2
Fore
SplineSet
1910 600 m 1,0,1
 1922 593 1922 593 1916.5 580 c 128,-1,2
 1911 567 1911 567 1897 574 c 0,3,4
 1892 576 1892 576 1888.5 581 c 128,-1,5
 1885 586 1885 586 1883 591 c 0,6,7
 1879 598 1879 598 1876 601 c 128,-1,8
 1873 604 1873 604 1865 606 c 1,9,10
 1869 602 1869 602 1871.5 597 c 128,-1,11
 1874 592 1874 592 1874 586 c 0,12,13
 1872 578 1872 578 1864 575.5 c 128,-1,14
 1856 573 1856 573 1850 578 c 0,15,16
 1846 581 1846 581 1842 586 c 128,-1,17
 1838 591 1838 591 1835 595 c 0,18,19
 1831 604 1831 604 1828.5 607 c 128,-1,20
 1826 610 1826 610 1817 612 c 1,21,22
 1821 606 1821 606 1822 596.5 c 128,-1,23
 1823 587 1823 587 1816 582 c 0,24,25
 1812 579 1812 579 1804 580 c 128,-1,26
 1796 581 1796 581 1793 584 c 0,27,28
 1788 587 1788 587 1785 592.5 c 128,-1,29
 1782 598 1782 598 1780 602 c 0,30,31
 1776 609 1776 609 1773.5 612 c 128,-1,32
 1771 615 1771 615 1764 616 c 1,33,34
 1768 610 1768 610 1770.5 601.5 c 128,-1,35
 1773 593 1773 593 1765 588 c 0,36,37
 1760 584 1760 584 1754 586.5 c 128,-1,38
 1748 589 1748 589 1743 592 c 256,39,40
 1738 595 1738 595 1735 600.5 c 128,-1,41
 1732 606 1732 606 1730 611 c 0,42,43
 1727 618 1727 618 1724.5 620 c 128,-1,44
 1722 622 1722 622 1714 623 c 1,45,46
 1717 620 1717 620 1720 613 c 128,-1,47
 1723 606 1723 606 1721 602 c 256,48,49
 1719 598 1719 598 1718.5 596.5 c 128,-1,50
 1718 595 1718 595 1714 594 c 0,51,52
 1709 594 1709 594 1704.5 594 c 128,-1,53
 1700 594 1700 594 1696 593 c 0,54,55
 1690 593 1690 593 1686 599.5 c 128,-1,56
 1682 606 1682 606 1680 611 c 0,57,58
 1677 617 1677 617 1674 621 c 128,-1,59
 1671 625 1671 625 1664 626 c 1,60,61
 1665 623 1665 623 1668 615 c 128,-1,62
 1671 607 1671 607 1668 604 c 0,63,64
 1664 600 1664 600 1659 597 c 128,-1,65
 1654 594 1654 594 1648 598 c 256,66,67
 1642 602 1642 602 1639.5 606.5 c 128,-1,68
 1637 611 1637 611 1633 617 c 0,69,70
 1629 624 1629 624 1626 628 c 128,-1,71
 1623 632 1623 632 1614 633 c 1,72,73
 1617 629 1617 629 1618 621 c 128,-1,74
 1619 613 1619 613 1618 608 c 0,75,76
 1615 601 1615 601 1605.5 601 c 128,-1,77
 1596 601 1596 601 1591 604 c 256,78,79
 1586 607 1586 607 1583.5 611.5 c 128,-1,80
 1581 616 1581 616 1578 621 c 0,81,82
 1577 624 1577 624 1575 626.5 c 128,-1,83
 1573 629 1573 629 1572 632 c 0,84,85
 1570 636 1570 636 1568.5 636.5 c 128,-1,86
 1567 637 1567 637 1562 637 c 1,87,88
 1564 633 1564 633 1564 627.5 c 128,-1,89
 1564 622 1564 622 1562 618 c 0,90,91
 1558 613 1558 613 1551.5 610 c 128,-1,92
 1545 607 1545 607 1540 613 c 0,93,94
 1534 618 1534 618 1531 626 c 128,-1,95
 1528 634 1528 634 1524 640 c 256,96,97
 1520 646 1520 646 1512.5 645.5 c 128,-1,98
 1505 645 1505 645 1500 644 c 0,99,100
 1489 642 1489 642 1479 635.5 c 128,-1,101
 1469 629 1469 629 1459 625 c 0,102,103
 1439 615 1439 615 1419.5 608 c 128,-1,104
 1400 601 1400 601 1377 598 c 0,105,106
 1324 591 1324 591 1268.5 596 c 128,-1,107
 1213 601 1213 601 1160 611 c 0,108,109
 1141 614 1141 614 1122 617.5 c 128,-1,110
 1103 621 1103 621 1084 625 c 0,111,112
 1077 626 1077 626 1070 627.5 c 128,-1,113
 1063 629 1063 629 1056 630 c 0,114,115
 1054 631 1054 631 1050 631 c 128,-1,116
 1046 631 1046 631 1044 633 c 0,117,118
 1038 637 1038 637 1032.5 641.5 c 128,-1,119
 1027 646 1027 646 1020 649 c 0,120,121
 1016 651 1016 651 1010.5 650 c 128,-1,122
 1005 649 1005 649 1000 649 c 0,123,124
 991 649 991 649 982.5 654 c 128,-1,125
 974 659 974 659 965 661 c 0,126,127
 955 663 955 663 946.5 658.5 c 128,-1,128
 938 654 938 654 930 650 c 0,129,130
 927 648 927 648 922.5 649 c 128,-1,131
 918 650 918 650 914 646 c 0,132,133
 911 644 911 644 907.5 641.5 c 128,-1,134
 904 639 904 639 900 637 c 0,135,136
 897 636 897 636 891.5 633.5 c 128,-1,137
 886 631 886 631 885 635 c 0,138,139
 883 639 883 639 880 633.5 c 128,-1,140
 877 628 877 628 874 628 c 1,141,142
 875 630 875 630 874 631.5 c 128,-1,143
 873 633 873 633 874 634 c 1,144,145
 870 635 870 635 868.5 634 c 128,-1,146
 867 633 867 633 867 630 c 0,147,148
 867 628 867 628 865 626.5 c 128,-1,149
 863 625 863 625 862 628 c 0,150,151
 861 630 861 630 858 632 c 128,-1,152
 855 634 855 634 855 631 c 256,153,154
 855 628 855 628 854.5 624.5 c 128,-1,155
 854 621 854 621 849 623 c 0,156,157
 846 624 846 624 848 626.5 c 128,-1,158
 850 629 850 629 844 628 c 0,159,160
 841 628 841 628 842.5 624.5 c 128,-1,161
 844 621 844 621 841 620 c 0,162,163
 835 620 835 620 836.5 622 c 128,-1,164
 838 624 838 624 836 625 c 0,165,166
 829 627 829 627 830.5 623 c 128,-1,167
 832 619 832 619 830 618 c 0,168,169
 825 616 825 616 821 620.5 c 128,-1,170
 817 625 817 625 817 616 c 0,171,172
 817 615 817 615 813 614.5 c 128,-1,173
 809 614 809 614 809 616 c 0,174,175
 808 619 808 619 805 619.5 c 128,-1,176
 802 620 802 620 802 618 c 0,177,178
 802 614 802 614 800 613 c 128,-1,179
 798 612 798 612 795 613 c 0,180,181
 791 614 791 614 793 616.5 c 128,-1,182
 795 619 795 619 788 617 c 0,183,184
 785 616 785 616 786.5 614 c 128,-1,185
 788 612 788 612 783 612 c 0,186,187
 779 611 779 611 778.5 613.5 c 128,-1,188
 778 616 778 616 774 615 c 0,189,190
 772 615 772 615 772.5 613 c 128,-1,191
 773 611 773 611 770 610 c 0,192,193
 766 610 766 610 762.5 610 c 128,-1,194
 759 610 759 610 756 609 c 0,195,196
 750 609 750 609 744 608.5 c 128,-1,197
 738 608 738 608 732 608 c 0,198,199
 719 607 719 607 707 607 c 128,-1,200
 695 607 695 607 682 607 c 0,201,202
 657 608 657 608 632 610.5 c 128,-1,203
 607 613 607 613 582 616 c 0,204,205
 524 624 524 624 466.5 611 c 128,-1,206
 409 598 409 598 356 575 c 0,207,208
 324 562 324 562 293 548.5 c 128,-1,209
 262 535 262 535 229 526 c 0,210,211
 218 523 218 523 207 521 c 128,-1,212
 196 519 196 519 185 518 c 0,213,214
 171 517 171 517 162 513 c 128,-1,215
 153 509 153 509 145 497 c 0,216,217
 138 487 138 487 131.5 477 c 128,-1,218
 125 467 125 467 117 459 c 0,219,220
 109 449 109 449 101 439.5 c 128,-1,221
 93 430 93 430 87 419 c 0,222,223
 81 407 81 407 85 397.5 c 128,-1,224
 89 388 89 388 97 378 c 0,225,226
 103 370 103 370 109.5 362.5 c 128,-1,227
 116 355 116 355 121 347 c 0,228,229
 137 320 137 320 153.5 294 c 128,-1,230
 170 268 170 268 186 242 c 0,231,232
 193 232 193 232 202.5 234.5 c 128,-1,233
 212 237 212 237 221 241 c 0,234,235
 232 245 232 245 239.5 257 c 128,-1,236
 247 269 247 269 253 278 c 0,237,238
 263 291 263 291 274.5 304 c 128,-1,239
 286 317 286 317 301 326 c 0,240,241
 312 331 312 331 324 332.5 c 128,-1,242
 336 334 336 334 347 338 c 0,243,244
 354 340 354 340 360.5 341.5 c 128,-1,245
 367 343 367 343 373 346 c 0,246,247
 381 350 381 350 387 356 c 128,-1,248
 393 362 393 362 399 367 c 0,249,250
 406 373 406 373 414 377.5 c 128,-1,251
 422 382 422 382 431 384 c 0,252,253
 437 385 437 385 443.5 387.5 c 128,-1,254
 450 390 450 390 456 390 c 0,255,256
 470 389 470 389 483 387.5 c 128,-1,257
 496 386 496 386 509 382 c 0,258,259
 514 380 514 380 519.5 377.5 c 128,-1,260
 525 375 525 375 530 374 c 0,261,262
 538 373 538 373 543.5 376.5 c 128,-1,263
 549 380 549 380 554 384 c 0,264,265
 566 391 566 391 577 400 c 128,-1,266
 588 409 588 409 601 414 c 0,267,268
 625 423 625 423 655 410.5 c 128,-1,269
 685 398 685 398 697 376 c 0,270,271
 704 364 704 364 710.5 353 c 128,-1,272
 717 342 717 342 725 331 c 0,273,274
 737 314 737 314 745 330 c 128,-1,275
 753 346 753 346 757 354 c 0,276,277
 765 376 765 376 779 394.5 c 128,-1,278
 793 413 793 413 817 420 c 256,279,280
 841 427 841 427 861.5 420 c 128,-1,281
 882 413 882 413 902 401 c 0,282,283
 911 395 911 395 918.5 385 c 128,-1,284
 926 375 926 375 933 366 c 0,285,286
 935 363 935 363 936 365.5 c 128,-1,287
 937 368 937 368 938 361 c 0,288,289
 938 359 938 359 938 356 c 128,-1,290
 938 353 938 353 938 351 c 0,291,292
 938 345 938 345 938 339 c 128,-1,293
 938 333 938 333 936 328 c 0,294,295
 930 316 930 316 923.5 305.5 c 128,-1,296
 917 295 917 295 908 285 c 0,297,298
 903 279 903 279 896.5 272 c 128,-1,299
 890 265 890 265 890 256 c 0,300,301
 891 251 891 251 896.5 249.5 c 128,-1,302
 902 248 902 248 906 248 c 0,303,304
 918 247 918 247 931 245.5 c 128,-1,305
 944 244 944 244 956 246 c 256,306,307
 968 248 968 248 974 252 c 128,-1,308
 980 256 980 256 983 268 c 0,309,310
 989 295 989 295 995.5 322 c 128,-1,311
 1002 349 1002 349 1007 376 c 0,312,313
 1010 389 1010 389 1027.5 388 c 128,-1,314
 1045 387 1045 387 1055 387 c 0,315,316
 1086 387 1086 387 1117 386.5 c 128,-1,317
 1148 386 1148 386 1179 386 c 0,318,319
 1242 386 1242 386 1305 385.5 c 128,-1,320
 1368 385 1368 385 1430 385 c 0,321,322
 1435 385 1435 385 1439 385 c 128,-1,323
 1443 385 1443 385 1447 384 c 0,324,325
 1459 383 1459 383 1469.5 379 c 128,-1,326
 1480 375 1480 375 1488 368 c 0,327,328
 1494 364 1494 364 1499 359 c 128,-1,329
 1504 354 1504 354 1508 348 c 0,330,331
 1509 346 1509 346 1510.5 340.5 c 128,-1,332
 1512 335 1512 335 1513 334 c 0,333,334
 1516 332 1516 332 1524.5 333 c 128,-1,335
 1533 334 1533 334 1536 334 c 0,336,337
 1542 334 1542 334 1548.5 334.5 c 128,-1,338
 1555 335 1555 335 1561 335 c 0,339,340
 1571 335 1571 335 1581 335.5 c 128,-1,341
 1591 336 1591 336 1600 337 c 0,342,343
 1632 339 1632 339 1663.5 342 c 128,-1,344
 1695 345 1695 345 1727 348 c 0,345,346
 1770 352 1770 352 1813 362.5 c 128,-1,347
 1856 373 1856 373 1897 385 c 0,348,349
 1911 390 1911 390 1924.5 394 c 128,-1,350
 1938 398 1938 398 1952 402 c 0,351,352
 1959 404 1959 404 1966.5 406 c 128,-1,353
 1974 408 1974 408 1979 413 c 0,354,355
 2000 435 2000 435 2020.5 456.5 c 128,-1,356
 2041 478 2041 478 2062 499 c 0,357,358
 2079 518 2079 518 2096.5 536 c 128,-1,359
 2114 554 2114 554 2131 572 c 1,360,361
 2076 579 2076 579 2020.5 586 c 128,-1,362
 1965 593 1965 593 1910 600 c 1,363,-1
 1910 600 l 1,364,-1
 1910 600 l 1,0,1
958 263 m 1,365,366
 943 249 943 249 930 265 c 128,-1,367
 917 281 917 281 934 292 c 0,368,369
 941 296 941 296 950 293.5 c 128,-1,370
 959 291 959 291 962 283 c 0,371,372
 965 277 965 277 962.5 272.5 c 128,-1,373
 960 268 960 268 958 263 c 0,374,375
 955 260 955 260 956 261 c 2,376,-1
 958 263 l 1,365,366
EndSplineSet
EndChar

StartChar: seven
Encoding: 55 57351 12
Width: 2253
GlyphClass: 2
Flags: W
LayerCount: 2
Fore
SplineSet
2029 495 m 1,0,1
 2006 498 2006 498 1983 501 c 128,-1,2
 1960 504 1960 504 1938 511 c 0,3,4
 1915 518 1915 518 1891.5 526 c 128,-1,5
 1868 534 1868 534 1846 545 c 1,6,-1
 1846 545 l 1,7,8
 1843 547 1843 547 1840 548.5 c 128,-1,9
 1837 550 1837 550 1834 551 c 0,10,11
 1833 551 1833 551 1832 551.5 c 128,-1,12
 1831 552 1831 552 1830 553 c 0,13,14
 1828 555 1828 555 1825.5 556.5 c 128,-1,15
 1823 558 1823 558 1820 558 c 1,16,17
 1820 558 1820 558 1820 558 c 1,18,-1
 1819 559 l 1,19,20
 1812 560 1812 560 1805 558 c 128,-1,21
 1798 556 1798 556 1791 556 c 0,22,23
 1778 556 1778 556 1765.5 552.5 c 128,-1,24
 1753 549 1753 549 1740 550 c 0,25,26
 1739 550 1739 550 1737.5 550 c 128,-1,27
 1736 550 1736 550 1735 550 c 0,28,29
 1733 553 1733 553 1731 555 c 128,-1,30
 1729 557 1729 557 1725 556 c 0,31,32
 1712 556 1712 556 1699 555.5 c 128,-1,33
 1686 555 1686 555 1673 554 c 1,34,-1
 1674 551 l 1,35,36
 1674 551 1674 551 1674 551 c 1,37,-1
 1673 551 l 2,38,39
 1672 552 1672 552 1670.5 553.5 c 128,-1,40
 1669 555 1669 555 1668 556 c 0,41,42
 1666 555 1666 555 1663 554 c 128,-1,43
 1660 553 1660 553 1657 552 c 2,44,45
 1657 552 1657 552 1656 552 c 256,46,47
 1655 552 1655 552 1654 552 c 0,48,49
 1650 555 1650 555 1644.5 554.5 c 128,-1,50
 1639 554 1639 554 1634 554 c 0,51,52
 1632 554 1632 554 1629.5 554.5 c 128,-1,53
 1627 555 1627 555 1624 555 c 1,54,-1
 1624 555 l 1,55,56
 1623 555 1623 555 1622 555 c 0,57,58
 1618 558 1618 558 1612.5 560 c 128,-1,59
 1607 562 1607 562 1602 563 c 1,60,61
 1603 562 1603 562 1603 559 c 128,-1,62
 1603 556 1603 556 1604 554 c 1,63,-1
 1603 554 l 1,64,-1
 1603 554 l 1,65,66
 1603 552 1603 552 1602.5 551.5 c 128,-1,67
 1602 551 1602 551 1602 550 c 1,68,69
 1599 553 1599 553 1596.5 555.5 c 128,-1,70
 1594 558 1594 558 1591 561 c 1,71,72
 1586 550 1586 550 1574.5 554 c 128,-1,73
 1563 558 1563 558 1556 562 c 0,74,75
 1554 562 1554 562 1551.5 562.5 c 128,-1,76
 1549 563 1549 563 1547 563 c 1,77,78
 1547 561 1547 561 1547.5 559 c 128,-1,79
 1548 557 1548 557 1548 555 c 1,80,81
 1547 555 1547 555 1546 555.5 c 128,-1,82
 1545 556 1545 556 1545 555 c 1,83,84
 1544 555 1544 555 1544 555 c 1,85,-1
 1543 555 l 2,86,87
 1542 556 1542 556 1541.5 557 c 128,-1,88
 1541 558 1541 558 1540 559 c 1,89,90
 1539 558 1539 558 1537 557 c 128,-1,91
 1535 556 1535 556 1533 555 c 0,92,93
 1529 555 1529 555 1525 554.5 c 128,-1,94
 1521 554 1521 554 1517 555 c 0,95,96
 1514 556 1514 556 1511 557.5 c 128,-1,97
 1508 559 1508 559 1505 561 c 0,98,99
 1503 561 1503 561 1499.5 561.5 c 128,-1,100
 1496 562 1496 562 1494 563 c 1,101,102
 1493 560 1493 560 1492.5 556.5 c 128,-1,103
 1492 553 1492 553 1492 550 c 1,104,105
 1492 550 1492 550 1492 550 c 1,106,-1
 1491 550 l 2,107,108
 1490 552 1490 552 1489 554 c 128,-1,109
 1488 556 1488 556 1487 559 c 1,110,111
 1482 554 1482 554 1476 554.5 c 128,-1,112
 1470 555 1470 555 1464 554 c 0,113,114
 1458 557 1458 557 1452 559.5 c 128,-1,115
 1446 562 1446 562 1439 565 c 1,116,117
 1440 563 1440 563 1440 559.5 c 128,-1,118
 1440 556 1440 556 1440 554 c 1,119,120
 1440 554 1440 554 1440 554 c 1,121,-1
 1440 554 l 1,122,123
 1438 554 1438 554 1436 555 c 128,-1,124
 1434 556 1434 556 1433 556 c 0,125,126
 1432 557 1432 557 1431.5 559 c 128,-1,127
 1431 561 1431 561 1430 562 c 0,128,129
 1428 561 1428 561 1426 560 c 128,-1,130
 1424 559 1424 559 1422 558 c 0,131,132
 1421 558 1421 558 1420 558 c 1,133,-1
 1420 557 l 2,134,135
 1417 556 1417 556 1415 555.5 c 128,-1,136
 1413 555 1413 555 1411 554 c 0,137,138
 1402 556 1402 556 1395.5 561 c 128,-1,139
 1389 566 1389 566 1380 567 c 1,140,141
 1381 565 1381 565 1383 561 c 128,-1,142
 1385 557 1385 557 1386 555 c 1,143,144
 1383 556 1383 556 1378 557.5 c 128,-1,145
 1373 559 1373 559 1370 559 c 0,146,147
 1369 559 1369 559 1368.5 558 c 128,-1,148
 1368 557 1368 557 1368 556 c 1,149,150
 1364 556 1364 556 1360 556 c 128,-1,151
 1356 556 1356 556 1353 556 c 0,152,153
 1349 557 1349 557 1346 558 c 128,-1,154
 1343 559 1343 559 1340 561 c 0,155,156
 1338 562 1338 562 1336 562.5 c 128,-1,157
 1334 563 1334 563 1332 563 c 0,158,159
 1330 564 1330 564 1328.5 564 c 128,-1,160
 1327 564 1327 564 1325 564 c 1,161,162
 1325 563 1325 563 1325 562.5 c 128,-1,163
 1325 562 1325 562 1325 561 c 1,164,165
 1325 561 1325 561 1325 561 c 1,166,-1
 1325 560 l 2,167,168
 1323 559 1323 559 1321.5 558.5 c 128,-1,169
 1320 558 1320 558 1319 559 c 0,170,171
 1316 560 1316 560 1314 561.5 c 128,-1,172
 1312 563 1312 563 1310 564 c 1,173,174
 1310 564 1310 564 1310 563 c 0,175,176
 1311 562 1311 562 1311 561 c 256,177,178
 1311 560 1311 560 1310 558.5 c 128,-1,179
 1309 557 1309 557 1308 557 c 0,180,181
 1307 556 1307 556 1305.5 556 c 128,-1,182
 1304 556 1304 556 1303 556 c 0,183,184
 1294 557 1294 557 1284.5 561 c 128,-1,185
 1275 565 1275 565 1266 568 c 1,186,187
 1267 566 1267 566 1269 562 c 128,-1,188
 1271 558 1271 558 1273 556 c 1,189,190
 1272 556 1272 556 1271.5 556 c 128,-1,191
 1271 556 1271 556 1271 555 c 1,192,193
 1268 557 1268 557 1265 557.5 c 128,-1,194
 1262 558 1262 558 1259 558 c 0,195,196
 1255 559 1255 559 1251 559 c 128,-1,197
 1247 559 1247 559 1243 558 c 0,198,199
 1240 558 1240 558 1236.5 558 c 128,-1,200
 1233 558 1233 558 1229 559 c 0,201,202
 1226 562 1226 562 1221.5 564 c 128,-1,203
 1217 566 1217 566 1213 568 c 1,204,205
 1213 566 1213 566 1213.5 563.5 c 128,-1,206
 1214 561 1214 561 1215 559 c 1,207,208
 1207 558 1207 558 1199 556.5 c 128,-1,209
 1191 555 1191 555 1184 551 c 0,210,211
 1177 551 1177 551 1170 551.5 c 128,-1,212
 1163 552 1163 552 1156 551 c 0,213,214
 1155 552 1155 552 1153 552.5 c 128,-1,215
 1151 553 1151 553 1150 554 c 0,216,217
 1146 552 1146 552 1142 552 c 128,-1,218
 1138 552 1138 552 1135 554 c 0,219,220
 1134 553 1134 553 1133 553 c 128,-1,221
 1132 553 1132 553 1131 552 c 2,222,-1
 1128 552 l 2,223,224
 1124 553 1124 553 1122 554 c 256,225,226
 1120 555 1120 555 1119 556 c 128,-1,227
 1118 557 1118 557 1116 558 c 1,228,-1
 1116 557 l 1,229,230
 1114 557 1114 557 1111.5 557.5 c 128,-1,231
 1109 558 1109 558 1107 558 c 0,232,233
 1097 558 1097 558 1087 558 c 128,-1,234
 1077 558 1077 558 1067 558 c 1,235,236
 1071 575 1071 575 1072.5 592.5 c 128,-1,237
 1074 610 1074 610 1074 627 c 1,238,239
 1068 628 1068 628 1062 629 c 128,-1,240
 1056 630 1056 630 1050 631 c 1,241,242
 1044 621 1044 621 1038.5 611.5 c 128,-1,243
 1033 602 1033 602 1026 593 c 0,244,245
 1019 587 1019 587 1012 582.5 c 128,-1,246
 1005 578 1005 578 998 573 c 0,247,248
 998 569 998 569 998.5 565.5 c 128,-1,249
 999 562 999 562 1000 558 c 1,250,251
 995 560 995 560 989.5 562 c 128,-1,252
 984 564 984 564 978 561 c 0,253,254
 960 553 960 553 940 551.5 c 128,-1,255
 920 550 920 550 901 553 c 0,256,257
 879 556 879 556 857 555.5 c 128,-1,258
 835 555 835 555 813 558 c 1,259,260
 796 555 796 555 779.5 557 c 128,-1,261
 763 559 763 559 746 556 c 0,262,263
 688 558 688 558 630 561.5 c 128,-1,264
 572 565 572 565 514 566 c 0,265,266
 480 563 480 563 446 563.5 c 128,-1,267
 412 564 412 564 377 559 c 0,268,269
 357 560 357 560 337 555 c 128,-1,270
 317 550 317 550 297 548 c 0,271,272
 288 548 288 548 278.5 547 c 128,-1,273
 269 546 269 546 260 544 c 0,274,275
 251 541 251 541 244 547 c 128,-1,276
 237 553 237 553 229 551 c 0,277,278
 208 552 208 552 187.5 550.5 c 128,-1,279
 167 549 167 549 147 555 c 1,280,281
 139 553 139 553 129 550 c 128,-1,282
 119 547 119 547 116 537 c 0,283,284
 113 525 113 525 113 513 c 128,-1,285
 113 501 113 501 112 489 c 1,286,287
 107 485 107 485 103 480.5 c 128,-1,288
 99 476 99 476 96 470 c 0,289,290
 93 470 93 470 89.5 470.5 c 128,-1,291
 86 471 86 471 83 471 c 1,292,293
 84 464 84 464 84 457 c 128,-1,294
 84 450 84 450 86 443 c 1,295,296
 92 439 92 439 99.5 436.5 c 128,-1,297
 107 434 107 434 110 426 c 0,298,299
 115 404 115 404 113.5 380.5 c 128,-1,300
 112 357 112 357 125 337 c 0,301,302
 131 330 131 330 139.5 328 c 128,-1,303
 148 326 148 326 156 323 c 0,304,305
 166 319 166 319 175.5 324 c 128,-1,306
 185 329 185 329 194 333 c 1,307,308
 197 343 197 343 199.5 353 c 128,-1,309
 202 363 202 363 207 372 c 1,310,311
 220 382 220 382 235 387.5 c 128,-1,312
 250 393 250 393 261 404 c 1,313,314
 279 406 279 406 297 406.5 c 128,-1,315
 315 407 315 407 333 405 c 0,316,317
 360 401 360 401 387.5 398.5 c 128,-1,318
 415 396 415 396 442 390 c 1,319,320
 470 388 470 388 498 382.5 c 128,-1,321
 526 377 526 377 554 378 c 0,322,323
 598 375 598 375 641.5 373.5 c 128,-1,324
 685 372 685 372 728 375 c 0,325,326
 749 380 749 380 770 388 c 128,-1,327
 791 396 791 396 811 405 c 0,328,329
 823 410 823 410 835.5 413 c 128,-1,330
 848 416 848 416 861 418 c 0,331,332
 876 419 876 419 890 415.5 c 128,-1,333
 904 412 904 412 918 409 c 0,334,335
 927 407 927 407 934 401.5 c 128,-1,336
 941 396 941 396 947 390 c 0,337,338
 960 380 960 380 972 370 c 128,-1,339
 984 360 984 360 995 350 c 1,340,341
 996 343 996 343 993 337 c 128,-1,342
 990 331 990 331 988 325 c 0,343,344
 982 311 982 311 983 295.5 c 128,-1,345
 984 280 984 280 982 265 c 1,346,347
 991 265 991 265 1000 265.5 c 128,-1,348
 1009 266 1009 266 1018 269 c 0,349,350
 1018 272 1018 272 1017.5 276 c 128,-1,351
 1017 280 1017 280 1017 282 c 0,352,353
 1023 294 1023 294 1030.5 305 c 128,-1,354
 1038 316 1038 316 1048 325 c 0,355,356
 1053 331 1053 331 1060 336.5 c 128,-1,357
 1067 342 1067 342 1066 351 c 0,358,359
 1065 365 1065 365 1066 379 c 128,-1,360
 1067 393 1067 393 1070 406 c 1,361,362
 1088 402 1088 402 1104 393.5 c 128,-1,363
 1120 385 1120 385 1137 381 c 0,364,365
 1152 380 1152 380 1166.5 381 c 128,-1,366
 1181 382 1181 382 1195 382 c 0,367,368
 1201 382 1201 382 1203 387.5 c 128,-1,369
 1205 393 1205 393 1206 397 c 0,370,371
 1233 400 1233 400 1260.5 401 c 128,-1,372
 1288 402 1288 402 1316 405 c 0,373,374
 1347 406 1347 406 1378 406.5 c 128,-1,375
 1409 407 1409 407 1441 407 c 0,376,377
 1508 407 1508 407 1575.5 399.5 c 128,-1,378
 1643 392 1643 392 1710 379 c 0,379,380
 1741 374 1741 374 1772.5 373 c 128,-1,381
 1804 372 1804 372 1836 373 c 0,382,383
 1855 372 1855 372 1874 372.5 c 128,-1,384
 1893 373 1893 373 1912 378 c 1,385,386
 1928 377 1928 377 1943.5 382.5 c 128,-1,387
 1959 388 1959 388 1975 391 c 0,388,389
 2009 401 2009 401 2041.5 417 c 128,-1,390
 2074 433 2074 433 2102 456 c 0,391,392
 2109 465 2109 465 2118 472 c 128,-1,393
 2127 479 2127 479 2131 490 c 1,394,395
 2106 490 2106 490 2080 490.5 c 128,-1,396
 2054 491 2054 491 2029 495 c 1,397,-1
 2029 495 l 1,0,1
EndSplineSet
EndChar

StartChar: eight
Encoding: 56 57352 13
Width: 2253
GlyphClass: 2
Flags: W
LayerCount: 2
Fore
SplineSet
2073 533 m 1,0,1
 2021 529 2021 529 1970.5 525.5 c 128,-1,2
 1920 522 1920 522 1869 536 c 0,3,4
 1842 543 1842 543 1816.5 555 c 128,-1,5
 1791 567 1791 567 1767 581 c 0,6,7
 1761 585 1761 585 1755.5 588 c 128,-1,8
 1750 591 1750 591 1745 595 c 0,9,10
 1740 598 1740 598 1737.5 598 c 128,-1,11
 1735 598 1735 598 1728 596 c 0,12,13
 1706 592 1706 592 1683 587.5 c 128,-1,14
 1660 583 1660 583 1637 581 c 0,15,16
 1603 579 1603 579 1569.5 576.5 c 128,-1,17
 1536 574 1536 574 1502 572 c 0,18,19
 1481 571 1481 571 1461 573 c 128,-1,20
 1441 575 1441 575 1421 577 c 0,21,22
 1395 580 1395 580 1369.5 582.5 c 128,-1,23
 1344 585 1344 585 1319 589 c 0,24,25
 1307 592 1307 592 1294 594 c 128,-1,26
 1281 596 1281 596 1269 599 c 0,27,28
 1263 600 1263 600 1257.5 602 c 128,-1,29
 1252 604 1252 604 1247 599 c 0,30,31
 1240 591 1240 591 1232.5 585.5 c 128,-1,32
 1225 580 1225 580 1214 578 c 0,33,34
 1207 576 1207 576 1199 574 c 128,-1,35
 1191 572 1191 572 1183 572 c 0,36,37
 1172 571 1172 571 1168 575.5 c 128,-1,38
 1164 580 1164 580 1159 587 c 0,39,40
 1151 598 1151 598 1136.5 606.5 c 128,-1,41
 1122 615 1122 615 1107 611 c 0,42,43
 1082 603 1082 603 1057.5 594.5 c 128,-1,44
 1033 586 1033 586 1007 588 c 0,45,46
 987 589 987 589 967.5 589.5 c 128,-1,47
 948 590 948 590 929 596 c 0,48,49
 911 601 911 601 895 608.5 c 128,-1,50
 879 616 879 616 860 618 c 0,51,52
 835 620 835 620 811 622.5 c 128,-1,53
 787 625 787 625 762 625 c 0,54,55
 711 625 711 625 659.5 622.5 c 128,-1,56
 608 620 608 620 556.5 614.5 c 128,-1,57
 505 609 505 609 455 599 c 128,-1,58
 405 589 405 589 355 573 c 0,59,60
 318 561 318 561 281 549 c 128,-1,61
 244 537 244 537 209 521 c 0,62,63
 196 515 196 515 183.5 508 c 128,-1,64
 171 501 171 501 158 494 c 0,65,66
 144 485 144 485 128.5 476 c 128,-1,67
 113 467 113 467 102 454 c 0,68,69
 98 449 98 449 94 444 c 128,-1,70
 90 439 90 439 86 434 c 0,71,72
 80 428 80 428 85.5 422 c 128,-1,73
 91 416 91 416 95 411 c 0,74,75
 103 402 103 402 111 393.5 c 128,-1,76
 119 385 119 385 127 377 c 0,77,78
 136 369 136 369 144.5 362.5 c 128,-1,79
 153 356 153 356 164 364 c 256,80,81
 175 372 175 372 185 378.5 c 128,-1,82
 195 385 195 385 206 392 c 0,83,84
 231 406 231 406 256.5 417.5 c 128,-1,85
 282 429 282 429 308 441 c 0,86,87
 342 456 342 456 377.5 469.5 c 128,-1,88
 413 483 413 483 450 491 c 0,89,90
 477 497 477 497 504.5 503.5 c 128,-1,91
 532 510 532 510 559 514 c 0,92,93
 588 518 588 518 616.5 522 c 128,-1,94
 645 526 645 526 673 530 c 0,95,96
 720 536 720 536 767.5 537 c 128,-1,97
 815 538 815 538 862 535 c 0,98,99
 887 534 887 534 912.5 532.5 c 128,-1,100
 938 531 938 531 963 530 c 0,101,102
 974 529 974 529 985 527.5 c 128,-1,103
 996 526 996 526 1006 526 c 0,104,105
 1008 526 1008 526 1009 518 c 128,-1,106
 1010 510 1010 510 1010 508 c 0,107,108
 1013 502 1013 502 1015.5 496.5 c 128,-1,109
 1018 491 1018 491 1022 486 c 1,110,111
 998 488 998 488 977.5 499.5 c 128,-1,112
 957 511 957 511 934 514 c 0,113,114
 906 517 906 517 878 519.5 c 128,-1,115
 850 522 850 522 822 524 c 0,116,117
 774 528 774 528 725.5 526.5 c 128,-1,118
 677 525 677 525 630 519 c 0,119,120
 555 510 555 510 480 494.5 c 128,-1,121
 405 479 405 479 335 449 c 0,122,123
 298 433 298 433 260.5 416.5 c 128,-1,124
 223 400 223 400 190 378 c 0,125,126
 178 370 178 370 166 362.5 c 128,-1,127
 154 355 154 355 145 345 c 0,128,129
 141 340 141 340 156 322.5 c 128,-1,130
 171 305 171 305 175 300 c 0,131,132
 186 288 186 288 197.5 278.5 c 128,-1,133
 209 269 209 269 226 272 c 0,134,135
 229 272 229 272 231 278.5 c 128,-1,136
 233 285 233 285 235 287 c 0,137,138
 240 293 240 293 245.5 296.5 c 128,-1,139
 251 300 251 300 257 305 c 0,140,141
 287 324 287 324 320.5 336.5 c 128,-1,142
 354 349 354 349 386 362 c 0,143,144
 434 381 434 381 484 395 c 128,-1,145
 534 409 534 409 584 422 c 0,146,147
 607 428 607 428 631.5 429 c 128,-1,148
 656 430 656 430 679 432 c 0,149,150
 701 433 701 433 722 435 c 128,-1,151
 743 437 743 437 764 438 c 0,152,153
 797 440 797 440 829 441.5 c 128,-1,154
 861 443 861 443 894 444 c 0,155,156
 917 445 917 445 941.5 441 c 128,-1,157
 966 437 966 437 989 434 c 0,158,159
 1010 431 1010 431 1032 429 c 128,-1,160
 1054 427 1054 427 1076 424 c 0,161,162
 1081 423 1081 423 1086.5 423 c 128,-1,163
 1092 423 1092 423 1097 423 c 256,164,165
 1102 423 1102 423 1108.5 423.5 c 128,-1,166
 1115 424 1115 424 1119 423 c 0,167,168
 1123 421 1123 421 1125.5 415 c 128,-1,169
 1128 409 1128 409 1130 406 c 0,170,171
 1135 397 1135 397 1137.5 388.5 c 128,-1,172
 1140 380 1140 380 1140 371 c 0,173,174
 1138 357 1138 357 1135.5 346.5 c 128,-1,175
 1133 336 1133 336 1128 323 c 0,176,177
 1127 320 1127 320 1123 315.5 c 128,-1,178
 1119 311 1119 311 1123 308 c 0,179,180
 1126 305 1126 305 1134 310.5 c 128,-1,181
 1142 316 1142 316 1144 318 c 0,182,183
 1160 334 1160 334 1165 358 c 128,-1,184
 1170 382 1170 382 1161 403 c 1,185,186
 1175 391 1175 391 1192.5 400 c 128,-1,187
 1210 409 1210 409 1221 417 c 0,188,189
 1224 420 1224 420 1226 423.5 c 128,-1,190
 1228 427 1228 427 1230 430 c 0,191,192
 1231 432 1231 432 1231.5 437 c 128,-1,193
 1232 442 1232 442 1233 443 c 0,194,195
 1238 446 1238 446 1242.5 449.5 c 128,-1,196
 1247 453 1247 453 1253 454 c 0,197,198
 1260 455 1260 455 1264.5 450.5 c 128,-1,199
 1269 446 1269 446 1266 440 c 1,200,201
 1270 444 1270 444 1274.5 446 c 128,-1,202
 1279 448 1279 448 1284 448 c 256,203,204
 1289 448 1289 448 1293 447.5 c 128,-1,205
 1297 447 1297 447 1301 444 c 0,206,207
 1304 443 1304 443 1306.5 439 c 128,-1,208
 1309 435 1309 435 1312 434 c 256,209,210
 1315 433 1315 433 1337.5 435 c 128,-1,211
 1360 437 1360 437 1360 439 c 0,212,213
 1361 442 1361 442 1361.5 445 c 128,-1,214
 1362 448 1362 448 1366 447 c 0,215,216
 1371 447 1371 447 1376.5 446.5 c 128,-1,217
 1382 446 1382 446 1387 445 c 0,218,219
 1404 443 1404 443 1421 441 c 128,-1,220
 1438 439 1438 439 1456 437 c 0,221,222
 1507 431 1507 431 1558.5 424.5 c 128,-1,223
 1610 418 1610 418 1662 412 c 0,224,225
 1685 409 1685 409 1708 405.5 c 128,-1,226
 1731 402 1731 402 1755 400 c 256,227,228
 1779 398 1779 398 1803 394.5 c 128,-1,229
 1827 391 1827 391 1851 392 c 0,230,231
 1877 393 1877 393 1903 394 c 128,-1,232
 1929 395 1929 395 1953 404 c 0,233,234
 1988 417 1988 417 2020 432.5 c 128,-1,235
 2052 448 2052 448 2077 477 c 0,236,237
 2091 494 2091 494 2105 510 c 128,-1,238
 2119 526 2119 526 2132 543 c 1,239,240
 2117 541 2117 541 2102.5 538.5 c 128,-1,241
 2088 536 2088 536 2073 533 c 1,242,-1
 2073 533 l 1,243,-1
 2073 533 l 1,0,1
173 425 m 1,244,245
 159 410 159 410 147 428 c 128,-1,246
 135 446 135 446 154 453 c 0,247,248
 161 457 161 457 169 453 c 128,-1,249
 177 449 177 449 178 441 c 0,250,251
 179 437 179 437 177 433 c 128,-1,252
 175 429 175 429 173 425 c 0,253,254
 171 422 171 422 172 423 c 2,255,-1
 173 425 l 1,244,245
245 450 m 1,256,257
 231 436 231 436 218.5 452 c 128,-1,258
 206 468 206 468 223 479 c 0,259,260
 231 483 231 483 239 479.5 c 128,-1,261
 247 476 247 476 250 468 c 0,262,263
 251 463 251 463 249 458.5 c 128,-1,264
 247 454 247 454 245 450 c 0,265,266
 242 448 242 448 244 449 c 2,267,-1
 245 450 l 1,268,-1
 245 450 l 1,256,257
760 574 m 1,269,270
 746 560 746 560 733 575.5 c 128,-1,271
 720 591 720 591 736 602 c 0,272,273
 744 607 744 607 752.5 604.5 c 128,-1,274
 761 602 761 602 764 594 c 0,275,276
 766 589 766 589 764 584 c 128,-1,277
 762 579 762 579 760 574 c 0,278,279
 757 571 757 571 758 572 c 2,280,-1
 760 574 l 1,281,-1
 760 574 l 1,269,270
831 569 m 1,282,283
 818 556 818 556 805 571 c 128,-1,284
 792 586 792 586 808 597 c 0,285,286
 815 602 815 602 823.5 599.5 c 128,-1,287
 832 597 832 597 835 589 c 0,288,289
 838 584 838 584 835.5 579 c 128,-1,290
 833 574 833 574 831 569 c 0,291,292
 829 567 829 567 830 568 c 2,293,-1
 831 569 l 1,282,283
309 364 m 1,294,295
 296 351 296 351 283 366 c 128,-1,296
 270 381 270 381 286 392 c 0,297,298
 293 396 293 396 300.5 394 c 128,-1,299
 308 392 308 392 312 386 c 256,300,301
 316 380 316 380 314 375 c 128,-1,302
 312 370 312 370 309 364 c 0,303,304
 307 361 307 361 308 362 c 2,305,-1
 309 364 l 1,306,-1
 309 364 l 1,294,295
367 389 m 0,307,308
 355 376 355 376 341 389 c 128,-1,309
 327 402 327 402 341 414 c 0,310,311
 353 426 353 426 367 413.5 c 128,-1,312
 381 401 381 401 367 389 c 0,313,314
 364 386 364 386 367 388.5 c 128,-1,315
 370 391 370 391 367 389 c 0,307,308
895 472 m 0,316,317
 881 458 881 458 868.5 474 c 128,-1,318
 856 490 856 490 873 499 c 0,319,320
 886 505 886 505 896 494 c 128,-1,321
 906 483 906 483 895 472 c 0,322,323
 892 469 892 469 895 471.5 c 128,-1,324
 898 474 898 474 895 472 c 0,316,317
959 465 m 1,325,326
 955 463 955 463 951 461 c 128,-1,327
 947 459 947 459 943 460 c 0,328,329
 935 461 935 461 930.5 468.5 c 128,-1,330
 926 476 926 476 929 484 c 0,331,332
 938 503 938 503 956 490.5 c 128,-1,333
 974 478 974 478 959 465 c 1,334,335
 959 465 959 465 960 466 c 256,336,337
 961 467 961 467 959 465 c 1,338,-1
 959 465 l 1,325,326
1425 528 m 1,339,340
 1422 530 1422 530 1418 532 c 128,-1,341
 1414 534 1414 534 1411 536 c 1,342,343
 1461 534 1461 534 1510.5 533 c 128,-1,344
 1560 532 1560 532 1610 531 c 0,345,346
 1643 530 1643 530 1676 529 c 128,-1,347
 1709 528 1709 528 1741 527 c 0,348,349
 1751 527 1751 527 1760.5 527 c 128,-1,350
 1770 527 1770 527 1780 526 c 0,351,352
 1787 526 1787 526 1790 524.5 c 128,-1,353
 1793 523 1793 523 1799 518 c 1,354,355
 1753 519 1753 519 1706 520.5 c 128,-1,356
 1659 522 1659 522 1612.5 523 c 128,-1,357
 1566 524 1566 524 1519 525.5 c 128,-1,358
 1472 527 1472 527 1425 528 c 1,359,-1
 1425 528 l 1,360,-1
 1425 528 l 1,339,340
EndSplineSet
EndChar

StartChar: nine
Encoding: 57 57353 14
Width: 2253
GlyphClass: 2
Flags: W
LayerCount: 2
Fore
SplineSet
1000 481 m 1,0,1
 964 505 964 505 923.5 521 c 128,-1,2
 883 537 883 537 841 547.5 c 128,-1,3
 799 558 799 558 756 564 c 128,-1,4
 713 570 713 570 670 574 c 0,5,6
 639 578 639 578 608 580.5 c 128,-1,7
 577 583 577 583 545 585 c 0,8,9
 535 586 535 586 524.5 586.5 c 128,-1,10
 514 587 514 587 504 588 c 0,11,12
 501 588 501 588 498 588 c 128,-1,13
 495 588 495 588 492 588 c 0,14,15
 488 589 488 589 487 590.5 c 128,-1,16
 486 592 486 592 482 592 c 0,17,18
 476 594 476 594 469 594 c 128,-1,19
 462 594 462 594 459 599 c 0,20,21
 455 607 455 607 450.5 614.5 c 128,-1,22
 446 622 446 622 441 629 c 256,23,24
 436 636 436 636 432.5 635 c 128,-1,25
 429 634 429 634 427 625 c 0,26,27
 426 616 426 616 424 607 c 128,-1,28
 422 598 422 598 420 589 c 0,29,30
 416 569 416 569 410.5 551 c 128,-1,31
 405 533 405 533 391 518 c 0,32,33
 372 498 372 498 347 487.5 c 128,-1,34
 322 477 322 477 294 485 c 0,35,36
 278 490 278 490 264 501 c 128,-1,37
 250 512 250 512 245 529 c 0,38,39
 242 539 242 539 242 549 c 128,-1,40
 242 559 242 559 242 568 c 0,41,42
 240 590 240 590 250 610.5 c 128,-1,43
 260 631 260 631 269 650 c 0,44,45
 273 659 273 659 273.5 666 c 128,-1,46
 274 673 274 673 269 682 c 0,47,48
 261 697 261 697 250 709.5 c 128,-1,49
 239 722 239 722 226 733 c 0,50,51
 219 738 219 738 205.5 747.5 c 128,-1,52
 192 757 192 757 182 748 c 0,53,54
 174 740 174 740 168 729 c 128,-1,55
 162 718 162 718 156 707 c 0,56,57
 138 676 138 676 121 643 c 128,-1,58
 104 610 104 610 95 575 c 0,59,60
 84 531 84 531 84 485.5 c 128,-1,61
 84 440 84 440 86 396 c 0,62,63
 87 371 87 371 89.5 344 c 128,-1,64
 92 317 92 317 103 295 c 0,65,66
 110 278 110 278 118.5 262.5 c 128,-1,67
 127 247 127 247 135 231 c 0,68,69
 145 211 145 211 156.5 188.5 c 128,-1,70
 168 166 168 166 185 150 c 0,71,72
 203 134 203 134 223.5 155 c 128,-1,73
 244 176 244 176 255 189 c 0,74,75
 262 197 262 197 267.5 206 c 128,-1,76
 273 215 273 215 274 226 c 0,77,78
 275 235 275 235 270.5 242 c 128,-1,79
 266 249 266 249 263 256 c 0,80,81
 259 266 259 266 255 276.5 c 128,-1,82
 251 287 251 287 249 298 c 0,83,84
 246 313 246 313 246.5 331 c 128,-1,85
 247 349 247 349 254 363 c 0,86,87
 261 380 261 380 279.5 389 c 128,-1,88
 298 398 298 398 315 399 c 0,89,90
 334 400 334 400 349 393.5 c 128,-1,91
 364 387 364 387 378 375 c 0,92,93
 387 366 387 366 401 351.5 c 128,-1,94
 415 337 415 337 416 323 c 0,95,96
 418 310 418 310 418.5 291 c 128,-1,97
 419 272 419 272 426 261 c 0,98,99
 436 243 436 243 444 267 c 128,-1,100
 452 291 452 291 456 294 c 0,101,102
 468 302 468 302 486 303 c 128,-1,103
 504 304 504 304 518 306 c 0,104,105
 549 308 549 308 579.5 311.5 c 128,-1,106
 610 315 610 315 641 319 c 0,107,108
 680 324 680 324 719.5 328 c 128,-1,109
 759 332 759 332 798 341 c 0,110,111
 866 356 866 356 930 383 c 128,-1,112
 994 410 994 410 1054 444 c 1,113,114
 1041 455 1041 455 1028 463.5 c 128,-1,115
 1015 472 1015 472 1000 481 c 0,116,117
 971 501 971 501 986 491 c 2,118,-1
 1000 481 l 1,119,-1
 1000 481 l 1,0,1
162 668 m 1,120,121
 165 676 165 676 173 691 c 128,-1,122
 181 706 181 706 192 704 c 256,123,124
 203 702 203 702 211 695.5 c 128,-1,125
 219 689 219 689 227 682 c 0,126,127
 237 674 237 674 229.5 644.5 c 128,-1,128
 222 615 222 615 220 604 c 0,129,130
 218 594 218 594 214 590.5 c 128,-1,131
 210 587 210 587 200 591 c 0,132,133
 192 595 192 595 185 599 c 128,-1,134
 178 603 178 603 171 606 c 0,135,136
 164 610 164 610 156.5 613.5 c 128,-1,137
 149 617 149 617 145 624 c 0,138,139
 140 632 140 632 149 646.5 c 128,-1,140
 158 661 158 661 162 668 c 0,141,142
 171 687 171 687 161.5 668.5 c 128,-1,143
 152 650 152 650 162 668 c 1,144,-1
 162 668 l 1,120,121
219 203 m 1,145,146
 208 193 208 193 200.5 192 c 128,-1,147
 193 191 193 191 183 203 c 0,148,149
 176 212 176 212 170.5 221.5 c 128,-1,150
 165 231 165 231 159 241 c 0,151,152
 157 245 157 245 153 253 c 128,-1,153
 149 261 149 261 155 266 c 0,154,155
 163 271 163 271 171 276.5 c 128,-1,156
 179 282 179 282 187 287 c 0,157,158
 196 293 196 293 207 296 c 128,-1,159
 218 299 218 299 223 287 c 0,160,161
 226 279 226 279 227.5 270 c 128,-1,162
 229 261 229 261 231 253 c 0,163,164
 233 246 233 246 234 238.5 c 128,-1,165
 235 231 235 231 236 224 c 256,166,167
 237 217 237 217 230.5 212 c 128,-1,168
 224 207 224 207 219 203 c 0,169,170
 211 196 211 196 215 200 c 2,171,-1
 219 203 l 1,172,-1
 219 203 l 1,145,146
221 387 m 1,173,174
 209 376 209 376 197 365.5 c 128,-1,175
 185 355 185 355 172 344 c 0,176,177
 160 333 160 333 144.5 333 c 128,-1,178
 129 333 129 333 121 353 c 256,179,180
 113 373 113 373 111.5 396 c 128,-1,181
 110 419 110 419 109 441 c 0,182,183
 108 456 108 456 108.5 472 c 128,-1,184
 109 488 109 488 111 503 c 0,185,186
 112 514 112 514 113.5 527 c 128,-1,187
 115 540 115 540 122 548 c 0,188,189
 128 555 128 555 138 557 c 128,-1,190
 148 559 148 559 155 553 c 0,191,192
 168 542 168 542 181 530.5 c 128,-1,193
 194 519 194 519 207 508 c 0,194,195
 223 495 223 495 239 480.5 c 128,-1,196
 255 466 255 466 268 450 c 0,197,198
 272 444 272 444 270.5 440.5 c 128,-1,199
 269 437 269 437 265 433 c 0,200,201
 255 420 255 420 243.5 409 c 128,-1,202
 232 398 232 398 221 387 c 1,203,204
 221 387 221 387 234 400 c 0,205,206
 247 412 247 412 221 387 c 1,207,-1
 221 387 l 1,173,174
2111 461 m 1,208,209
 2064 489 2064 489 2016.5 512.5 c 128,-1,210
 1969 536 1969 536 1914 548 c 0,211,212
 1886 554 1886 554 1858.5 560 c 128,-1,213
 1831 566 1831 566 1803 569 c 0,214,215
 1770 572 1770 572 1737 576 c 128,-1,216
 1704 580 1704 580 1671 582 c 256,217,218
 1638 584 1638 584 1603 584.5 c 128,-1,219
 1568 585 1568 585 1539 597 c 0,220,221
 1531 600 1531 600 1522.5 623.5 c 128,-1,222
 1514 647 1514 647 1506 628 c 0,223,224
 1500 616 1500 616 1498 600 c 128,-1,225
 1496 584 1496 584 1493 571 c 0,226,227
 1485 541 1485 541 1468.5 520 c 128,-1,228
 1452 499 1452 499 1423 487 c 0,229,230
 1400 477 1400 477 1371.5 484.5 c 128,-1,231
 1343 492 1343 492 1329 514 c 0,232,233
 1318 532 1318 532 1318 558 c 128,-1,234
 1318 584 1318 584 1325 603 c 0,235,236
 1328 612 1328 612 1332.5 621 c 128,-1,237
 1337 630 1337 630 1341 639 c 0,238,239
 1344 646 1344 646 1349.5 656.5 c 128,-1,240
 1355 667 1355 667 1351 674 c 0,241,242
 1345 685 1345 685 1338 696 c 128,-1,243
 1331 707 1331 707 1321 716 c 0,244,245
 1313 725 1313 725 1296.5 739.5 c 128,-1,246
 1280 754 1280 754 1265 751 c 0,247,248
 1258 750 1258 750 1252.5 740 c 128,-1,249
 1247 730 1247 730 1243 725 c 0,250,251
 1233 708 1233 708 1223.5 690 c 128,-1,252
 1214 672 1214 672 1205 654 c 0,253,254
 1190 624 1190 624 1179 594 c 128,-1,255
 1168 564 1168 564 1164 531 c 0,256,257
 1162 508 1162 508 1161 485.5 c 128,-1,258
 1160 463 1160 463 1161 440 c 0,259,260
 1162 400 1162 400 1165.5 358.5 c 128,-1,261
 1169 317 1169 317 1187 281 c 0,262,263
 1195 264 1195 264 1203.5 247.5 c 128,-1,264
 1212 231 1212 231 1221 214 c 0,265,266
 1230 198 1230 198 1247 167 c 128,-1,267
 1264 136 1264 136 1289 148 c 0,268,269
 1306 157 1306 157 1323 175.5 c 128,-1,270
 1340 194 1340 194 1347 212 c 0,271,272
 1355 230 1355 230 1347 244 c 128,-1,273
 1339 258 1339 258 1333 275 c 0,274,275
 1326 293 1326 293 1324.5 310.5 c 128,-1,276
 1323 328 1323 328 1327 347 c 0,277,278
 1334 385 1334 385 1372.5 395.5 c 128,-1,279
 1411 406 1411 406 1440 386 c 0,280,281
 1454 377 1454 377 1467 363 c 128,-1,282
 1480 349 1480 349 1489 334 c 0,283,284
 1494 325 1494 325 1494.5 315 c 128,-1,285
 1495 305 1495 305 1497 296 c 0,286,287
 1497 290 1497 290 1502.5 267 c 128,-1,288
 1508 244 1508 244 1517 260 c 0,289,290
 1521 267 1521 267 1524.5 273 c 128,-1,291
 1528 279 1528 279 1530 287 c 0,292,293
 1533 296 1533 296 1542.5 298 c 128,-1,294
 1552 300 1552 300 1561 301 c 0,295,296
 1589 305 1589 305 1617 307 c 128,-1,297
 1645 309 1645 309 1673 313 c 0,298,299
 1712 318 1712 318 1751.5 323 c 128,-1,300
 1791 328 1791 328 1830 333 c 0,301,302
 1870 338 1870 338 1909 348.5 c 128,-1,303
 1948 359 1948 359 1986 374 c 128,-1,304
 2024 389 2024 389 2060.5 407 c 128,-1,305
 2097 425 2097 425 2132 444 c 1,306,307
 2126 448 2126 448 2121 452.5 c 128,-1,308
 2116 457 2116 457 2111 461 c 1,309,-1
 2111 461 l 1,310,-1
 2111 461 l 1,208,209
1239 668 m 1,311,312
 1243 676 1243 676 1250.5 691 c 128,-1,313
 1258 706 1258 706 1269 704 c 256,314,315
 1280 702 1280 702 1288 695.5 c 128,-1,316
 1296 689 1296 689 1305 682 c 0,317,318
 1314 674 1314 674 1307 644.5 c 128,-1,319
 1300 615 1300 615 1297 604 c 0,320,321
 1295 594 1295 594 1291.5 590.5 c 128,-1,322
 1288 587 1288 587 1277 591 c 0,323,324
 1270 595 1270 595 1262.5 599 c 128,-1,325
 1255 603 1255 603 1248 606 c 0,326,327
 1241 610 1241 610 1233.5 613.5 c 128,-1,328
 1226 617 1226 617 1222 624 c 0,329,330
 1218 632 1218 632 1226.5 646.5 c 128,-1,331
 1235 661 1235 661 1239 668 c 0,332,333
 1248 687 1248 687 1238.5 668.5 c 128,-1,334
 1229 650 1229 650 1239 668 c 1,335,-1
 1239 668 l 1,311,312
1296 203 m 1,336,337
 1285 193 1285 193 1277.5 192 c 128,-1,338
 1270 191 1270 191 1261 203 c 0,339,340
 1254 212 1254 212 1248 221.5 c 128,-1,341
 1242 231 1242 231 1237 241 c 0,342,343
 1234 245 1234 245 1230 253 c 128,-1,344
 1226 261 1226 261 1233 266 c 256,345,346
 1240 271 1240 271 1248 276.5 c 128,-1,347
 1256 282 1256 282 1264 287 c 0,348,349
 1274 293 1274 293 1284.5 296 c 128,-1,350
 1295 299 1295 299 1300 287 c 0,351,352
 1303 279 1303 279 1305 270 c 128,-1,353
 1307 261 1307 261 1308 253 c 0,354,355
 1310 246 1310 246 1311 238.5 c 128,-1,356
 1312 231 1312 231 1313 224 c 256,357,358
 1314 217 1314 217 1307.5 212 c 128,-1,359
 1301 207 1301 207 1296 203 c 0,360,361
 1288 196 1288 196 1292 200 c 2,362,-1
 1296 203 l 1,363,-1
 1296 203 l 1,336,337
1298 387 m 1,364,365
 1286 376 1286 376 1274 365.5 c 128,-1,366
 1262 355 1262 355 1249 344 c 0,367,368
 1237 333 1237 333 1221.5 333 c 128,-1,369
 1206 333 1206 333 1198 353 c 256,370,371
 1190 373 1190 373 1189 396 c 128,-1,372
 1188 419 1188 419 1186 441 c 0,373,374
 1185 456 1185 456 1185.5 472 c 128,-1,375
 1186 488 1186 488 1188 503 c 0,376,377
 1189 514 1189 514 1191 527 c 128,-1,378
 1193 540 1193 540 1200 548 c 0,379,380
 1205 555 1205 555 1215 557 c 128,-1,381
 1225 559 1225 559 1232 553 c 0,382,383
 1245 542 1245 542 1258 530.5 c 128,-1,384
 1271 519 1271 519 1284 508 c 0,385,386
 1300 495 1300 495 1316 480.5 c 128,-1,387
 1332 466 1332 466 1345 450 c 0,388,389
 1349 444 1349 444 1347.5 440.5 c 128,-1,390
 1346 437 1346 437 1342 433 c 0,391,392
 1332 420 1332 420 1321 409 c 128,-1,393
 1310 398 1310 398 1298 387 c 1,394,-1
 1311 400 l 2,395,396
 1324 412 1324 412 1298 387 c 1,397,-1
 1298 387 l 1,364,365
EndSplineSet
EndChar

StartChar: knife.skeleton
Encoding: 65 57361 15
Width: 2004
GlyphClass: 2
Flags: W
LayerCount: 2
Fore
SplineSet
79.298828125 523.75390625 m 128,-1,1
 88.8427734375 533.23046875 88.8427734375 533.23046875 102.279296875 533.23046875 c 128,-1,2
 115.684570312 533.23046875 115.684570312 533.23046875 125.193359375 523.75390625 c 128,-1,3
 134.759765625 514.155273438 134.759765625 514.155273438 134.759765625 500.751953125 c 128,-1,4
 134.759765625 487.390625 134.759765625 487.390625 125.193359375 477.859375 c 128,-1,5
 115.694335938 468.29296875 115.694335938 468.29296875 102.279296875 468.29296875 c 128,-1,6
 88.8330078125 468.29296875 88.8330078125 468.29296875 79.298828125 477.859375 c 128,-1,7
 69.798828125 487.391601562 69.798828125 487.391601562 69.798828125 500.751953125 c 128,-1,0
 69.798828125 514.186523438 69.798828125 514.186523438 79.298828125 523.75390625 c 128,-1,1
1060.1953125 520.68359375 m 128,-1,9
 1068.15039062 512.728515625 1068.15039062 512.728515625 1068.11523438 501.529296875 c 128,-1,10
 1068.11523438 490.294921875 1068.11523438 490.294921875 1060.1953125 482.375 c 128,-1,11
 1052.22070312 474.432617188 1052.22070312 474.432617188 1041.04101562 474.43359375 c 128,-1,12
 1029.83886719 474.43359375 1029.83886719 474.43359375 1021.86523438 482.375 c 128,-1,13
 1013.92382812 490.384765625 1013.92382812 490.384765625 1013.92382812 501.529296875 c 128,-1,14
 1013.92382812 512.673828125 1013.92382812 512.673828125 1021.86523438 520.68359375 c 128,-1,15
 1029.82714844 528.6484375 1029.82714844 528.6484375 1041.04101562 528.6484375 c 128,-1,8
 1052.23339844 528.6484375 1052.23339844 528.6484375 1060.1953125 520.68359375 c 128,-1,9
1139.21484375 502.9765625 m 128,-1,17
 1139.21484375 494.609375 1139.21484375 494.609375 1133.27539062 488.8046875 c 0,18,19
 1127.37304688 482.798828125 1127.37304688 482.798828125 1119.08203125 482.798828125 c 128,-1,20
 1110.77148438 482.798828125 1110.77148438 482.798828125 1104.80078125 488.8046875 c 0,21,22
 1098.94921875 494.588867188 1098.94921875 494.588867188 1098.94921875 502.9765625 c 128,-1,23
 1098.94921875 511.317382812 1098.94921875 511.317382812 1104.80078125 517.236328125 c 128,-1,24
 1110.75 523.0859375 1110.75 523.0859375 1119.08203125 523.0859375 c 128,-1,25
 1127.39355469 523.0859375 1127.39355469 523.0859375 1133.27539062 517.236328125 c 128,-1,16
 1139.21484375 511.296875 1139.21484375 511.296875 1139.21484375 502.9765625 c 128,-1,17
1208.64648438 500.171875 m 128,-1,27
 1208.64648438 493.485351562 1208.64648438 493.485351562 1203.86523438 488.671875 c 128,-1,28
 1199.046875 483.888671875 1199.046875 483.888671875 1192.36328125 483.888671875 c 128,-1,29
 1185.67675781 483.888671875 1185.67675781 483.888671875 1180.86132812 488.671875 c 128,-1,30
 1176.078125 493.487304688 1176.078125 493.487304688 1176.078125 500.171875 c 128,-1,31
 1176.078125 506.911132812 1176.078125 506.911132812 1180.86132812 511.697265625 c 128,-1,32
 1185.64453125 516.48046875 1185.64453125 516.48046875 1192.36328125 516.48046875 c 128,-1,33
 1199.07910156 516.48046875 1199.07910156 516.48046875 1203.86523438 511.697265625 c 128,-1,26
 1208.64648438 506.913085938 1208.64648438 506.913085938 1208.64648438 500.171875 c 128,-1,27
1269.46875 500.462890625 m 128,-1,35
 1269.46875 495.268554688 1269.46875 495.268554688 1265.73242188 491.630859375 c 128,-1,36
 1262.07128906 487.9375 1262.07128906 487.9375 1256.921875 487.9375 c 128,-1,37
 1251.79589844 487.9375 1251.79589844 487.9375 1248.00195312 491.630859375 c 128,-1,38
 1244.3984375 495.301757812 1244.3984375 495.301757812 1244.3984375 500.462890625 c 128,-1,39
 1244.3984375 505.64453125 1244.3984375 505.64453125 1248.00195312 509.3828125 c 128,-1,40
 1251.78222656 513.03125 1251.78222656 513.03125 1256.921875 513.03125 c 128,-1,41
 1262.11914062 513.03125 1262.11914062 513.03125 1265.73242188 509.3828125 c 128,-1,34
 1269.46875 505.646484375 1269.46875 505.646484375 1269.46875 500.462890625 c 128,-1,35
719.556640625 595.7890625 m 0,42,43
 688.419921875 591.975585938 688.419921875 591.975585938 640.9140625 594.1875 c 0,44,45
 605.911132812 596.043945312 605.911132812 596.043945312 547.234375 602.240234375 c 0,46,47
 453.3125 612.161132812 453.3125 612.161132812 445.5 612.875 c 0,48,49
 386.178710938 618.530273438 386.178710938 618.530273438 342.609375 619.50390625 c 0,50,51
 291.526367188 620.708007812 291.526367188 620.708007812 235.892578125 611.716796875 c 0,52,53
 181.307617188 602.791992188 181.307617188 602.791992188 135.02734375 586.244140625 c 0,54,55
 87.17578125 569.03515625 87.17578125 569.03515625 59.455078125 547.736328125 c 0,56,57
 32.228515625 526.721679688 32.228515625 526.721679688 29 505 c 0,58,59
 28.69921875 503.00390625 28.69921875 503.00390625 29 500.70703125 c 0,60,61
 32.240234375 479.044921875 32.240234375 479.044921875 59.455078125 458.08203125 c 0,62,63
 87.3974609375 436.680664062 87.3974609375 436.680664062 135.02734375 419.595703125 c 0,64,65
 181.02734375 403.104492188 181.02734375 403.104492188 235.892578125 394.1015625 c 0,66,67
 291.474609375 385.119140625 291.474609375 385.119140625 342.609375 386.359375 c 0,68,69
 385.549804688 387.249023438 385.549804688 387.249023438 445.5 392.966796875 c 0,70,71
 456.362304688 393.959960938 456.362304688 393.959960938 547.234375 403.623046875 c 0,72,73
 607.145507812 409.880859375 607.145507812 409.880859375 640.9140625 411.609375 c 0,74,75
 687.84765625 413.959960938 687.84765625 413.959960938 719.556640625 410.140625 c 0,76,77
 776.999023438 403.0234375 776.999023438 403.0234375 834.416015625 364.9140625 c 0,78,79
 863.03125 346.01171875 863.03125 346.01171875 880.48828125 328.251953125 c 1,80,81
 923.534179688 374.137695312 923.534179688 374.137695312 971.943359375 365.669921875 c 1,82,83
 982.680664062 378.83984375 982.680664062 378.83984375 1016.10351562 378.83984375 c 0,84,85
 1635.68261719 362.22265625 1635.68261719 362.22265625 1953.5078125 502.9765625 c 1,86,87
 1635.66015625 643.663085938 1635.66015625 643.663085938 1016.10351562 627.111328125 c 0,88,89
 982.65234375 627.111328125 982.65234375 627.111328125 971.943359375 640.21484375 c 1,90,91
 923.51953125 631.776367188 923.51953125 631.776367188 880.48828125 677.677734375 c 1,92,93
 863.186523438 660.008789062 863.186523438 660.008789062 834.416015625 640.994140625 c 0,94,95
 776.919921875 602.864257812 776.919921875 602.864257812 719.556640625 595.7890625 c 0,42,43
857.306640625 602.484375 m 128,-1,97
 900.408203125 602.484375 900.408203125 602.484375 930.8984375 572.029296875 c 128,-1,98
 961.353515625 541.541992188 961.353515625 541.541992188 961.353515625 498.458984375 c 128,-1,99
 961.353515625 455.345703125 961.353515625 455.345703125 930.8984375 424.890625 c 0,100,101
 915.829101562 409.852539062 915.829101562 409.852539062 897.640625 402.17578125 c 0,102,103
 888.830078125 398.514648438 888.830078125 398.514648438 879.15234375 396.525390625 c 0,104,105
 868.504882812 394.390625 868.504882812 394.390625 857.306640625 394.390625 c 0,106,107
 814.282226562 394.390625 814.282226562 394.390625 783.71484375 424.890625 c 128,-1,108
 753.236328125 455.369140625 753.236328125 455.369140625 753.236328125 498.458984375 c 128,-1,109
 753.236328125 541.483398438 753.236328125 541.483398438 783.71484375 572.029296875 c 128,-1,96
 814.205078125 602.484375 814.205078125 602.484375 857.306640625 602.484375 c 128,-1,97
EndSplineSet
EndChar

StartChar: knife.kukri
Encoding: 66 57362 16
Width: 2080
GlyphClass: 2
Flags: W
LayerCount: 2
Fore
SplineSet
821.453125 673.935546875 m 0,0,1
 803.307617188 670.557617188 803.307617188 670.557617188 769.1953125 667.794921875 c 0,2,3
 741.76171875 665.5 741.76171875 665.5 726.39453125 668.083984375 c 0,4,5
 716.329101562 669.700195312 716.329101562 669.700195312 706.8828125 674.935546875 c 0,6,7
 700.56640625 678.362304688 700.56640625 678.362304688 690.04296875 678.896484375 c 0,8,9
 675.944335938 678.78515625 675.944335938 678.78515625 670.822265625 678.78515625 c 0,10,11
 663.080078125 678.78515625 663.080078125 678.78515625 659.80859375 676.515625 c 0,12,13
 652.759765625 671.782226562 652.759765625 671.782226562 649.998046875 670.552734375 c 0,14,15
 646.704101562 669.103515625 646.704101562 669.103515625 577.67578125 660.052734375 c 0,16,17
 492.8125 649.047851562 492.8125 649.047851562 422.572265625 634.513671875 c 0,18,19
 349.44140625 619.427734375 349.44140625 619.427734375 283.642578125 597.33984375 c 0,20,21
 274.833984375 594.470703125 274.833984375 594.470703125 244.3984375 583.658203125 c 0,22,23
 228.08984375 577.889648438 228.08984375 577.889648438 223.01953125 577.185546875 c 0,24,25
 214.689453125 575.8828125 214.689453125 575.8828125 203.287109375 576.78515625 c 0,26,27
 194.12890625 577.453125 194.12890625 577.453125 188.515625 575.494140625 c 0,28,29
 175.53515625 570.8203125 175.53515625 570.8203125 117.08203125 534.048828125 c 0,30,31
 53.14453125 493.736328125 53.14453125 493.736328125 48.49609375 481.923828125 c 128,-1,32
 43.8466796875 470.022460938 43.8466796875 470.022460938 83 429 c 0,33,34
 112.677734375 397.950195312 112.677734375 397.950195312 142.5546875 373.740234375 c 0,35,36
 161.407226562 358.411132812 161.407226562 358.411132812 204.689453125 336.654296875 c 0,37,38
 246.709960938 315.627929688 246.709960938 315.627929688 257.412109375 315.1640625 c 0,39,40
 266.19921875 314.731445312 266.19921875 314.731445312 276.033203125 319.212890625 c 0,41,42
 277.6640625 319.981445312 277.6640625 319.981445312 291.783203125 327.734375 c 0,43,44
 298.565429688 331.559570312 298.565429688 331.559570312 300.705078125 335.875 c 0,45,46
 301.979492188 338.389648438 301.979492188 338.389648438 303.88671875 348.556640625 c 0,47,48
 305.041015625 359.602539062 305.041015625 359.602539062 305.77734375 364.796875 c 0,49,50
 307.046875 374.774414062 307.046875 374.774414062 312.1171875 385.21875 c 0,51,52
 317.857421875 397.197265625 317.857421875 397.197265625 351.650390625 415.919921875 c 0,53,54
 381.072265625 432.233398438 381.072265625 432.233398438 428.06640625 451.892578125 c 0,55,56
 466.331054688 467.907226562 466.331054688 467.907226562 532.224609375 477.96484375 c 0,57,58
 586.41015625 486.28125 586.41015625 486.28125 612.869140625 485.171875 c 0,59,60
 628.854492188 484.504882812 628.854492188 484.504882812 639.431640625 474.560546875 c 0,61,62
 641.16015625 472.977539062 641.16015625 472.977539062 647.26171875 466.3515625 c 0,63,64
 651.611328125 461.602539062 651.611328125 461.602539062 654.982421875 459.5 c 0,65,66
 663.715820312 454.07421875 663.715820312 454.07421875 675.494140625 451.69140625 c 128,-1,67
 687.440429688 449.301757812 687.440429688 449.301757812 697.607421875 451.24609375 c 0,68,69
 701.317382812 451.99609375 701.317382812 451.99609375 709.685546875 462.458984375 c 0,70,71
 721.388671875 477.169921875 721.388671875 477.169921875 728.12890625 483.28125 c 0,72,73
 757.735351562 511.01953125 757.735351562 511.01953125 798.783203125 501.03515625 c 0,74,75
 840.798828125 490.72265625 840.798828125 490.72265625 854.66796875 457.7421875 c 0,76,77
 861.49609375 441.15625 861.49609375 441.15625 860.029296875 426.685546875 c 1,78,-1
 868.259765625 419.056640625 l 1,79,-1
 908.681640625 419.056640625 l 1,80,-1
 920.138671875 481.390625 l 2,81,82
 920.62890625 484.459960938 920.62890625 484.459960938 922.119140625 489.51171875 c 0,83,84
 925.139648438 499.275390625 925.139648438 499.275390625 930.349609375 507.642578125 c 0,85,86
 947.197265625 534.4921875 947.197265625 534.4921875 980.294921875 537.36328125 c 0,87,88
 1019.625 540.630859375 1019.625 540.630859375 1041.13867188 511.580078125 c 0,89,90
 1051.90429688 496.877929688 1051.90429688 496.877929688 1054.70898438 481.857421875 c 1,91,-1
 1099.51367188 455.140625 l 1,92,-1
 1099.51367188 519.6328125 l 1,93,94
 1309.87695312 528.2421875 1309.87695312 528.2421875 1450.63085938 389.490234375 c 1,95,96
 1746.87695312 312.8671875 1746.87695312 312.8671875 2055.42773438 404.7734375 c 1,97,98
 1750.39453125 648.0078125 1750.39453125 648.0078125 1197.93164062 695.736328125 c 0,99,100
 1196.9453125 690.165039062 1196.9453125 690.165039062 1194.15039062 684.546875 c 0,101,102
 1188.50585938 673.456054688 1188.50585938 673.456054688 1179.37890625 674.158203125 c 128,-1,103
 1170.31933594 674.82421875 1170.31933594 674.82421875 1165.91992188 687.328125 c 2,104,-1
 1163.45117188 699.697265625 l 1,105,-1
 1147.61132812 699.318359375 l 2,106,107
 1146.38574219 693.765625 1146.38574219 693.765625 1143.42773438 688.505859375 c 0,108,109
 1137.50683594 677.802734375 1137.50683594 677.802734375 1128.27929688 678.607421875 c 128,-1,110
 1119.13964844 679.27734375 1119.13964844 679.27734375 1115.59765625 690.3984375 c 2,111,-1
 1113.81835938 701.38671875 l 1,112,-1
 1097.26757812 702.076171875 l 2,113,114
 1096.12402344 696.267578125 1096.12402344 696.267578125 1093.1953125 690.775390625 c 0,115,116
 1087.36328125 679.608398438 1087.36328125 679.608398438 1078.33398438 680.275390625 c 128,-1,117
 1069.31835938 680.975585938 1069.31835938 680.975585938 1065.65429688 692.466796875 c 2,118,-1
 1063.8515625 703.857421875 l 1,119,-1
 1047.8125 703.45703125 l 2,120,121
 1047.20898438 698.655273438 1047.20898438 698.655273438 1044.63085938 693.935546875 c 0,122,123
 1039.57226562 684.345703125 1039.57226562 684.345703125 1030.25976562 684.146484375 c 128,-1,124
 1020.97265625 683.912109375 1020.97265625 683.912109375 1016.2890625 693.646484375 c 2,125,-1
 1013.61914062 703.3671875 l 1,126,-1
 946.412109375 701.787109375 l 1,127,-1
 931.640625 691.888671875 l 1,128,129
 932.322265625 692.860351562 932.322265625 692.860351562 930.4609375 694.158203125 c 0,130,131
 926.791015625 696.759765625 926.791015625 696.759765625 914.111328125 698.427734375 c 0,132,133
 899.630859375 700.331054688 899.630859375 700.331054688 885.279296875 696.759765625 c 0,134,135
 872.338867188 693.55078125 872.338867188 693.55078125 857.2265625 685.34765625 c 0,136,137
 843.9375 678.056640625 843.9375 678.056640625 821.453125 673.935546875 c 0,0,1
152.1640625 470.177734375 m 128,-1,139
 152.1640625 460.612304688 152.1640625 460.612304688 145.423828125 453.8046875 c 128,-1,140
 138.637695312 447.0859375 138.637695312 447.0859375 129.072265625 447.0859375 c 128,-1,141
 119.5078125 447.0859375 119.5078125 447.0859375 112.720703125 453.8046875 c 128,-1,142
 105.98046875 460.612304688 105.98046875 460.612304688 105.98046875 470.177734375 c 128,-1,143
 105.98046875 479.798828125 105.98046875 479.798828125 112.720703125 486.5078125 c 128,-1,144
 119.4296875 493.248046875 119.4296875 493.248046875 129.072265625 493.248046875 c 128,-1,145
 138.715820312 493.248046875 138.715820312 493.248046875 145.423828125 486.5078125 c 128,-1,138
 152.1640625 479.798828125 152.1640625 479.798828125 152.1640625 470.177734375 c 128,-1,139
999.44921875 659.853515625 m 128,-1,147
 999.44921875 649.911132812 999.44921875 649.911132812 992.41796875 642.8125 c 128,-1,148
 985.391601562 635.783203125 985.391601562 635.783203125 975.376953125 635.783203125 c 128,-1,149
 965.365234375 635.783203125 965.365234375 635.783203125 958.3359375 642.8125 c 128,-1,150
 951.306640625 649.841796875 951.306640625 649.841796875 951.306640625 659.853515625 c 128,-1,151
 951.306640625 669.862304688 951.306640625 669.862304688 958.3359375 676.89453125 c 128,-1,152
 965.368164062 683.923828125 965.368164062 683.923828125 975.376953125 683.923828125 c 128,-1,153
 985.388671875 683.923828125 985.388671875 683.923828125 992.41796875 676.89453125 c 128,-1,146
 999.44921875 669.86328125 999.44921875 669.86328125 999.44921875 659.853515625 c 128,-1,147
EndSplineSet
EndChar

StartChar: knife_outdoor
Encoding: 67 57363 17
Width: 2005
GlyphClass: 2
Flags: W
LayerCount: 2
Fore
SplineSet
516.69140625 656.146484375 m 0,0,1
 287.623046875 679.399414062 287.623046875 679.399414062 72.298828125 561.3359375 c 1,2,3
 -22.017578125 519.548828125 -22.017578125 519.548828125 54 444 c 1,4,5
 66.3388671875 363.759765625 66.3388671875 363.759765625 90.998046875 360.1875 c 1,6,7
 141.876953125 411.133789062 141.876953125 411.133789062 212.119140625 423.787109375 c 0,8,9
 279.322265625 436.17578125 279.322265625 436.17578125 342.123046875 409.806640625 c 0,10,11
 358.708984375 400.392578125 358.708984375 400.392578125 373.19921875 413.814453125 c 0,12,13
 394.567382812 433.610351562 394.567382812 433.610351562 423.908203125 444.15625 c 0,14,15
 452.666992188 454.615234375 452.666992188 454.615234375 484.970703125 455.0859375 c 0,16,17
 517.7421875 455.28515625 517.7421875 455.28515625 548.79296875 444.95703125 c 0,18,19
 581.48828125 434.05859375 581.48828125 434.05859375 607.984375 412.90234375 c 0,20,21
 614.916992188 407.759765625 614.916992188 407.759765625 620.783203125 407.759765625 c 0,22,23
 626.349609375 407.759765625 626.349609375 407.759765625 629.84375 412.90234375 c 0,24,25
 653.790039062 447.0625 653.790039062 447.0625 694.689453125 461.05078125 c 0,26,27
 732.458984375 473.944335938 732.458984375 473.944335938 776.365234375 467.1953125 c 0,28,29
 819.366210938 460.671875 819.366210938 460.671875 854.90234375 437.833984375 c 0,30,31
 892.001953125 413.965820312 892.001953125 413.965820312 909.99609375 379.109375 c 0,32,33
 914.203125 370.76953125 914.203125 370.76953125 920.326171875 367.623046875 c 0,34,35
 926.03125 364.490234375 926.03125 364.490234375 933.015625 366.53125 c 1,36,37
 941.794921875 314.784179688 941.794921875 314.784179688 960.529296875 300.439453125 c 0,38,39
 968.6171875 294.182617188 968.6171875 294.182617188 976.423828125 297.701171875 c 128,-1,40
 984.225585938 301.319335938 984.225585938 301.319335938 989.802734375 314.041015625 c 0,41,42
 997.498046875 331.963867188 997.498046875 331.963867188 1009.68164062 365.330078125 c 0,43,44
 1019.1484375 391.905273438 1019.1484375 391.905273438 1024.0390625 401.615234375 c 0,45,46
 1031.41796875 416.076171875 1031.41796875 416.076171875 1039.80078125 419.267578125 c 0,47,48
 1048.95605469 422.676757812 1048.95605469 422.676757812 1063.21875 414.125 c 1,49,-1
 1098.36914062 417.576171875 l 2,50,51
 1147.74414062 420.678710938 1147.74414062 420.678710938 1211.765625 417.955078125 c 0,52,53
 1226.671875 417.374023438 1226.671875 417.374023438 1303.1015625 413.16796875 c 0,54,55
 1365.87890625 409.703125 1365.87890625 409.703125 1413.71679688 408.29296875 c 0,56,57
 1555.02246094 404.29296875 1555.02246094 404.29296875 1649.97070312 416.9296875 c 0,58,59
 1743.70507812 429.330078125 1743.70507812 429.330078125 1865.70117188 494.888671875 c 0,60,61
 1925.92480469 527.243164062 1925.92480469 527.243164062 1968.76757812 557.841796875 c 1,62,63
 1902.32617188 576.690429688 1902.32617188 576.690429688 1808.9140625 596.732421875 c 0,64,65
 1620.93652344 637.110351562 1620.93652344 637.110351562 1477.671875 645.216796875 c 0,66,67
 1468.20605469 645.704101562 1468.20605469 645.704101562 1339.3203125 650.40234375 c 0,68,69
 1259.90429688 653.263671875 1259.90429688 653.263671875 1220.46875 658.349609375 c 0,70,71
 1178.35644531 663.72265625 1178.35644531 663.72265625 1121.140625 681.30078125 c 2,72,-1
 1072.43554688 697.884765625 l 1,73,-1
 1058.41015625 694.123046875 l 1,74,75
 1058.90039062 692.989257812 1058.90039062 692.989257812 1058.90039062 690.873046875 c 0,76,77
 1058.90039062 686.677734375 1058.90039062 686.677734375 1055.87304688 683.75 c 128,-1,78
 1052.64941406 680.69921875 1052.64941406 680.69921875 1048.28125 680.69921875 c 128,-1,79
 1044.04101562 680.69921875 1044.04101562 680.69921875 1040.71289062 683.75 c 0,80,81
 1038.80957031 685.620117188 1038.80957031 685.620117188 1037.97460938 688.224609375 c 2,82,-1
 1025.77539062 685.775390625 l 1,83,84
 1026.15429688 684.182617188 1026.15429688 684.182617188 1026.15429688 683.23828125 c 0,85,86
 1026.15429688 679.052734375 1026.15429688 679.052734375 1023.03710938 676.0703125 c 128,-1,87
 1019.90039062 672.998046875 1019.90039062 672.998046875 1015.53515625 672.998046875 c 128,-1,88
 1011.05957031 672.998046875 1011.05957031 672.998046875 1007.99023438 676.0703125 c 0,89,90
 1005.6171875 678.151367188 1005.6171875 678.151367188 1004.984375 681.255859375 c 2,91,-1
 993.853515625 679.498046875 l 1,92,93
 994.142578125 678.547851562 994.142578125 678.547851562 994.142578125 677.115234375 c 0,94,95
 994.142578125 672.950195312 994.142578125 672.950195312 991.0703125 669.880859375 c 128,-1,96
 987.883789062 666.83203125 987.883789062 666.83203125 983.48046875 666.83203125 c 128,-1,97
 979.178710938 666.83203125 979.178710938 666.83203125 975.888671875 669.880859375 c 0,98,99
 973.319335938 672.41796875 973.319335938 672.41796875 972.861328125 675.646484375 c 1,100,-1
 960.5078125 673.84375 l 1,101,102
 960.73046875 672.8359375 960.73046875 672.8359375 960.73046875 671.951171875 c 0,103,104
 960.73046875 667.703125 960.73046875 667.703125 955.96484375 664.783203125 c 128,-1,105
 951.342773438 661.666015625 951.342773438 661.666015625 944.5234375 661.666015625 c 0,106,107
 943.611328125 661.666015625 943.611328125 661.666015625 942.564453125 661.822265625 c 2,108,-1
 932.390625 681.58984375 l 1,109,110
 897.125 675.306640625 897.125 675.306640625 860.021484375 678.384765625 c 1,111,112
 674.483398438 640.935546875 674.483398438 640.935546875 516.69140625 656.146484375 c 0,0,1
55.224609375 480.083984375 m 1,113,114
 22.4677734375 509.002929688 22.4677734375 509.002929688 64.841796875 528.703125 c 1,115,-1
 55.224609375 480.083984375 l 1,113,114
EndSplineSet
EndChar

StartChar: deagle
Encoding: 69 57364 18
Width: 1664
GlyphClass: 2
Flags: W
LayerCount: 2
Fore
SplineSet
1556 750 m 1,0,1
 1555 760 1555 760 1553.5 770 c 128,-1,2
 1552 780 1552 780 1552 791 c 0,3,4
 1553 802 1553 802 1553.5 808.5 c 128,-1,5
 1554 815 1554 815 1541 815 c 0,6,7
 1537 817 1537 817 1526.5 819 c 128,-1,8
 1516 821 1516 821 1515 825 c 0,9,10
 1513 835 1513 835 1508.5 842 c 128,-1,11
 1504 849 1504 849 1493 846 c 256,12,13
 1482 843 1482 843 1472.5 837 c 128,-1,14
 1463 831 1463 831 1453 825 c 0,15,16
 1445 820 1445 820 1439.5 819.5 c 128,-1,17
 1434 819 1434 819 1424 819 c 0,18,19
 1416 819 1416 819 1400.5 821 c 128,-1,20
 1385 823 1385 823 1378 819 c 0,21,22
 1375 817 1375 817 1374 812 c 128,-1,23
 1373 807 1373 807 1371 805 c 0,24,25
 1370 805 1370 805 1362.5 804.5 c 128,-1,26
 1355 804 1355 804 1354 805 c 0,27,28
 1350 809 1350 809 1352.5 815 c 128,-1,29
 1355 821 1355 821 1347 821 c 0,30,31
 1340 821 1340 821 1333.5 821 c 128,-1,32
 1327 821 1327 821 1320 821 c 0,33,34
 1265 822 1265 822 1210 822.5 c 128,-1,35
 1155 823 1155 823 1100 823 c 0,36,37
 1083 823 1083 823 1065.5 823 c 128,-1,38
 1048 823 1048 823 1031 824 c 0,39,40
 1026 824 1026 824 1024.5 817.5 c 128,-1,41
 1023 811 1023 811 1020 811 c 0,42,43
 1013 811 1013 811 1007 813.5 c 128,-1,44
 1001 816 1001 816 995 816 c 0,45,46
 948 817 948 817 901.5 818 c 128,-1,47
 855 819 855 819 808 819 c 0,48,49
 786 820 786 820 764 820.5 c 128,-1,50
 742 821 742 821 720 821 c 0,51,52
 708 821 708 821 703 828.5 c 128,-1,53
 698 836 698 836 688 836 c 0,54,55
 638 836 638 836 588.5 835.5 c 128,-1,56
 539 835 539 835 489 835 c 0,57,58
 474 835 474 835 462.5 830 c 128,-1,59
 451 825 451 825 435 824 c 0,60,61
 427 824 427 824 415.5 822.5 c 128,-1,62
 404 821 404 821 398 827 c 0,63,64
 394 831 394 831 384 843 c 128,-1,65
 374 855 374 855 369 855 c 0,66,67
 363 855 363 855 346 857 c 128,-1,68
 329 859 329 859 324 855 c 256,69,70
 319 851 319 851 323 837.5 c 128,-1,71
 327 824 327 824 322 820 c 0,72,73
 307 812 307 812 291 800.5 c 128,-1,74
 275 789 275 789 266 774 c 0,75,76
 260 762 260 762 253 762 c 128,-1,77
 246 762 246 762 233 762 c 0,78,79
 229 762 229 762 224.5 762 c 128,-1,80
 220 762 220 762 217 764 c 0,81,82
 215 765 215 765 211 768 c 128,-1,83
 207 771 207 771 205 771 c 0,84,85
 201 770 201 770 193 769 c 128,-1,86
 185 768 185 768 182 765 c 0,87,88
 181 763 181 763 181.5 755.5 c 128,-1,89
 182 748 182 748 182 745 c 0,90,91
 182 737 182 737 188 727.5 c 128,-1,92
 194 718 194 718 198 711 c 0,93,94
 203 703 203 703 208 696.5 c 128,-1,95
 213 690 213 690 215 680 c 0,96,97
 218 671 218 671 215.5 661.5 c 128,-1,98
 213 652 213 652 211 642 c 0,99,100
 207 625 207 625 195.5 621.5 c 128,-1,101
 184 618 184 618 168 613 c 0,102,103
 151 608 151 608 133 600 c 128,-1,104
 115 592 115 592 104 577 c 256,105,106
 93 562 93 562 97 557 c 128,-1,107
 101 552 101 552 116 552 c 0,108,109
 126 552 126 552 135.5 551.5 c 128,-1,110
 145 551 145 551 154 551 c 0,111,112
 172 551 172 551 190.5 550.5 c 128,-1,113
 209 550 209 550 226 547 c 0,114,115
 252 543 252 543 265.5 529 c 128,-1,116
 279 515 279 515 285 490 c 0,117,118
 288 476 288 476 286.5 464 c 128,-1,119
 285 452 285 452 285 438 c 0,120,121
 285 432 285 432 281 424.5 c 128,-1,122
 277 417 277 417 275 411 c 0,123,124
 269 399 269 399 264 386.5 c 128,-1,125
 259 374 259 374 253 361 c 0,126,127
 237 324 237 324 223.5 286 c 128,-1,128
 210 248 210 248 198 210 c 0,129,130
 188 181 188 181 183 151 c 128,-1,131
 178 121 178 121 179 91 c 0,132,133
 179 80 179 80 183.5 62.5 c 128,-1,134
 188 45 188 45 203 43 c 0,135,136
 210 42 210 42 217 41.5 c 128,-1,137
 224 41 224 41 231 41 c 0,138,139
 277 39 277 39 321 38.5 c 128,-1,140
 365 38 365 38 411 41 c 0,141,142
 447 43 447 43 484 49.5 c 128,-1,143
 521 56 521 56 558 56 c 1,144,145
 554 66 554 66 545 84 c 128,-1,146
 536 102 536 102 539 113 c 0,147,148
 542 128 542 128 545 142.5 c 128,-1,149
 548 157 548 157 551 172 c 0,150,151
 556 203 556 203 562.5 233.5 c 128,-1,152
 569 264 569 264 574 295 c 0,153,154
 578 322 578 322 583.5 345 c 128,-1,155
 589 368 589 368 613 385 c 0,156,157
 626 395 626 395 647.5 386.5 c 128,-1,158
 669 378 669 378 684 378 c 0,159,160
 705 380 705 380 725 380.5 c 128,-1,161
 745 381 745 381 765 384 c 0,162,163
 776 386 776 386 786.5 387 c 128,-1,164
 797 388 797 388 807 390 c 0,165,166
 820 393 820 393 825.5 394 c 128,-1,167
 831 395 831 395 831 408 c 0,168,169
 831 429 831 429 833.5 451.5 c 128,-1,170
 836 474 836 474 844 494 c 0,171,172
 850 509 850 509 860 529 c 128,-1,173
 870 549 870 549 884 558 c 0,174,175
 896 567 896 567 909.5 578 c 128,-1,176
 923 589 923 589 940 589 c 0,177,178
 973 589 973 589 1006.5 589 c 128,-1,179
 1040 589 1040 589 1073 589 c 0,180,181
 1124 589 1124 589 1175.5 589 c 128,-1,182
 1227 589 1227 589 1278.5 589 c 128,-1,183
 1330 589 1330 589 1381.5 589 c 128,-1,184
 1433 589 1433 589 1485 589 c 0,185,186
 1495 589 1495 589 1502 590 c 128,-1,187
 1509 591 1509 591 1513 602 c 0,188,189
 1520 621 1520 621 1526.5 640.5 c 128,-1,190
 1533 660 1533 660 1538 679 c 0,191,192
 1542 695 1542 695 1550 714.5 c 128,-1,193
 1558 734 1558 734 1556 750 c 1,194,-1
 1556 750 l 1,0,1
791 443 m 1,195,196
 783 425 783 425 766 425 c 128,-1,197
 749 425 749 425 732 425 c 0,198,199
 719 425 719 425 700.5 423 c 128,-1,200
 682 421 682 421 669 425 c 0,201,202
 658 429 658 429 653.5 431.5 c 128,-1,203
 649 434 649 434 645 445 c 0,204,205
 643 451 643 451 642.5 455.5 c 128,-1,206
 642 460 642 460 642 467 c 0,207,208
 642 486 642 486 642 504.5 c 128,-1,209
 642 523 642 523 642 541 c 0,210,211
 642 567 642 567 662 568.5 c 128,-1,212
 682 570 682 570 699 570 c 256,213,214
 716 570 716 570 732.5 570 c 128,-1,215
 749 570 749 570 766 570 c 0,216,217
 794 570 794 570 795 545.5 c 128,-1,218
 796 521 796 521 796 502 c 0,219,220
 796 487 796 487 797 471.5 c 128,-1,221
 798 456 798 456 791 443 c 1,222,-1
 791 443 l 1,195,196
EndSplineSet
EndChar

StartChar: elite
Encoding: 70 57365 19
Width: 2560
GlyphClass: 2
Flags: W
LayerCount: 2
Fore
SplineSet
1160 814 m 1,0,1
 1163 820 1163 820 1167.5 825 c 128,-1,2
 1172 830 1172 830 1177 834 c 0,3,4
 1182 840 1182 840 1189 842 c 128,-1,5
 1196 844 1196 844 1205 843 c 0,6,7
 1212 841 1212 841 1218.5 839.5 c 128,-1,8
 1225 838 1225 838 1231 836 c 0,9,10
 1235 830 1235 830 1240.5 828 c 128,-1,11
 1246 826 1246 826 1247 818 c 0,12,13
 1249 805 1249 805 1252.5 792.5 c 128,-1,14
 1256 780 1256 780 1259 767 c 0,15,16
 1262 759 1262 759 1258 743.5 c 128,-1,17
 1254 728 1254 728 1253 718 c 0,18,19
 1251 692 1251 692 1248 665 c 128,-1,20
 1245 638 1245 638 1246 612 c 1,21,-1
 1165 612 l 2,22,23
 1163 609 1163 609 1161.5 606 c 128,-1,24
 1160 603 1160 603 1158 601 c 0,25,26
 1147 596 1147 596 1133 596.5 c 128,-1,27
 1119 597 1119 597 1108 597 c 0,28,29
 1093 596 1093 596 1078.5 596.5 c 128,-1,30
 1064 597 1064 597 1049 597 c 0,31,32
 1023 597 1023 597 996.5 598 c 128,-1,33
 970 599 970 599 944 599 c 0,34,35
 930 599 930 599 915.5 599.5 c 128,-1,36
 901 600 901 600 887 597 c 0,37,38
 864 592 864 592 848 579.5 c 128,-1,39
 832 567 832 567 816 552 c 0,40,41
 794 532 794 532 795 505.5 c 128,-1,42
 796 479 796 479 798 454 c 1,43,-1
 788 444 l 1,44,-1
 788 442 l 1,45,46
 760 431 760 431 729 420.5 c 128,-1,47
 698 410 698 410 668 408 c 0,48,49
 649 407 649 407 632.5 408 c 128,-1,50
 616 409 616 409 597 411 c 0,51,52
 575 414 575 414 549 419 c 128,-1,53
 523 424 523 424 502 419 c 1,54,-1
 479 406 l 1,55,56
 469 393 469 393 465 380.5 c 128,-1,57
 461 368 461 368 456 352 c 0,58,59
 448 324 448 324 439.5 295.5 c 128,-1,60
 431 267 431 267 422 239 c 0,61,62
 418 224 418 224 415 211 c 128,-1,63
 412 198 412 198 412 182 c 0,64,65
 412 162 412 162 414.5 142.5 c 128,-1,66
 417 123 417 123 420 103 c 0,67,68
 420 86 420 86 416.5 73.5 c 128,-1,69
 413 61 413 61 405 53 c 0,70,71
 382 39 382 39 350 41.5 c 128,-1,72
 318 44 318 44 292 44 c 0,73,74
 261 44 261 44 230 42.5 c 128,-1,75
 199 41 199 41 171 53 c 1,76,-1
 159 68 l 1,77,78
 158 79 158 79 157.5 89.5 c 128,-1,79
 157 100 157 100 157 110 c 1,80,81
 137 112 137 112 121 114.5 c 128,-1,82
 105 117 105 117 87 127 c 0,83,84
 87 129 87 129 86 132 c 128,-1,85
 85 135 85 135 83 137 c 0,86,87
 84 153 84 153 81.5 168.5 c 128,-1,88
 79 184 79 184 81 199 c 0,89,90
 83 217 83 217 87.5 235 c 128,-1,91
 92 253 92 253 93 271 c 1,92,93
 109 303 109 303 123.5 335.5 c 128,-1,94
 138 368 138 368 152 401 c 0,95,96
 160 420 160 420 168 439.5 c 128,-1,97
 176 459 176 459 185 478 c 0,98,99
 198 503 198 503 205.5 525 c 128,-1,100
 213 547 213 547 197 575 c 0,101,102
 187 595 187 595 158 598.5 c 128,-1,103
 129 602 129 602 109 606 c 1,104,105
 99 616 99 616 100.5 625.5 c 128,-1,106
 102 635 102 635 105 647 c 1,107,108
 111 653 111 653 121.5 656 c 128,-1,109
 132 659 132 659 140 660 c 1,110,111
 161 680 161 680 173 700.5 c 128,-1,112
 185 721 185 721 193 749 c 1,113,114
 191 762 191 762 188.5 775.5 c 128,-1,115
 186 789 186 789 186 803 c 0,116,117
 188 809 188 809 190 813 c 128,-1,118
 192 817 192 817 196 818 c 0,119,120
 211 819 211 819 223.5 816.5 c 128,-1,121
 236 814 236 814 250 811 c 1,122,123
 264 817 264 817 278.5 823 c 128,-1,124
 293 829 293 829 309 830 c 1,125,-1
 309 857 l 1,126,127
 321 858 321 858 332.5 856.5 c 128,-1,128
 344 855 344 855 356 853 c 0,129,130
 360 853 360 853 361.5 851.5 c 128,-1,131
 363 850 363 850 363 848 c 2,132,-1
 367 824 l 1,133,134
 398 824 398 824 428.5 826 c 128,-1,135
 459 828 459 828 490 828 c 0,136,137
 508 827 508 827 526.5 827 c 128,-1,138
 545 827 545 827 564 826 c 0,139,140
 577 826 577 826 594 826.5 c 128,-1,141
 611 827 611 827 624 824 c 1,142,-1
 632 811 l 1,143,-1
 1161 811 l 1,144,-1
 1161 814 l 1,145,-1
 1160 814 l 1,0,1
1375 768 m 1,146,147
 1374 776 1374 776 1372.5 783.5 c 128,-1,148
 1371 791 1371 791 1371 799 c 0,149,150
 1373 806 1373 806 1376 809.5 c 128,-1,151
 1379 813 1379 813 1383 814 c 0,152,153
 1398 816 1398 816 1409.5 813.5 c 128,-1,154
 1421 811 1421 811 1435 809 c 1,155,156
 1450 812 1450 812 1465 820 c 128,-1,157
 1480 828 1480 828 1496 828 c 1,158,-1
 1496 853 l 1,159,160
 1508 854 1508 854 1520 852.5 c 128,-1,161
 1532 851 1532 851 1544 849 c 1,162,163
 1551 843 1551 843 1552.5 835.5 c 128,-1,164
 1554 828 1554 828 1555 819 c 1,165,166
 1618 819 1618 819 1682 820 c 128,-1,167
 1746 821 1746 821 1810 819 c 1,168,-1
 1819 809 l 1,169,-1
 2345 809 l 1,170,-1
 2345 810 l 1,171,-1
 2348 815 l 2,172,173
 2352 818 2352 818 2356.5 821.5 c 128,-1,174
 2361 825 2361 825 2363 830 c 0,175,176
 2385 849 2385 849 2408 835.5 c 128,-1,177
 2431 822 2431 822 2437 800 c 0,178,179
 2440 786 2440 786 2445.5 761.5 c 128,-1,180
 2451 737 2451 737 2439 726 c 1,181,182
 2437 696 2437 696 2435 666 c 128,-1,183
 2433 636 2433 636 2434 606 c 1,184,-1
 2349 606 l 1,185,-1
 2345 597 l 1,186,187
 2323 589 2323 589 2295.5 591 c 128,-1,188
 2268 593 2268 593 2245 593 c 0,189,190
 2218 593 2218 593 2191 593.5 c 128,-1,191
 2164 594 2164 594 2136 595 c 0,192,193
 2103 596 2103 596 2075 591 c 128,-1,194
 2047 586 2047 586 2021 563 c 0,195,196
 2009 553 2009 553 1997 541 c 128,-1,197
 1985 529 1985 529 1983 512 c 0,198,199
 1983 506 1983 506 1982 499.5 c 128,-1,200
 1981 493 1981 493 1981 486 c 0,201,202
 1981 480 1981 480 1985 467.5 c 128,-1,203
 1989 455 1989 455 1984 451 c 2,204,-1
 1974 440 l 1,205,-1
 1974 436 l 1,206,207
 1943 424 1943 424 1908.5 414.5 c 128,-1,208
 1874 405 1874 405 1840 403 c 0,209,210
 1801 401 1801 401 1750.5 414 c 128,-1,211
 1700 427 1700 427 1666 402 c 1,212,213
 1649 382 1649 382 1643 355.5 c 128,-1,214
 1637 329 1637 329 1630 304 c 0,215,216
 1622 278 1622 278 1615.5 250 c 128,-1,217
 1609 222 1609 222 1598 197 c 1,218,219
 1598 162 1598 162 1606.5 121 c 128,-1,220
 1615 80 1615 80 1593 48 c 1,221,222
 1572 37 1572 37 1547.5 38.5 c 128,-1,223
 1523 40 1523 40 1500 40 c 0,224,225
 1470 40 1470 40 1440 40 c 128,-1,226
 1410 40 1410 40 1381 40 c 1,227,-1
 1379 42 l 2,228,229
 1374 43 1374 43 1368.5 44.5 c 128,-1,230
 1363 46 1363 46 1358 48 c 0,231,232
 1349 53 1349 53 1345 63 c 128,-1,233
 1341 73 1341 73 1341 89 c 0,234,235
 1343 93 1343 93 1344 97.5 c 128,-1,236
 1345 102 1345 102 1345 106 c 0,237,238
 1326 109 1326 109 1308.5 111 c 128,-1,239
 1291 113 1291 113 1273 122 c 1,240,-1
 1273 128 l 1,241,-1
 1271 133 l 1,242,243
 1271 147 1271 147 1268.5 159.5 c 128,-1,244
 1266 172 1266 172 1267 186 c 0,245,246
 1267 206 1267 206 1271.5 224.5 c 128,-1,247
 1276 243 1276 243 1281 262 c 1,248,-1
 1283 262 l 1,249,250
 1291 295 1291 295 1307.5 327.5 c 128,-1,251
 1324 360 1324 360 1337 390 c 0,252,253
 1352 424 1352 424 1371 461 c 128,-1,254
 1390 498 1390 498 1396 534 c 1,255,-1
 1383 571 l 2,256,257
 1373 591 1373 591 1344 595.5 c 128,-1,258
 1315 600 1315 600 1295 602 c 1,259,260
 1286 609 1286 609 1285.5 622.5 c 128,-1,261
 1285 636 1285 636 1292 644 c 0,262,263
 1298 649 1298 649 1308.5 653.5 c 128,-1,264
 1319 658 1319 658 1326 658 c 1,265,266
 1351 681 1351 681 1366.5 706.5 c 128,-1,267
 1382 732 1382 732 1375 768 c 1,268,-1
 1375 768 l 1,146,147
658 582 m 1,269,270
 641 582 641 582 623.5 582 c 128,-1,271
 606 582 606 582 589 581 c 0,272,273
 570 580 570 580 556 577.5 c 128,-1,274
 542 575 542 575 525 567 c 0,275,276
 518 562 518 562 513.5 556.5 c 128,-1,277
 509 551 509 551 507 545 c 0,278,279
 501 533 501 533 503.5 520.5 c 128,-1,280
 506 508 506 508 508 496 c 1,281,282
 514 490 514 490 520 484.5 c 128,-1,283
 526 479 526 479 532 473 c 1,284,285
 547 469 547 469 561.5 462.5 c 128,-1,286
 576 456 576 456 593 455 c 0,287,288
 607 454 607 454 621.5 453.5 c 128,-1,289
 636 453 636 453 651 453 c 0,290,291
 698 460 698 460 723.5 471.5 c 128,-1,292
 749 483 749 483 753 499 c 0,293,294
 755 513 755 513 754.5 525 c 128,-1,295
 754 537 754 537 746 550 c 0,296,297
 741 559 741 559 732.5 567 c 128,-1,298
 724 575 724 575 711 582 c 1,299,-1
 658 582 l 1,300,-1
 658 582 l 1,269,270
1798 576 m 1,301,302
 1785 576 1785 576 1768.5 577.5 c 128,-1,303
 1752 579 1752 579 1741 574 c 1,304,-1
 1737 574 l 1,305,306
 1724 567 1724 567 1711.5 560.5 c 128,-1,307
 1699 554 1699 554 1694 540 c 0,308,309
 1692 527 1692 527 1690.5 514 c 128,-1,310
 1689 501 1689 501 1696 489 c 1,311,-1
 1699 489 l 1,312,-1
 1719 469 l 1,313,314
 1734 463 1734 463 1748.5 456.5 c 128,-1,315
 1763 450 1763 450 1780 449 c 0,316,317
 1795 449 1795 449 1810 448.5 c 128,-1,318
 1825 448 1825 448 1840 447 c 0,319,320
 1887 453 1887 453 1911.5 465 c 128,-1,321
 1936 477 1936 477 1939 495 c 2,322,-1
 1943 514 l 1,323,-1
 1934 546 l 2,324,325
 1929 555 1929 555 1920 562.5 c 128,-1,326
 1911 570 1911 570 1898 576 c 1,327,328
 1873 576 1873 576 1848 576 c 128,-1,329
 1823 576 1823 576 1798 576 c 1,330,-1
 1798 576 l 1,301,302
EndSplineSet
EndChar

StartChar: fiveseven
Encoding: 71 57366 20
Width: 1357
GlyphClass: 2
Flags: W
LayerCount: 2
Fore
SplineSet
1230 816 m 1,0,1
 1228 825 1228 825 1222 840 c 128,-1,2
 1216 855 1216 855 1204 857 c 0,3,4
 1199 858 1199 858 1194 857.5 c 128,-1,5
 1189 857 1189 857 1184 857 c 0,6,7
 1180 857 1180 857 1174 839.5 c 128,-1,8
 1168 822 1168 822 1161 822 c 0,9,10
 1141 822 1141 822 1120 822 c 128,-1,11
 1099 822 1099 822 1078 822 c 0,12,13
 1027 822 1027 822 976 822 c 128,-1,14
 925 822 925 822 875 822 c 0,15,16
 872 822 872 822 867 821.5 c 128,-1,17
 862 821 862 821 860 823 c 0,18,19
 857 826 857 826 854.5 827.5 c 128,-1,20
 852 829 852 829 849 829 c 0,21,22
 837 829 837 829 825.5 829 c 128,-1,23
 814 829 814 829 802 829 c 0,24,25
 749 829 749 829 696.5 829 c 128,-1,26
 644 829 644 829 591 829 c 128,-1,27
 538 829 538 829 485.5 829 c 128,-1,28
 433 829 433 829 380 829 c 0,29,30
 362 829 362 829 343.5 829 c 128,-1,31
 325 829 325 829 306 829 c 0,32,33
 298 829 298 829 290.5 828.5 c 128,-1,34
 283 828 283 828 276 833 c 0,35,36
 252 848 252 848 228 851 c 128,-1,37
 204 854 204 854 177 856 c 0,38,39
 165 857 165 857 168.5 847.5 c 128,-1,40
 172 838 172 838 166 833 c 0,41,42
 156 826 156 826 146 818.5 c 128,-1,43
 136 811 136 811 130 799 c 0,44,45
 118 778 118 778 113.5 752 c 128,-1,46
 109 726 109 726 104 703 c 0,47,48
 100 685 100 685 95 668.5 c 128,-1,49
 90 652 90 652 89 635 c 0,50,51
 87 593 87 593 123 576 c 128,-1,52
 159 559 159 559 187 546 c 0,53,54
 205 537 205 537 205 526 c 128,-1,55
 205 515 205 515 205 499 c 0,56,57
 205 490 205 490 201 481 c 128,-1,58
 197 472 197 472 194 464 c 0,59,60
 190 452 190 452 186 441 c 128,-1,61
 182 430 182 430 178 418 c 0,62,63
 172 401 172 401 166.5 382.5 c 128,-1,64
 161 364 161 364 156 346 c 0,65,66
 145 310 145 310 136 273.5 c 128,-1,67
 127 237 127 237 120 200 c 0,68,69
 115 177 115 177 112 152.5 c 128,-1,70
 109 128 109 128 109 104 c 0,71,72
 109 88 109 88 115.5 75.5 c 128,-1,73
 122 63 122 63 135 51 c 0,74,75
 149 36 149 36 172 38.5 c 128,-1,76
 195 41 195 41 214 42 c 0,77,78
 253 43 253 43 291.5 45.5 c 128,-1,79
 330 48 330 48 369 49 c 0,80,81
 386 49 386 49 409 56.5 c 128,-1,82
 432 64 432 64 424 88 c 0,83,84
 423 92 423 92 419.5 95.5 c 128,-1,85
 416 99 416 99 413 102 c 0,86,87
 411 104 411 104 413.5 110 c 128,-1,88
 416 116 416 116 416 118 c 0,89,90
 419 127 419 127 421 135.5 c 128,-1,91
 423 144 423 144 425 153 c 0,92,93
 429 171 429 171 433.5 188.5 c 128,-1,94
 438 206 438 206 443 224 c 0,95,96
 445 233 445 233 448 243 c 128,-1,97
 451 253 451 253 453 263 c 0,98,99
 454 271 454 271 459 278.5 c 128,-1,100
 464 286 464 286 465 294 c 0,101,102
 467 314 467 314 467 342 c 128,-1,103
 467 370 467 370 484 383 c 0,104,105
 496 392 496 392 506 394.5 c 128,-1,106
 516 397 516 397 532 395 c 0,107,108
 544 394 544 394 555 394 c 128,-1,109
 566 394 566 394 577 395 c 0,110,111
 615 396 615 396 652.5 391.5 c 128,-1,112
 690 387 690 387 727 393 c 0,113,114
 748 396 748 396 766 407 c 128,-1,115
 784 418 784 418 791 439 c 0,116,117
 794 450 794 450 795 462 c 128,-1,118
 796 474 796 474 797 486 c 0,119,120
 798 494 798 494 798 502.5 c 128,-1,121
 798 511 798 511 797 519 c 0,122,123
 796 529 796 529 794 538.5 c 128,-1,124
 792 548 792 548 801 553 c 0,125,126
 815 562 815 562 833 572.5 c 128,-1,127
 851 583 851 583 867 586 c 0,128,129
 880 588 880 588 895 587 c 128,-1,130
 910 586 910 586 923 586 c 0,131,132
 973 586 973 586 1023.5 586 c 128,-1,133
 1074 586 1074 586 1124 586 c 0,134,135
 1139 586 1139 586 1143.5 601.5 c 128,-1,136
 1148 617 1148 617 1151 629 c 0,137,138
 1153 635 1153 635 1182 633.5 c 128,-1,139
 1211 632 1211 632 1219 629 c 1,140,141
 1222 635 1222 635 1222 641 c 128,-1,142
 1222 647 1222 647 1223 653 c 0,143,144
 1223 659 1223 659 1228 661.5 c 128,-1,145
 1233 664 1233 664 1233 670 c 0,146,147
 1234 681 1234 681 1234.5 693 c 128,-1,148
 1235 705 1235 705 1236 716 c 0,149,150
 1236 742 1236 742 1235.5 766.5 c 128,-1,151
 1235 791 1235 791 1230 816 c 1,152,-1
 1230 816 l 1,0,1
750 508 m 1,153,154
 750 498 750 498 750 487.5 c 128,-1,155
 750 477 750 477 750 467 c 0,156,157
 750 448 750 448 728 449 c 128,-1,158
 706 450 706 450 694 450 c 0,159,160
 666 450 666 450 638 450 c 128,-1,161
 610 450 610 450 582 450 c 0,162,163
 570 450 570 450 548 447.5 c 128,-1,164
 526 445 526 445 515 452 c 0,165,166
 507 457 507 457 508 472 c 128,-1,167
 509 487 509 487 509 494 c 0,168,169
 509 506 509 506 509 517 c 128,-1,170
 509 528 509 528 509 539 c 0,171,172
 509 559 509 559 527.5 559 c 128,-1,173
 546 559 546 559 559 559 c 0,174,175
 603 559 603 559 647 559 c 128,-1,176
 691 559 691 559 734 559 c 0,177,178
 738 559 738 559 741.5 557.5 c 128,-1,179
 745 556 745 556 747 552 c 0,180,181
 752 544 752 544 751 530.5 c 128,-1,182
 750 517 750 517 750 508 c 1,183,-1
 750 508 l 1,153,154
EndSplineSet
EndChar

StartChar: glock
Encoding: 72 57367 21
Width: 1510
GlyphClass: 2
Flags: W
LayerCount: 2
Fore
SplineSet
1395 704 m 1,0,1
 1395 680 1395 680 1390 642 c 128,-1,2
 1385 604 1385 604 1352 601 c 0,3,4
 1332 599 1332 599 1312 597.5 c 128,-1,5
 1292 596 1292 596 1272 595 c 0,6,7
 1233 594 1233 594 1193.5 592 c 128,-1,8
 1154 590 1154 590 1115 590 c 0,9,10
 1093 589 1093 589 1072 588.5 c 128,-1,11
 1051 588 1051 588 1029 587 c 0,12,13
 1017 586 1017 586 990 584 c 128,-1,14
 963 582 963 582 961 565 c 0,15,16
 958 546 958 546 959 526 c 128,-1,17
 960 506 960 506 964 486 c 0,18,19
 965 478 965 478 968 469 c 128,-1,20
 971 460 971 460 971 452 c 0,21,22
 971 449 971 449 962 438 c 128,-1,23
 953 427 953 427 951 427 c 0,24,25
 911 422 911 422 870.5 420 c 128,-1,26
 830 418 830 418 790 420 c 0,27,28
 771 420 771 420 750.5 419.5 c 128,-1,29
 730 419 730 419 711 422 c 0,30,31
 700 424 700 424 689 425.5 c 128,-1,32
 678 427 678 427 667 429 c 0,33,34
 657 431 657 431 650.5 434.5 c 128,-1,35
 644 438 644 438 633 436 c 0,36,37
 616 432 616 432 603.5 412.5 c 128,-1,38
 591 393 591 393 582 380 c 0,39,40
 562 349 562 349 548 315 c 128,-1,41
 534 281 534 281 520 247 c 0,42,43
 512 226 512 226 504.5 205.5 c 128,-1,44
 497 185 497 185 489 165 c 0,45,46
 482 143 482 143 471 118 c 128,-1,47
 460 93 460 93 458 71 c 0,48,49
 457 57 457 57 449 47.5 c 128,-1,50
 441 38 441 38 428 38 c 0,51,52
 422 38 422 38 415.5 38 c 128,-1,53
 409 38 409 38 403 38 c 0,54,55
 341 38 341 38 279.5 38 c 128,-1,56
 218 38 218 38 156 38 c 1,57,58
 157 46 157 46 158.5 53.5 c 128,-1,59
 160 61 160 61 162 69 c 1,60,61
 142 69 142 69 122 72.5 c 128,-1,62
 102 76 102 76 89 96 c 0,63,64
 75 118 75 118 81.5 145.5 c 128,-1,65
 88 173 88 173 94 197 c 1,66,67
 94 196 94 196 94 195.5 c 128,-1,68
 94 195 94 195 94 194 c 1,69,70
 119 226 119 226 140.5 260 c 128,-1,71
 162 294 162 294 184 328 c 0,72,73
 195 345 195 345 207 361 c 128,-1,74
 219 377 219 377 231 394 c 0,75,76
 242 410 242 410 249.5 430.5 c 128,-1,77
 257 451 257 451 265 469 c 0,78,79
 282 506 282 506 280 551.5 c 128,-1,80
 278 597 278 597 238 620 c 0,81,82
 227 625 227 625 216.5 630 c 128,-1,83
 206 635 206 635 196 640 c 0,84,85
 186 646 186 646 183 658.5 c 128,-1,86
 180 671 180 671 179 681 c 0,87,88
 179 701 179 701 179 721.5 c 128,-1,89
 179 742 179 742 179 762 c 0,90,91
 179 770 179 770 179 778.5 c 128,-1,92
 179 787 179 787 179 795 c 0,93,94
 179 802 179 802 175.5 807.5 c 128,-1,95
 172 813 172 813 176 820 c 0,96,97
 180 828 180 828 194 829 c 128,-1,98
 208 830 208 830 215 831 c 0,99,100
 229 832 229 832 234 833.5 c 128,-1,101
 239 835 239 835 245 846 c 0,102,103
 251 856 251 856 256 857 c 128,-1,104
 261 858 261 858 274 857 c 0,105,106
 287 857 287 857 290.5 852.5 c 128,-1,107
 294 848 294 848 296 835 c 0,108,109
 297 832 297 832 304 832.5 c 128,-1,110
 311 833 311 833 313 833 c 0,111,112
 356 833 356 833 398 833 c 128,-1,113
 440 833 440 833 482 833 c 128,-1,114
 524 833 524 833 566 833 c 128,-1,115
 608 833 608 833 650 833 c 0,116,117
 708 833 708 833 766 833 c 128,-1,118
 824 833 824 833 881.5 833 c 128,-1,119
 939 833 939 833 997 833 c 128,-1,120
 1055 833 1055 833 1113 833 c 0,121,122
 1151 833 1151 833 1189 833 c 128,-1,123
 1227 833 1227 833 1264 833 c 0,124,125
 1273 833 1273 833 1281.5 833 c 128,-1,126
 1290 833 1290 833 1298 833 c 0,127,128
 1301 833 1301 833 1301.5 833.5 c 128,-1,129
 1302 834 1302 834 1303 836 c 0,130,131
 1305 840 1305 840 1310 841.5 c 128,-1,132
 1315 843 1315 843 1320 844 c 0,133,134
 1328 847 1328 847 1329 846.5 c 128,-1,135
 1330 846 1330 846 1336 843 c 0,136,137
 1342 841 1342 841 1342.5 839 c 128,-1,138
 1343 837 1343 837 1351 837 c 0,139,140
 1358 837 1358 837 1365.5 837 c 128,-1,141
 1373 837 1373 837 1381 837 c 0,142,143
 1388 837 1388 837 1387.5 826.5 c 128,-1,144
 1387 816 1387 816 1388 810 c 0,145,146
 1389 783 1389 783 1391 757 c 128,-1,147
 1393 731 1393 731 1395 704 c 1,148,-1
 1395 704 l 1,0,1
886 579 m 1,149,150
 846 579 846 579 807 579 c 128,-1,151
 768 579 768 579 728 579 c 0,152,153
 711 579 711 579 704.5 571 c 128,-1,154
 698 563 698 563 698 545 c 0,155,156
 698 536 698 536 697 504.5 c 128,-1,157
 696 473 696 473 713 473 c 0,158,159
 753 473 753 473 793 473 c 128,-1,160
 833 473 833 473 873 473 c 0,161,162
 886 473 886 473 893.5 479.5 c 128,-1,163
 901 486 901 486 901 502 c 0,164,165
 901 511 901 511 902.5 545 c 128,-1,166
 904 579 904 579 886 579 c 1,167,-1
 886 579 l 1,149,150
EndSplineSet
EndChar

StartChar: p2000
Encoding: 73 57368 22
Width: 1280
GlyphClass: 2
Flags: W
LayerCount: 2
Fore
SplineSet
1174 734 m 1,0,1
 1173 749 1173 749 1172 764 c 128,-1,2
 1171 779 1171 779 1170 795 c 0,3,4
 1170 805 1170 805 1169.5 816 c 128,-1,5
 1169 827 1169 827 1159 834 c 0,6,7
 1147 840 1147 840 1136 840 c 128,-1,8
 1125 840 1125 840 1112 840 c 0,9,10
 1087 840 1087 840 1062 840 c 128,-1,11
 1037 840 1037 840 1012 840 c 0,12,13
 960 839 960 839 908 839 c 128,-1,14
 856 839 856 839 804 839 c 0,15,16
 800 839 800 839 796 839 c 128,-1,17
 792 839 792 839 789 839 c 0,18,19
 788 839 788 839 788.5 833 c 128,-1,20
 789 827 789 827 788 827 c 0,21,22
 786 827 786 827 783.5 827 c 128,-1,23
 781 827 781 827 778 827 c 0,24,25
 752 827 752 827 725.5 827 c 128,-1,26
 699 827 699 827 673 827 c 0,27,28
 664 827 664 827 654 827 c 128,-1,29
 644 827 644 827 635 827 c 0,30,31
 630 827 630 827 632.5 833 c 128,-1,32
 635 839 635 839 631 839 c 0,33,34
 617 839 617 839 602 839 c 128,-1,35
 587 839 587 839 573 839 c 0,36,37
 513 839 513 839 453 839 c 128,-1,38
 393 839 393 839 333 839 c 0,39,40
 318 839 318 839 303.5 839 c 128,-1,41
 289 839 289 839 274 839 c 0,42,43
 272 839 272 839 271 845.5 c 128,-1,44
 270 852 270 852 268 853 c 0,45,46
 266 855 266 855 258.5 855 c 128,-1,47
 251 855 251 855 248 855 c 256,48,49
 245 855 245 855 238.5 856.5 c 128,-1,50
 232 858 232 858 229 857 c 0,51,52
 225 855 225 855 223 848.5 c 128,-1,53
 221 842 221 842 217 840 c 0,54,55
 208 835 208 835 195.5 838.5 c 128,-1,56
 183 842 183 842 173 837 c 0,57,58
 164 832 164 832 155 821.5 c 128,-1,59
 146 811 146 811 140 802 c 0,60,61
 129 787 129 787 115 766 c 128,-1,62
 101 745 101 745 98 727 c 0,63,64
 95 704 95 704 94.5 671 c 128,-1,65
 94 638 94 638 112 622 c 0,66,67
 129 607 129 607 151 601.5 c 128,-1,68
 173 596 173 596 191 584 c 0,69,70
 211 571 211 571 216 558 c 128,-1,71
 221 545 221 545 216 522 c 0,72,73
 213 508 213 508 208.5 495.5 c 128,-1,74
 204 483 204 483 199 471 c 0,75,76
 189 445 189 445 178 419.5 c 128,-1,77
 167 394 167 394 156 369 c 0,78,79
 141 337 141 337 130 305 c 128,-1,80
 119 273 119 273 110 240 c 0,81,82
 101 211 101 211 93 181 c 128,-1,83
 85 151 85 151 88 121 c 0,84,85
 89 105 89 105 100.5 103.5 c 128,-1,86
 112 102 112 102 125 99 c 0,87,88
 152 94 152 94 178.5 88.5 c 128,-1,89
 205 83 205 83 232 78 c 0,90,91
 280 68 280 68 329 58.5 c 128,-1,92
 378 49 378 49 426 39 c 0,93,94
 435 37 435 37 460 42 c 128,-1,95
 485 47 485 47 463 61 c 0,96,97
 458 64 458 64 445.5 70.5 c 128,-1,98
 433 77 433 77 432 83 c 0,99,100
 432 96 432 96 431 108.5 c 128,-1,101
 430 121 430 121 429 133 c 0,102,103
 428 151 428 151 427 167 c 128,-1,104
 426 183 426 183 431 199 c 0,105,106
 441 232 441 232 452.5 263.5 c 128,-1,107
 464 295 464 295 476 327 c 0,108,109
 479 335 479 335 493 378.5 c 128,-1,110
 507 422 507 422 512 422 c 0,111,112
 520 421 520 421 527.5 421 c 128,-1,113
 535 421 535 421 543 421 c 0,114,115
 572 420 572 420 602 419 c 128,-1,116
 632 418 632 418 661 417 c 0,117,118
 700 416 700 416 739.5 419.5 c 128,-1,119
 779 423 779 423 817 430 c 0,120,121
 825 431 825 431 840 433 c 128,-1,122
 855 435 855 435 853 447 c 0,123,124
 852 457 852 457 850.5 466.5 c 128,-1,125
 849 476 849 476 847 486 c 0,126,127
 846 501 846 501 844 516 c 128,-1,128
 842 531 842 531 842 547 c 0,129,130
 842 566 842 566 852.5 574.5 c 128,-1,131
 863 583 863 583 881 587 c 0,132,133
 895 591 895 591 912 589.5 c 128,-1,134
 929 588 929 588 944 589 c 0,135,136
 975 589 975 589 1006.5 589.5 c 128,-1,137
 1038 590 1038 590 1069 590 c 0,138,139
 1089 591 1089 591 1108.5 591 c 128,-1,140
 1128 591 1128 591 1148 592 c 0,141,142
 1168 592 1168 592 1170.5 614 c 128,-1,143
 1173 636 1173 636 1173 649 c 0,144,145
 1174 670 1174 670 1174.5 691.5 c 128,-1,146
 1175 713 1175 713 1174 734 c 1,147,-1
 1174 734 l 1,0,1
819 493 m 1,148,149
 818 483 818 483 818 471.5 c 128,-1,150
 818 460 818 460 807 454 c 0,151,152
 799 451 799 451 787.5 451.5 c 128,-1,153
 776 452 776 452 768 453 c 0,154,155
 746 454 746 454 725 454.5 c 128,-1,156
 704 455 704 455 682 453 c 0,157,158
 657 450 657 450 608.5 451.5 c 128,-1,159
 560 453 560 453 560 491 c 0,160,161
 560 508 560 508 560.5 525 c 128,-1,162
 561 542 561 542 573 556 c 256,163,164
 585 570 585 570 600 571.5 c 128,-1,165
 615 573 615 573 631 572 c 0,166,167
 634 572 634 572 635.5 552 c 128,-1,168
 637 532 637 532 638 528 c 0,169,170
 639 515 639 515 655.5 502 c 128,-1,171
 672 489 672 489 683 483 c 0,172,173
 693 477 693 477 703.5 471.5 c 128,-1,174
 714 466 714 466 727 471 c 0,175,176
 741 475 741 475 728.5 479.5 c 128,-1,177
 716 484 716 484 713 485 c 0,178,179
 707 487 707 487 701.5 490.5 c 128,-1,180
 696 494 696 494 692 500 c 0,181,182
 684 510 684 510 674 522.5 c 128,-1,183
 664 535 664 535 662 549 c 0,184,185
 660 568 660 568 665 570 c 128,-1,186
 670 572 670 572 684 572 c 0,187,188
 708 571 708 571 732.5 571 c 128,-1,189
 757 571 757 571 781 571 c 1,190,191
 783 577 783 577 795 567.5 c 128,-1,192
 807 558 807 558 809 555 c 0,193,194
 817 541 817 541 818.5 524.5 c 128,-1,195
 820 508 820 508 819 493 c 1,196,-1
 819 493 l 1,148,149
EndSplineSet
EndChar

StartChar: p250
Encoding: 74 57369 23
Width: 1280
GlyphClass: 2
Flags: W
LayerCount: 2
Fore
SplineSet
1163 805 m 1,0,1
 1163 809 1163 809 1164.5 818 c 128,-1,2
 1166 827 1166 827 1162 830 c 0,3,4
 1157 835 1157 835 1152.5 833 c 128,-1,5
 1148 831 1148 831 1150 841 c 0,6,7
 1153 856 1153 856 1135 856.5 c 128,-1,8
 1117 857 1117 857 1109 857 c 0,9,10
 1087 855 1087 855 1065 855.5 c 128,-1,11
 1043 856 1043 856 1021 856 c 0,12,13
 962 856 962 856 903 856.5 c 128,-1,14
 844 857 844 857 785 857 c 1,15,16
 785 851 785 851 786.5 838.5 c 128,-1,17
 788 826 788 826 785 820 c 0,18,19
 782 816 782 816 770.5 817 c 128,-1,20
 759 818 759 818 755 818 c 0,21,22
 731 818 731 818 707.5 818 c 128,-1,23
 684 818 684 818 661 818 c 0,24,25
 651 818 651 818 642.5 817 c 128,-1,26
 634 816 634 816 634 828 c 0,27,28
 634 832 634 832 634 837.5 c 128,-1,29
 634 843 634 843 628 843 c 0,30,31
 625 842 625 842 619 841.5 c 128,-1,32
 613 841 613 841 613 846 c 0,33,34
 614 856 614 856 609.5 856 c 128,-1,35
 605 856 605 856 595 856 c 0,36,37
 546 856 546 856 497 856 c 128,-1,38
 448 856 448 856 399 856 c 128,-1,39
 350 856 350 856 301 856.5 c 128,-1,40
 252 857 252 857 203 857 c 1,41,42
 203 851 203 851 203 846 c 128,-1,43
 203 841 203 841 203 835 c 1,44,45
 195 836 195 836 186.5 836 c 128,-1,46
 178 836 178 836 170 836 c 1,47,48
 170 824 170 824 160 815.5 c 128,-1,49
 150 807 150 807 145 796 c 0,50,51
 140 786 140 786 133 775.5 c 128,-1,52
 126 765 126 765 120 755 c 0,53,54
 116 746 116 746 113 734.5 c 128,-1,55
 110 723 110 723 111 713 c 256,56,57
 112 703 112 703 110 700.5 c 128,-1,58
 108 698 108 698 101 693 c 0,59,60
 96 689 96 689 96 676.5 c 128,-1,61
 96 664 96 664 95 658 c 0,62,63
 93 651 93 651 93 642.5 c 128,-1,64
 93 634 93 634 94 627 c 0,65,66
 95 621 95 621 97.5 621 c 128,-1,67
 100 621 100 621 104 618 c 0,68,69
 107 617 107 617 107 615 c 128,-1,70
 107 613 107 613 109 611 c 0,71,72
 116 607 116 607 125.5 605 c 128,-1,73
 135 603 135 603 142 600 c 0,74,75
 160 591 160 591 177.5 577 c 128,-1,76
 195 563 195 563 207 547 c 0,77,78
 213 539 213 539 209.5 533 c 128,-1,79
 206 527 206 527 207 517 c 0,80,81
 208 510 208 510 203.5 504 c 128,-1,82
 199 498 199 498 199 493 c 256,83,84
 199 488 199 488 193.5 476.5 c 128,-1,85
 188 465 188 465 185 460 c 0,86,87
 183 457 183 457 178 449 c 128,-1,88
 173 441 173 441 174 438 c 0,89,90
 174 435 174 435 168.5 423 c 128,-1,91
 163 411 163 411 161 408 c 0,92,93
 157 402 157 402 154 393.5 c 128,-1,94
 151 385 151 385 148 378 c 0,95,96
 144 365 144 365 137 351.5 c 128,-1,97
 130 338 130 338 123 325 c 0,98,99
 120 320 120 320 118 312.5 c 128,-1,100
 116 305 116 305 114 299 c 0,101,102
 111 292 111 292 110 284 c 128,-1,103
 109 276 109 276 107 269 c 0,104,105
 101 253 101 253 98 234 c 128,-1,106
 95 215 95 215 95 198 c 0,107,108
 94 193 94 193 91.5 191 c 128,-1,109
 89 189 89 189 89 185 c 0,110,111
 89 180 89 180 89 176 c 128,-1,112
 89 172 89 172 89 167 c 0,113,114
 89 156 89 156 89 144.5 c 128,-1,115
 89 133 89 133 89 122 c 0,116,117
 89 97 89 97 118 104.5 c 128,-1,118
 147 112 147 112 160 105 c 0,119,120
 165 102 165 102 163.5 95 c 128,-1,121
 162 88 162 88 171 85 c 0,122,123
 177 83 177 83 184.5 82 c 128,-1,124
 192 81 192 81 198 78 c 0,125,126
 210 71 210 71 228 67 c 128,-1,127
 246 63 246 63 259 62 c 0,128,129
 285 59 285 59 311 56 c 128,-1,130
 337 53 337 53 362 47 c 0,131,132
 372 44 372 44 379 41 c 128,-1,133
 386 38 386 38 396 38 c 256,134,135
 406 38 406 38 416 39.5 c 128,-1,136
 426 41 426 41 436 41 c 0,137,138
 442 41 442 41 451 39 c 128,-1,139
 460 37 460 37 460 48 c 0,140,141
 460 52 460 52 448.5 55.5 c 128,-1,142
 437 59 437 59 434 63 c 0,143,144
 424 75 424 75 420 101 c 128,-1,145
 416 127 416 127 423 142 c 0,146,147
 427 150 427 150 429 162 c 128,-1,148
 431 174 431 174 432 183 c 0,149,150
 434 192 434 192 438 199.5 c 128,-1,151
 442 207 442 207 444 215 c 0,152,153
 448 230 448 230 453.5 243.5 c 128,-1,154
 459 257 459 257 463 272 c 0,155,156
 467 285 467 285 472 297.5 c 128,-1,157
 477 310 477 310 479 323 c 0,158,159
 481 333 481 333 484.5 345 c 128,-1,160
 488 357 488 357 488 367 c 0,161,162
 487 376 487 376 489.5 387 c 128,-1,163
 492 398 492 398 493 407 c 0,164,165
 495 413 495 413 498 415.5 c 128,-1,166
 501 418 501 418 508 418 c 0,167,168
 565 418 565 418 621.5 418 c 128,-1,169
 678 418 678 418 735 418 c 0,170,171
 759 418 759 418 783.5 418 c 128,-1,172
 808 418 808 418 832 417 c 0,173,174
 835 417 835 417 844 416.5 c 128,-1,175
 853 416 853 416 853 421 c 0,176,177
 853 429 853 429 855 438.5 c 128,-1,178
 857 448 857 448 849 453 c 0,179,180
 845 455 845 455 846.5 479 c 128,-1,181
 848 503 848 503 848 508 c 0,182,183
 848 517 848 517 847 526 c 128,-1,184
 846 535 846 535 846 544 c 0,185,186
 846 560 846 560 851.5 568 c 128,-1,187
 857 576 857 576 868 587 c 0,188,189
 874 593 874 593 891.5 591 c 128,-1,190
 909 589 909 589 918 589 c 0,191,192
 932 589 932 589 946 589 c 128,-1,193
 960 589 960 589 974 589 c 0,194,195
 1002 589 1002 589 1029.5 589 c 128,-1,196
 1057 589 1057 589 1085 589 c 0,197,198
 1094 589 1094 589 1127 586.5 c 128,-1,199
 1160 584 1160 584 1162 596 c 0,200,201
 1165 621 1165 621 1163.5 648 c 128,-1,202
 1162 675 1162 675 1162 700 c 0,203,204
 1162 726 1162 726 1161.5 752.5 c 128,-1,205
 1161 779 1161 779 1163 805 c 1,206,-1
 1163 805 l 1,0,1
287 62 m 1,207,208
 290 63 290 63 292.5 62 c 128,-1,209
 295 61 295 61 296 60 c 1,210,211
 293 60 293 60 291 60.5 c 128,-1,212
 289 61 289 61 287 62 c 1,207,208
826 459 m 1,213,214
 825 451 825 451 819 452 c 128,-1,215
 813 453 813 453 806 454 c 1,216,217
 806 440 806 440 802 439 c 128,-1,218
 798 438 798 438 784 438 c 0,219,220
 766 438 766 438 748 438 c 128,-1,221
 730 438 730 438 712 438 c 0,222,223
 679 438 679 438 647 438.5 c 128,-1,224
 615 439 615 439 583 437 c 0,225,226
 567 436 567 436 567.5 445.5 c 128,-1,227
 568 455 568 455 567 467 c 0,228,229
 566 478 566 478 561 487.5 c 128,-1,230
 556 497 556 497 555 509 c 0,231,232
 554 520 554 520 560.5 529 c 128,-1,233
 567 538 567 538 567 549 c 0,234,235
 567 559 567 559 576 565 c 128,-1,236
 585 571 585 571 589 578 c 0,237,238
 592 583 592 583 603 587.5 c 128,-1,239
 614 592 614 592 620 590 c 0,240,241
 630 587 630 587 627 564 c 128,-1,242
 624 541 624 541 623 533 c 0,243,244
 622 518 622 518 631 509.5 c 128,-1,245
 640 501 640 501 647 490 c 0,246,247
 655 479 655 479 664 473 c 128,-1,248
 673 467 673 467 685 461 c 0,249,250
 694 457 694 457 704.5 456.5 c 128,-1,251
 715 456 715 456 725 457 c 0,252,253
 731 457 731 457 733 466 c 128,-1,254
 735 475 735 475 731 477 c 0,255,256
 729 478 729 478 721.5 477 c 128,-1,257
 714 476 714 476 714 479 c 2,258,259
 714 479 714 479 708 482 c 0,260,261
 703 484 703 484 702 484 c 0,262,263
 693 489 693 489 684 495.5 c 128,-1,264
 675 502 675 502 668 510 c 0,265,266
 658 523 658 523 658.5 539 c 128,-1,267
 659 555 659 555 659 569 c 0,268,269
 659 575 659 575 663 582 c 128,-1,270
 667 589 667 589 672 590 c 0,271,272
 694 595 694 595 716.5 592 c 128,-1,273
 739 589 739 589 761 590 c 0,274,275
 775 591 775 591 786.5 589 c 128,-1,276
 798 587 798 587 808 576 c 0,277,278
 812 572 812 572 819.5 568 c 128,-1,279
 827 564 827 564 827 561 c 0,280,281
 827 543 827 543 827 525.5 c 128,-1,282
 827 508 827 508 828 491 c 0,283,284
 828 483 828 483 828 475 c 128,-1,285
 828 467 828 467 826 459 c 1,286,-1
 826 459 l 1,213,214
EndSplineSet
EndChar

StartChar: usp.silencer
Encoding: 75 57370 24
Width: 2406
GlyphClass: 2
Flags: W
LayerCount: 2
Fore
SplineSet
2296 813 m 1,0,-1
 2288 843 l 1,1,-1
 2281 852 l 1,2,-1
 1839 852 l 1,3,-1
 1829 848 l 1,4,-1
 1819 849 l 1,5,-1
 1476 849 l 1,6,-1
 1463 855 l 1,7,-1
 1453 849 l 1,8,-1
 1303 849 l 1,9,-1
 1303 807 l 1,10,-1
 1260 807 l 1,11,-1
 1260 787 l 1,12,-1
 1232 787 l 1,13,-1
 1232 810 l 1,14,-1
 1221 823 l 1,15,-1
 1211 822 l 1,16,-1
 1211 848 l 1,17,-1
 1203 858 l 1,18,-1
 1131 858 l 1,19,-1
 1131 819 l 1,20,-1
 829 819 l 1,21,-1
 829 814 l 1,22,-1
 654 814 l 1,23,-1
 654 820 l 1,24,-1
 341 820 l 1,25,-1
 332 827 l 1,26,-1
 240 829 l 1,27,-1
 217 842 l 1,28,-1
 217 817 l 1,29,-1
 187 760 l 1,30,-1
 168 666 l 1,31,-1
 125 694 l 1,32,-1
 118 656 l 1,33,-1
 102 658 l 2,34,35
 94 658 94 658 89.5 654.5 c 128,-1,36
 85 651 85 651 83 643 c 0,37,38
 83 638 83 638 85 633 c 128,-1,39
 87 628 87 628 92 625 c 2,40,-1
 102 622 l 1,41,-1
 155 616 l 1,42,-1
 152 595 l 1,43,-1
 151 562 l 1,44,-1
 162 550 l 1,45,-1
 200 537 l 2,46,47
 214 532 214 532 223.5 527.5 c 128,-1,48
 233 523 233 523 237 518 c 0,49,50
 243 513 243 513 244.5 506.5 c 128,-1,51
 246 500 246 500 244 491 c 2,52,-1
 234 465 l 1,53,-1
 214 424 l 2,54,55
 198 389 198 389 185 352 c 128,-1,56
 172 315 172 315 162 276 c 0,57,58
 153 237 153 237 146 196 c 128,-1,59
 139 155 139 155 135 112 c 2,60,-1
 132 41 l 1,61,-1
 441 38 l 1,62,-1
 425 61 l 1,63,-1
 428 96 l 1,64,-1
 501 406 l 1,65,-1
 511 403 l 1,66,-1
 537 406 l 1,67,-1
 559 411 l 1,68,-1
 581 408 l 1,69,-1
 618 396 l 1,70,-1
 639 388 l 1,71,-1
 789 393 l 1,72,-1
 812 398 l 1,73,-1
 826 414 l 1,74,-1
 884 554 l 2,75,76
 886 559 886 559 889 563 c 128,-1,77
 892 567 892 567 895 570 c 2,78,-1
 901 573 l 1,79,-1
 1227 573 l 1,80,-1
 1230 622 l 1,81,-1
 1237 628 l 1,82,-1
 1237 652 l 1,83,-1
 1230 658 l 1,84,-1
 1230 708 l 1,85,-1
 1260 708 l 1,86,-1
 1260 687 l 1,87,-1
 1309 687 l 1,88,-1
 1309 661 l 1,89,-1
 1454 661 l 1,90,-1
 1467 656 l 1,91,-1
 1476 662 l 1,92,-1
 1819 662 l 1,93,-1
 1828 665 l 1,94,-1
 1834 661 l 1,95,-1
 2281 661 l 1,96,-1
 2286 674 l 1,97,-1
 2295 704 l 1,98,-1
 2299 760 l 1,99,-1
 2297 813 l 1,100,-1
 2296 813 l 1,0,-1
846 537 m 1,101,-1
 825 477 l 1,102,-1
 796 412 l 1,103,-1
 733 408 l 1,104,-1
 662 411 l 1,105,-1
 631 413 l 1,106,-1
 589 415 l 1,107,-1
 552 431 l 1,108,-1
 527 460 l 2,109,110
 523 469 523 469 522.5 479 c 128,-1,111
 522 489 522 489 524 500 c 0,112,113
 527 510 527 510 532 519 c 128,-1,114
 537 528 537 528 545 537 c 0,115,116
 550 543 550 543 559.5 548 c 128,-1,117
 569 553 569 553 582 557 c 2,118,-1
 605 563 l 1,119,-1
 589 544 l 2,120,121
 580 532 580 532 574.5 519 c 128,-1,122
 569 506 569 506 568 491 c 0,123,124
 567 483 567 483 569.5 472 c 128,-1,125
 572 461 572 461 578 448 c 2,126,-1
 589 424 l 1,127,-1
 599 431 l 1,128,-1
 593 445 l 1,129,-1
 591 474 l 2,130,131
 591 484 591 484 594 493 c 128,-1,132
 597 502 597 502 602 510 c 2,133,-1
 619 533 l 1,134,-1
 654 569 l 1,135,-1
 818 570 l 1,136,-1
 828 569 l 1,137,-1
 844 560 l 1,138,-1
 846 546 l 1,139,-1
 846 537 l 1,140,-1
 846 537 l 1,101,-1
EndSplineSet
EndChar

StartChar: tec9
Encoding: 76 57371 25
Width: 1638
GlyphClass: 2
Flags: W
LayerCount: 2
Fore
SplineSet
765 836 m 1,0,1
 782 845 782 845 796 854 c 128,-1,2
 810 863 810 863 827 852 c 0,3,4
 832 848 832 848 838.5 844.5 c 128,-1,5
 845 841 845 841 850 836 c 0,6,7
 854 832 854 832 855 829.5 c 128,-1,8
 856 827 856 827 856 820 c 0,9,10
 856 818 856 818 855.5 809 c 128,-1,11
 855 800 855 800 856 800 c 0,12,13
 901 800 901 800 946 800 c 128,-1,14
 991 800 991 800 1036 800 c 128,-1,15
 1081 800 1081 800 1126.5 800 c 128,-1,16
 1172 800 1172 800 1217 800 c 0,17,18
 1254 800 1254 800 1292 800 c 128,-1,19
 1330 800 1330 800 1368 800 c 0,20,21
 1373 800 1373 800 1371.5 800.5 c 128,-1,22
 1370 801 1370 801 1372 804 c 0,23,24
 1373 805 1373 805 1372.5 807.5 c 128,-1,25
 1372 810 1372 810 1372 811 c 0,26,27
 1374 813 1374 813 1374.5 813.5 c 128,-1,28
 1375 814 1375 814 1377 816 c 256,29,30
 1379 818 1379 818 1385.5 825.5 c 128,-1,31
 1392 833 1392 833 1395 833 c 0,32,33
 1404 833 1404 833 1413 833.5 c 128,-1,34
 1422 834 1422 834 1429 829 c 0,35,36
 1430 828 1430 828 1433.5 824 c 128,-1,37
 1437 820 1437 820 1437 818 c 256,38,39
 1437 816 1437 816 1441 814.5 c 128,-1,40
 1445 813 1445 813 1445 809 c 0,41,42
 1445 807 1445 807 1444.5 804.5 c 128,-1,43
 1444 802 1444 802 1446 801 c 2,44,45
 1446 801 1446 801 1450 798 c 0,46,47
 1454 794 1454 794 1454 795 c 1,48,49
 1454 787 1454 787 1459.5 787.5 c 128,-1,50
 1465 788 1465 788 1467 783 c 0,51,52
 1469 780 1469 780 1467 772 c 128,-1,53
 1465 764 1465 764 1469 762 c 0,54,55
 1470 762 1470 762 1471.5 756.5 c 128,-1,56
 1473 751 1473 751 1473 749 c 256,57,58
 1473 747 1473 747 1473 745 c 128,-1,59
 1473 743 1473 743 1473 741 c 1,60,61
 1472 745 1472 745 1478 740 c 128,-1,62
 1484 735 1484 735 1480 735 c 1,63,64
 1489 735 1489 735 1499.5 736.5 c 128,-1,65
 1510 738 1510 738 1518 735 c 1,66,67
 1516 736 1516 736 1520.5 732.5 c 128,-1,68
 1525 729 1525 729 1525 731 c 1,69,70
 1525 729 1525 729 1525 726.5 c 128,-1,71
 1525 724 1525 724 1525 722 c 0,72,73
 1526 715 1526 715 1525.5 707 c 128,-1,74
 1525 699 1525 699 1525 692 c 0,75,76
 1525 688 1525 688 1525 684.5 c 128,-1,77
 1525 681 1525 681 1525 678 c 0,78,79
 1525 670 1525 670 1520.5 670.5 c 128,-1,80
 1516 671 1516 671 1509 671 c 256,81,82
 1502 671 1502 671 1490 672.5 c 128,-1,83
 1478 674 1478 674 1473 670 c 1,84,-1
 1472 662 l 2,85,86
 1470 655 1470 655 1470 654 c 0,87,88
 1470 651 1470 651 1466.5 645 c 128,-1,89
 1463 639 1463 639 1461 639 c 0,90,91
 1459 638 1459 638 1458 633.5 c 128,-1,92
 1457 629 1457 629 1455 627 c 256,93,94
 1453 625 1453 625 1450 621 c 2,95,-1
 1447 617 l 1,96,97
 1447 608 1447 608 1440 609.5 c 128,-1,98
 1433 611 1433 611 1428 612 c 0,99,100
 1390 613 1390 613 1352 612.5 c 128,-1,101
 1314 612 1314 612 1276 613 c 0,102,103
 1229 613 1229 613 1182 613.5 c 128,-1,104
 1135 614 1135 614 1088 614 c 0,105,106
 1085 614 1085 614 1082.5 613.5 c 128,-1,107
 1080 613 1080 613 1078 613 c 0,108,109
 1067 613 1067 613 1064 612.5 c 128,-1,110
 1061 612 1061 612 1061 602 c 0,111,112
 1061 594 1061 594 1061 586.5 c 128,-1,113
 1061 579 1061 579 1061 572 c 0,114,115
 1061 564 1061 564 1061 556.5 c 128,-1,116
 1061 549 1061 549 1061 542 c 0,117,118
 1061 533 1061 533 1038 533 c 128,-1,119
 1015 533 1015 533 1006 533 c 0,120,121
 994 533 994 533 986.5 518 c 128,-1,122
 979 503 979 503 970 494 c 0,123,124
 966 490 966 490 959.5 484 c 128,-1,125
 953 478 953 478 953 470 c 0,126,127
 953 460 953 460 953 450.5 c 128,-1,128
 953 441 953 441 953 432 c 0,129,130
 953 426 953 426 953 419.5 c 128,-1,131
 953 413 953 413 953 407 c 0,132,133
 953 405 953 405 953 402 c 128,-1,134
 953 399 953 399 953 396 c 0,135,136
 953 395 953 395 959 395 c 128,-1,137
 965 395 965 395 967 392 c 0,138,139
 971 384 971 384 970 372 c 128,-1,140
 969 360 969 360 967 353 c 0,141,142
 965 343 965 343 963.5 338.5 c 128,-1,143
 962 334 962 334 953 329 c 0,144,145
 946 326 946 326 943 321.5 c 128,-1,146
 940 317 940 317 938 309 c 0,147,148
 936 295 936 295 937 279 c 128,-1,149
 938 263 938 263 938 249 c 0,150,151
 938 202 938 202 938 155 c 128,-1,152
 938 108 938 108 938 61 c 0,153,154
 938 58 938 58 939 49.5 c 128,-1,155
 940 41 940 41 938 39 c 0,156,157
 937 38 937 38 927.5 38.5 c 128,-1,158
 918 39 918 39 916 39 c 0,159,160
 889 39 889 39 861.5 39 c 128,-1,161
 834 39 834 39 807 39 c 0,162,163
 795 39 795 39 784 39 c 128,-1,164
 773 39 773 39 762 39 c 0,165,166
 753 39 753 39 750.5 39 c 128,-1,167
 748 39 748 39 745 44 c 0,168,169
 742 51 742 51 743.5 66.5 c 128,-1,170
 745 82 745 82 745 90 c 0,171,172
 745 147 745 147 745 204.5 c 128,-1,173
 745 262 745 262 745 319 c 1,174,175
 740 316 740 316 737.5 309.5 c 128,-1,176
 735 303 735 303 726 303 c 0,177,178
 722 303 722 303 703 304.5 c 128,-1,179
 684 306 684 306 684 311 c 0,180,181
 684 319 684 319 682.5 332 c 128,-1,182
 681 345 681 345 681 356 c 0,183,184
 681 357 681 357 681 369 c 2,185,-1
 681 381 l 1,186,187
 666 381 666 381 651.5 381 c 128,-1,188
 637 381 637 381 622 381 c 0,189,190
 603 381 603 381 584 381 c 128,-1,191
 565 381 565 381 546 381 c 0,192,193
 537 381 537 381 538 371.5 c 128,-1,194
 539 362 539 362 539 354 c 1,195,196
 519 355 519 355 498.5 355 c 128,-1,197
 478 355 478 355 458 356 c 0,198,199
 453 356 453 356 449.5 340 c 128,-1,200
 446 324 446 324 444 324 c 0,201,202
 443 323 443 323 439.5 317.5 c 128,-1,203
 436 312 436 312 436 310 c 0,204,205
 436 304 436 304 433.5 301 c 128,-1,206
 431 298 431 298 429 293 c 0,207,208
 425 286 425 286 422.5 278 c 128,-1,209
 420 270 420 270 417 263 c 0,210,211
 415 258 415 258 414.5 255 c 128,-1,212
 414 252 414 252 412 247 c 0,213,214
 410 244 410 244 407.5 239 c 128,-1,215
 405 234 405 234 404 231 c 0,216,217
 400 223 400 223 398 216.5 c 128,-1,218
 396 210 396 210 394 202 c 0,219,220
 393 199 393 199 390.5 195 c 128,-1,221
 388 191 388 191 387 189 c 0,222,223
 385 184 385 184 383.5 179 c 128,-1,224
 382 174 382 174 381 169 c 0,225,226
 378 160 378 160 379.5 160 c 128,-1,227
 381 160 381 160 384 154 c 0,228,229
 386 151 386 151 388 145 c 128,-1,230
 390 139 390 139 390 137 c 0,231,232
 390 127 390 127 390 115 c 128,-1,233
 390 103 390 103 381 98 c 0,234,235
 375 96 375 96 365.5 99 c 128,-1,236
 356 102 356 102 354 102 c 0,237,238
 345 102 345 102 335.5 103 c 128,-1,239
 326 104 326 104 320 105 c 0,240,241
 299 106 299 106 279.5 107 c 128,-1,242
 260 108 260 108 239 109 c 0,243,244
 223 109 223 109 207 111.5 c 128,-1,245
 191 114 191 114 172 114 c 0,246,247
 167 114 167 114 161.5 115.5 c 128,-1,248
 156 117 156 117 150 118 c 0,249,250
 143 118 143 118 132 118 c 128,-1,251
 121 118 121 118 121 127 c 1,252,253
 121 126 121 126 113 129.5 c 128,-1,254
 105 133 105 133 103 137 c 256,255,256
 101 141 101 141 101 145.5 c 128,-1,257
 101 150 101 150 101 155 c 0,258,259
 101 173 101 173 104.5 186.5 c 128,-1,260
 108 200 108 200 111 216 c 0,261,262
 113 223 113 223 116 230 c 128,-1,263
 119 237 119 237 121 245 c 0,264,265
 122 247 122 247 122.5 249 c 128,-1,266
 123 251 123 251 124 252 c 0,267,268
 125 255 125 255 126 256 c 128,-1,269
 127 257 127 257 128 259 c 0,270,271
 130 263 130 263 129.5 267.5 c 128,-1,272
 129 272 129 272 132 275 c 0,273,274
 143 286 143 286 151.5 303 c 128,-1,275
 160 320 160 320 167 335 c 0,276,277
 174 352 174 352 185 366.5 c 128,-1,278
 196 381 196 381 203 394 c 0,279,280
 205 398 205 398 207.5 401 c 128,-1,281
 210 404 210 404 213 407 c 0,282,283
 214 409 214 409 218 415.5 c 128,-1,284
 222 422 222 422 222 423 c 0,285,286
 222 432 222 432 230 438.5 c 128,-1,287
 238 445 238 445 238 455 c 2,288,-1
 240 462 l 2,289,290
 243 470 243 470 244 472 c 0,291,292
 246 478 246 478 249 481 c 128,-1,293
 252 484 252 484 251 491 c 0,294,295
 250 495 250 495 246.5 500 c 128,-1,296
 243 505 243 505 241 508 c 0,297,298
 239 512 239 512 236.5 517 c 128,-1,299
 234 522 234 522 230 526 c 0,300,301
 225 531 225 531 223.5 535 c 128,-1,302
 222 539 222 539 222 547 c 256,303,304
 222 555 222 555 209.5 554 c 128,-1,305
 197 553 197 553 190 553 c 0,306,307
 182 553 182 553 174 554 c 128,-1,308
 166 555 166 555 160 556 c 256,309,310
 154 557 154 557 150.5 562.5 c 128,-1,311
 147 568 147 568 143 570 c 0,312,313
 141 571 141 571 136.5 576 c 128,-1,314
 132 581 132 581 131 583 c 0,315,316
 128 585 128 585 124.5 589.5 c 128,-1,317
 121 594 121 594 121 598 c 0,318,319
 121 604 121 604 120 614.5 c 128,-1,320
 119 625 119 625 119 633 c 0,321,322
 119 648 119 648 119 663 c 128,-1,323
 119 678 119 678 119 693 c 0,324,325
 119 703 119 703 120 713.5 c 128,-1,326
 121 724 121 724 121 731 c 0,327,328
 121 735 121 735 121 739.5 c 128,-1,329
 121 744 121 744 125 746 c 0,330,331
 129 747 129 747 130.5 748.5 c 128,-1,332
 132 750 132 750 134 752 c 0,333,334
 136 753 136 753 138 754 c 128,-1,335
 140 755 140 755 142 756 c 2,336,-1
 142 758 l 2,337,338
 143 761 143 761 144 762 c 0,339,340
 145 762 145 762 149.5 765 c 128,-1,341
 154 768 154 768 155 768 c 0,342,343
 159 770 159 770 160 771.5 c 128,-1,344
 161 773 161 773 163 775 c 0,345,346
 169 779 169 779 175 782.5 c 128,-1,347
 181 786 181 786 187 790 c 0,348,349
 194 793 194 793 207.5 800.5 c 128,-1,350
 221 808 221 808 219 817 c 1,351,352
 221 816 221 816 223.5 816.5 c 128,-1,353
 226 817 226 817 228 816 c 1,354,355
 227 827 227 827 232.5 831.5 c 128,-1,356
 238 836 238 836 248 836 c 0,357,358
 253 835 253 835 261.5 834.5 c 128,-1,359
 270 834 270 834 270 829 c 0,360,361
 270 826 270 826 271.5 818.5 c 128,-1,362
 273 811 273 811 274 810 c 0,363,364
 277 806 277 806 287.5 806.5 c 128,-1,365
 298 807 298 807 304 807 c 0,366,367
 325 807 325 807 346 807 c 128,-1,368
 367 807 367 807 388 807 c 0,369,370
 435 807 435 807 482 807 c 128,-1,371
 529 807 529 807 575.5 807 c 128,-1,372
 622 807 622 807 669 806.5 c 128,-1,373
 716 806 716 806 763 806 c 2,374,-1
 764 806 l 1,375,-1
 764 806 l 1,376,377
 764 813 764 813 763.5 822 c 128,-1,378
 763 831 763 831 765 836 c 1,379,-1
 765 836 l 1,0,1
696 485 m 1,380,381
 692 493 692 493 689.5 503 c 128,-1,382
 687 513 687 513 679 517 c 0,383,384
 673 519 673 519 662.5 518.5 c 128,-1,385
 652 518 652 518 645 518 c 0,386,387
 633 518 633 518 621 518 c 128,-1,388
 609 518 609 518 597 518 c 1,389,390
 599 506 599 506 608.5 495.5 c 128,-1,391
 618 485 618 485 626 478 c 0,392,393
 629 475 629 475 638 471 c 128,-1,394
 647 467 647 467 648 463 c 0,395,396
 649 454 649 454 641 449.5 c 128,-1,397
 633 445 633 445 625 448 c 0,398,399
 611 452 611 452 601 457 c 128,-1,400
 591 462 591 462 580 473 c 0,401,402
 578 476 578 476 571 481.5 c 128,-1,403
 564 487 564 487 564 490 c 256,404,405
 564 493 564 493 559.5 501.5 c 128,-1,406
 555 510 555 510 553 513 c 0,407,408
 553 514 553 514 553 515.5 c 128,-1,409
 553 517 553 517 553 518 c 1,410,411
 540 516 540 516 538.5 502.5 c 128,-1,412
 537 489 537 489 530 482 c 0,413,414
 527 479 527 479 523.5 470.5 c 128,-1,415
 520 462 520 462 520 458 c 0,416,417
 520 453 520 453 515.5 447 c 128,-1,418
 511 441 511 441 511 436 c 0,419,420
 511 434 511 434 536 433 c 128,-1,421
 561 432 561 432 592 432 c 128,-1,422
 623 432 623 432 651.5 431.5 c 128,-1,423
 680 431 680 431 687 431 c 1,424,425
 686 436 686 436 687.5 438.5 c 128,-1,426
 689 441 689 441 692 445 c 0,427,428
 693 445 693 445 697 452 c 128,-1,429
 701 459 701 459 701 458 c 1,430,431
 701 462 701 462 701.5 464.5 c 128,-1,432
 702 467 702 467 701 471 c 256,433,434
 700 475 700 475 698 478 c 128,-1,435
 696 481 696 481 696 485 c 1,436,-1
 696 485 l 1,380,381
EndSplineSet
EndChar

StartChar: cz75a
Encoding: 77 57372 26
Width: 1434
GlyphClass: 2
Flags: W
LayerCount: 2
Fore
SplineSet
587 833 m 1,0,1
 614 830 614 830 641 830 c 128,-1,2
 668 830 668 830 695 830 c 0,3,4
 708 832 708 832 721.5 832.5 c 128,-1,5
 735 833 735 833 748 833 c 0,6,7
 789 832 789 832 830 832 c 128,-1,8
 871 832 871 832 912 832 c 128,-1,9
 953 832 953 832 994 832 c 128,-1,10
 1035 832 1035 832 1076 832 c 1,11,12
 1078 837 1078 837 1079 842 c 128,-1,13
 1080 847 1080 847 1084 851 c 1,14,15
 1093 850 1093 850 1102.5 849.5 c 128,-1,16
 1112 849 1112 849 1121 848 c 1,17,18
 1125 842 1125 842 1128.5 835.5 c 128,-1,19
 1132 829 1132 829 1138 825 c 0,20,21
 1143 822 1143 822 1144 816.5 c 128,-1,22
 1145 811 1145 811 1149 808 c 0,23,24
 1191 808 1191 808 1233.5 807.5 c 128,-1,25
 1276 807 1276 807 1318 806 c 1,26,27
 1325 791 1325 791 1325 773.5 c 128,-1,28
 1325 756 1325 756 1318 740 c 1,29,30
 1275 740 1275 740 1232 740 c 128,-1,31
 1189 740 1189 740 1146 741 c 1,32,33
 1142 724 1142 724 1143.5 707 c 128,-1,34
 1145 690 1145 690 1141 674 c 0,35,36
 1139 667 1139 667 1133 665 c 128,-1,37
 1127 663 1127 663 1121 663 c 0,38,39
 1082 662 1082 662 1042.5 662.5 c 128,-1,40
 1003 663 1003 663 964 661 c 1,41,42
 977 662 977 662 987 654 c 128,-1,43
 997 646 997 646 1009 642 c 0,44,45
 1012 640 1012 640 1014.5 637 c 128,-1,46
 1017 634 1017 634 1015 630 c 0,47,48
 1009 625 1009 625 1002 621.5 c 128,-1,49
 995 618 995 618 988 615 c 0,50,51
 977 615 977 615 966 614.5 c 128,-1,52
 955 614 955 614 944 614 c 1,53,54
 962 560 962 560 978.5 506 c 128,-1,55
 995 452 995 452 1012 398.5 c 128,-1,56
 1029 345 1029 345 1045.5 291 c 128,-1,57
 1062 237 1062 237 1079 183 c 0,58,59
 1085 161 1085 161 1092.5 140 c 128,-1,60
 1100 119 1100 119 1105 97 c 0,61,62
 1102 94 1102 94 1099 92 c 128,-1,63
 1096 90 1096 90 1093 87 c 0,64,65
 1093 81 1093 81 1092.5 75 c 128,-1,66
 1092 69 1092 69 1091 64 c 0,67,68
 1086 59 1086 59 1079 58 c 128,-1,69
 1072 57 1072 57 1066 56 c 0,70,71
 1061 55 1061 55 1057.5 49.5 c 128,-1,72
 1054 44 1054 44 1048 45 c 0,73,74
 1040 45 1040 45 1033 41.5 c 128,-1,75
 1026 38 1026 38 1019 39 c 0,76,77
 1003 39 1003 39 987 38.5 c 128,-1,78
 971 38 971 38 955 39 c 1,79,80
 949 45 949 45 946 53 c 128,-1,81
 943 61 943 61 941 69 c 0,82,83
 926 116 926 116 911 163.5 c 128,-1,84
 896 211 896 211 881 258.5 c 128,-1,85
 866 306 866 306 850.5 353 c 128,-1,86
 835 400 835 400 820 448 c 0,87,88
 807 493 807 493 793 538.5 c 128,-1,89
 779 584 779 584 765 629 c 1,90,91
 758 623 758 623 753 615 c 128,-1,92
 748 607 748 607 745 598 c 0,93,94
 743 589 743 589 745 580 c 128,-1,95
 747 571 747 571 747 561 c 0,96,97
 747 547 747 547 747.5 532 c 128,-1,98
 748 517 748 517 747 502 c 1,99,100
 736 493 736 493 723 487.5 c 128,-1,101
 710 482 710 482 697 477 c 0,102,103
 675 469 675 469 652 465 c 128,-1,104
 629 461 629 461 606 459 c 0,105,106
 587 457 587 457 568.5 461 c 128,-1,107
 550 465 550 465 532 471 c 0,108,109
 517 476 517 476 500 479.5 c 128,-1,110
 483 483 483 483 468 475 c 0,111,112
 453 470 453 470 444 456.5 c 128,-1,113
 435 443 435 443 430 428 c 0,114,115
 423 400 423 400 413 372 c 128,-1,116
 403 344 403 344 395 316 c 0,117,118
 388 294 388 294 380.5 272.5 c 128,-1,119
 373 251 373 251 369 229 c 0,120,121
 367 214 367 214 367.5 199 c 128,-1,122
 368 184 368 184 369 169 c 1,123,124
 377 165 377 165 385.5 161 c 128,-1,125
 394 157 394 157 397 148 c 1,126,127
 391 140 391 140 383.5 133.5 c 128,-1,128
 376 127 376 127 367 121 c 0,129,130
 365 120 365 120 362.5 119 c 128,-1,131
 360 118 360 118 357 119 c 0,132,133
 310 118 310 118 263.5 117.5 c 128,-1,134
 217 117 217 117 170 117 c 0,135,136
 165 117 165 117 160 119.5 c 128,-1,137
 155 122 155 122 151 124 c 1,138,139
 151 131 151 131 151 137.5 c 128,-1,140
 151 144 151 144 151 150 c 1,141,142
 135 152 135 152 117 158.5 c 128,-1,143
 99 165 99 165 93 182 c 0,144,145
 90 207 90 207 93 232.5 c 128,-1,146
 96 258 96 258 103 282 c 0,147,148
 113 314 113 314 123.5 346 c 128,-1,149
 134 378 134 378 145 410 c 0,150,151
 150 424 150 424 156 437 c 128,-1,152
 162 450 162 450 168 463 c 0,153,154
 179 484 179 484 192.5 503 c 128,-1,155
 206 522 206 522 215 544 c 0,156,157
 221 564 221 564 216 586.5 c 128,-1,158
 211 609 211 609 192 621 c 0,159,160
 174 632 174 632 153 629.5 c 128,-1,161
 132 627 132 627 112 628 c 1,162,163
 104 633 104 633 105 642 c 128,-1,164
 106 651 106 651 105 658 c 1,165,166
 125 664 125 664 146 667 c 128,-1,167
 167 670 167 670 182 686 c 0,168,169
 188 692 188 692 188.5 700 c 128,-1,170
 189 708 189 708 190 716 c 0,171,172
 192 727 192 727 187.5 737.5 c 128,-1,173
 183 748 183 748 175 755 c 0,174,175
 169 761 169 761 163.5 767 c 128,-1,176
 158 773 158 773 159 782 c 0,177,178
 158 790 158 790 161.5 796 c 128,-1,179
 165 802 165 802 170 807 c 0,180,181
 174 809 174 809 178 811 c 128,-1,182
 182 813 182 813 186 814 c 0,183,184
 193 815 193 815 199 812.5 c 128,-1,185
 205 810 205 810 211 808 c 1,186,187
 216 815 216 815 222 821.5 c 128,-1,188
 228 828 228 828 233 834 c 1,189,190
 245 835 245 835 257 834.5 c 128,-1,191
 269 834 269 834 280 834 c 1,192,193
 283 840 283 840 285 846 c 128,-1,194
 287 852 287 852 289 857 c 1,195,196
 295 858 295 858 301 857.5 c 128,-1,197
 307 857 307 857 313 857 c 1,198,199
 316 852 316 852 318.5 846 c 128,-1,200
 321 840 321 840 323 834 c 1,201,202
 389 834 389 834 455 834 c 128,-1,203
 521 834 521 834 587 833 c 1,204,-1
 587 833 l 1,0,1
189 797 m 1,205,206
 187 797 187 797 184.5 796 c 128,-1,207
 182 795 182 795 180 794 c 0,208,209
 179 792 179 792 177.5 789.5 c 128,-1,210
 176 787 176 787 175 785 c 0,211,212
 177 780 177 780 181.5 776.5 c 128,-1,213
 186 773 186 773 191 772 c 0,214,215
 194 775 194 775 197.5 778 c 128,-1,216
 201 781 201 781 200 785 c 0,217,218
 201 791 201 791 196.5 793 c 128,-1,219
 192 795 192 795 189 797 c 1,220,-1
 189 797 l 1,205,206
673 630 m 1,221,222
 656 632 656 632 641.5 624.5 c 128,-1,223
 627 617 627 617 611 616 c 0,224,225
 611 613 611 613 610.5 610.5 c 128,-1,226
 610 608 610 608 610 605 c 0,227,228
 606 597 606 597 599.5 590 c 128,-1,229
 593 583 593 583 591 573 c 0,230,231
 588 558 588 558 592 542 c 128,-1,232
 596 526 596 526 607 515 c 0,233,234
 613 510 613 510 620 504.5 c 128,-1,235
 627 499 627 499 627 490 c 1,236,237
 611 490 611 490 599.5 501.5 c 128,-1,238
 588 513 588 513 579 525 c 0,239,240
 569 540 569 540 573 558 c 128,-1,241
 577 576 577 576 576 593 c 0,242,243
 577 597 577 597 574 599.5 c 128,-1,244
 571 602 571 602 569 605 c 0,245,246
 569 607 569 607 569.5 610 c 128,-1,247
 570 613 570 613 570 615 c 1,248,249
 557 615 557 615 546 608.5 c 128,-1,250
 535 602 535 602 526 594 c 0,251,252
 516 584 516 584 509.5 570.5 c 128,-1,253
 503 557 503 557 504 543 c 0,254,255
 505 522 505 522 520 506 c 128,-1,256
 535 490 535 490 554 484 c 0,257,258
 586 477 586 477 619 480 c 128,-1,259
 652 483 652 483 682 498 c 0,260,261
 698 506 698 506 709.5 520.5 c 128,-1,262
 721 535 721 535 725 552 c 0,263,264
 726 565 726 565 725 579 c 128,-1,265
 724 593 724 593 716 604 c 0,266,267
 709 615 709 615 697 621.5 c 128,-1,268
 685 628 685 628 673 630 c 1,269,-1
 673 630 l 1,221,222
EndSplineSet
EndChar

StartChar: revolver
Encoding: 78 57373 27
Width: 1869
GlyphClass: 2
Flags: W
LayerCount: 2
Fore
SplineSet
1730 819 m 1,0,1
 1730 798 1730 798 1744 783 c 128,-1,2
 1758 768 1758 768 1760 746 c 0,3,4
 1761 736 1761 736 1760.5 727 c 128,-1,5
 1760 718 1760 718 1761 708 c 0,6,7
 1763 695 1763 695 1759.5 684.5 c 128,-1,8
 1756 674 1756 674 1752 661 c 0,9,10
 1750 655 1750 655 1752 643.5 c 128,-1,11
 1754 632 1754 632 1753 624 c 0,12,13
 1753 620 1753 620 1750.5 605.5 c 128,-1,14
 1748 591 1748 591 1742 591 c 0,15,16
 1732 591 1732 591 1722 591 c 128,-1,17
 1712 591 1712 591 1703 591 c 0,18,19
 1642 591 1642 591 1582 591 c 128,-1,20
 1522 591 1522 591 1462 591 c 128,-1,21
 1402 591 1402 591 1342 591 c 128,-1,22
 1282 591 1282 591 1222 591 c 0,23,24
 1175 591 1175 591 1129 591 c 128,-1,25
 1083 591 1083 591 1036 591 c 0,26,27
 1020 591 1020 591 1017.5 589 c 128,-1,28
 1015 587 1015 587 1008 570 c 0,29,30
 1001 554 1001 554 996 537.5 c 128,-1,31
 991 521 991 521 989 503 c 0,32,33
 988 495 988 495 988 478.5 c 128,-1,34
 988 462 988 462 984 455 c 0,35,36
 976 443 976 443 949.5 446 c 128,-1,37
 923 449 923 449 907 444 c 0,38,39
 894 440 894 440 858.5 431.5 c 128,-1,40
 823 423 823 423 823 409 c 0,41,42
 823 381 823 381 819 351.5 c 128,-1,43
 815 322 815 322 792 303 c 0,44,45
 773 287 773 287 746 283 c 128,-1,46
 719 279 719 279 696 279 c 0,47,48
 676 279 676 279 653.5 279 c 128,-1,49
 631 279 631 279 615 292 c 0,50,51
 597 307 597 307 583.5 322 c 128,-1,52
 570 337 570 337 563 360 c 0,53,54
 562 363 562 363 556 381.5 c 128,-1,55
 550 400 550 400 544 390 c 0,56,57
 541 385 541 385 545 367.5 c 128,-1,58
 549 350 549 350 550 345 c 0,59,60
 553 331 553 331 547.5 330 c 128,-1,61
 542 329 542 329 531 334 c 0,62,63
 523 337 523 337 512.5 340 c 128,-1,64
 502 343 502 343 492 341 c 0,65,66
 480 339 480 339 468.5 336.5 c 128,-1,67
 457 334 457 334 445 333 c 0,68,69
 437 333 437 333 439.5 319 c 128,-1,70
 442 305 442 305 441 298 c 0,71,72
 440 286 440 286 438 274.5 c 128,-1,73
 436 263 436 263 435 251 c 0,74,75
 433 243 433 243 424.5 233 c 128,-1,76
 416 223 416 223 411 216 c 0,77,78
 403 204 403 204 399.5 197.5 c 128,-1,79
 396 191 396 191 398 176 c 0,80,81
 400 163 400 163 400.5 151 c 128,-1,82
 401 139 401 139 401 126 c 0,83,84
 401 114 401 114 395 110.5 c 128,-1,85
 389 107 389 107 380 99 c 0,86,87
 368 88 368 88 364.5 81.5 c 128,-1,88
 361 75 361 75 357 61 c 0,89,90
 355 40 355 40 326.5 39.5 c 128,-1,91
 298 39 298 39 281 39 c 0,92,93
 256 40 256 40 231.5 41.5 c 128,-1,94
 207 43 207 43 182 45 c 0,95,96
 161 46 161 46 141 46.5 c 128,-1,97
 121 47 121 47 107 66 c 0,98,99
 91 90 91 90 92.5 115 c 128,-1,100
 94 140 94 140 97 167 c 0,101,102
 105 231 105 231 129.5 291.5 c 128,-1,103
 154 352 154 352 184 409 c 0,104,105
 194 427 194 427 204 445 c 128,-1,106
 214 463 214 463 224 481 c 0,107,108
 235 502 235 502 248.5 524.5 c 128,-1,109
 262 547 262 547 270 569 c 0,110,111
 274 580 274 580 274.5 590.5 c 128,-1,112
 275 601 275 601 280 611 c 0,113,114
 284 619 284 619 289 619 c 128,-1,115
 294 619 294 619 300 623 c 0,116,117
 306 626 306 626 310 632.5 c 128,-1,118
 314 639 314 639 319 643 c 0,119,120
 330 649 330 649 344.5 651 c 128,-1,121
 359 653 359 653 371 655 c 0,122,123
 385 658 385 658 389 662 c 128,-1,124
 393 666 393 666 402 675 c 0,125,126
 411 683 411 683 417.5 689.5 c 128,-1,127
 424 696 424 696 436 699 c 0,128,129
 442 700 442 700 448 701.5 c 128,-1,130
 454 703 454 703 460 704 c 0,131,132
 465 705 465 705 471.5 703.5 c 128,-1,133
 478 702 478 702 483 705 c 0,134,135
 505 715 505 715 491.5 732.5 c 128,-1,136
 478 750 478 750 462 751 c 0,137,138
 452 752 452 752 438.5 746.5 c 128,-1,139
 425 741 425 741 418 751 c 1,140,141
 429 756 429 756 439.5 760 c 128,-1,142
 450 764 450 764 462 762 c 0,143,144
 475 760 475 760 487 757 c 128,-1,145
 499 754 499 754 513 754 c 0,146,147
 524 754 524 754 523.5 755.5 c 128,-1,148
 523 757 523 757 530 764 c 0,149,150
 534 768 534 768 538 772 c 128,-1,151
 542 776 542 776 546 780 c 0,152,153
 559 790 559 790 571 790 c 128,-1,154
 583 790 583 790 599 790 c 1,155,156
 592 794 592 794 578.5 800 c 128,-1,157
 565 806 565 806 561 812 c 0,158,159
 560 815 560 815 560.5 834.5 c 128,-1,160
 561 854 561 854 563 856 c 256,161,162
 565 858 565 858 574 857 c 128,-1,163
 583 856 583 856 586 856 c 0,164,165
 592 856 592 856 590 852 c 128,-1,166
 588 848 588 848 592 848 c 0,167,168
 601 848 601 848 602 847.5 c 128,-1,169
 603 847 603 847 603 838 c 0,170,171
 603 832 603 832 606.5 832.5 c 128,-1,172
 610 833 610 833 616 833 c 0,173,174
 625 833 625 833 641 835 c 128,-1,175
 657 837 657 837 665 833 c 0,176,177
 668 832 668 832 670.5 826.5 c 128,-1,178
 673 821 673 821 677 821 c 0,179,180
 682 821 682 821 688 821 c 128,-1,181
 694 821 694 821 699 821 c 0,182,183
 718 821 718 821 736.5 819.5 c 128,-1,184
 755 818 755 818 773 818 c 0,185,186
 830 818 830 818 886 818 c 128,-1,187
 942 818 942 818 998 818 c 0,188,189
 1009 818 1009 818 1014.5 815 c 128,-1,190
 1020 812 1020 812 1029 812 c 0,191,192
 1046 812 1046 812 1063.5 812 c 128,-1,193
 1081 812 1081 812 1098 812 c 0,194,195
 1149 812 1149 812 1200.5 812 c 128,-1,196
 1252 812 1252 812 1303 812 c 128,-1,197
 1354 812 1354 812 1405.5 812 c 128,-1,198
 1457 812 1457 812 1508 812 c 0,199,200
 1537 812 1537 812 1566 812 c 128,-1,201
 1595 812 1595 812 1624 812 c 0,202,203
 1637 812 1637 812 1651 818.5 c 128,-1,204
 1665 825 1665 825 1676 829 c 0,205,206
 1684 832 1684 832 1691 834.5 c 128,-1,207
 1698 837 1698 837 1706 837 c 0,208,209
 1712 837 1712 837 1714.5 837 c 128,-1,210
 1717 837 1717 837 1719 831 c 0,211,212
 1720 825 1720 825 1721 821 c 128,-1,213
 1722 817 1722 817 1730 819 c 1,214,-1
 1730 819 l 1,0,1
1184 779 m 1,215,216
 1189 794 1189 794 1167.5 792 c 128,-1,217
 1146 790 1146 790 1137 790 c 0,218,219
 1125 790 1125 790 1113 790 c 128,-1,220
 1101 790 1101 790 1090 790 c 0,221,222
 1087 790 1087 790 1076 791 c 128,-1,223
 1065 792 1065 792 1063 790 c 0,224,225
 1051 779 1051 779 1079 779 c 128,-1,226
 1107 779 1107 779 1110 779 c 0,227,228
 1128 779 1128 779 1147 779 c 128,-1,229
 1166 779 1166 779 1184 779 c 1,230,-1
 1184 779 l 1,215,216
1438 780 m 1,231,232
 1443 794 1443 794 1417.5 792 c 128,-1,233
 1392 790 1392 790 1384 790 c 0,234,235
 1366 790 1366 790 1348 790 c 128,-1,236
 1330 790 1330 790 1313 790 c 1,237,238
 1312 777 1312 777 1335 778.5 c 128,-1,239
 1358 780 1358 780 1366 780 c 0,240,241
 1384 780 1384 780 1402 780 c 128,-1,242
 1420 780 1420 780 1438 780 c 1,243,-1
 1438 780 l 1,231,232
1563 779 m 1,244,245
 1580 779 1580 779 1598 779 c 128,-1,246
 1616 779 1616 779 1634 779 c 0,247,248
 1644 779 1644 779 1654.5 779 c 128,-1,249
 1665 779 1665 779 1675 779 c 0,250,251
 1677 779 1677 779 1686 779.5 c 128,-1,252
 1695 780 1695 780 1688 787 c 0,253,254
 1687 789 1687 789 1678.5 788 c 128,-1,255
 1670 787 1670 787 1668 787 c 0,256,257
 1655 787 1655 787 1642.5 787 c 128,-1,258
 1630 787 1630 787 1618 787 c 0,259,260
 1610 787 1610 787 1584.5 789 c 128,-1,261
 1559 791 1559 791 1563 779 c 1,262,-1
 1563 779 l 1,244,245
734 428 m 1,263,264
 726 423 726 423 718.5 419 c 128,-1,265
 711 415 711 415 702 412 c 0,266,267
 689 409 689 409 682.5 408 c 128,-1,268
 676 407 676 407 673 393 c 0,269,270
 669 376 669 376 673.5 364 c 128,-1,271
 678 352 678 352 686 338 c 0,272,273
 688 335 688 335 692.5 331 c 128,-1,274
 697 327 697 327 693 324 c 0,275,276
 687 319 687 319 684.5 321 c 128,-1,277
 682 323 682 323 676 328 c 0,278,279
 659 343 659 343 651.5 360.5 c 128,-1,280
 644 378 644 378 639 399 c 0,281,282
 639 401 639 401 623.5 405 c 128,-1,283
 608 409 608 409 606 409 c 0,284,285
 594 406 594 406 583.5 403 c 128,-1,286
 573 400 573 400 561 397 c 1,287,288
 566 385 566 385 570.5 373 c 128,-1,289
 575 361 575 361 580 349 c 0,290,291
 588 331 588 331 595.5 323.5 c 128,-1,292
 603 316 603 316 619 305 c 0,293,294
 641 289 641 289 678 288 c 128,-1,295
 715 287 715 287 741 293 c 0,296,297
 762 298 762 298 775.5 307.5 c 128,-1,298
 789 317 789 317 799 336 c 0,299,300
 805 347 805 347 805.5 361.5 c 128,-1,301
 806 376 806 376 807 389 c 0,302,303
 809 408 809 408 806 411.5 c 128,-1,304
 803 415 803 415 785 422 c 0,305,306
 775 426 775 426 757.5 434.5 c 128,-1,307
 740 443 740 443 734 428 c 1,308,-1
 734 428 l 1,263,264
EndSplineSet
EndChar

StartChar: mac10
Encoding: 79 57374 28
Width: 1357
GlyphClass: 2
Flags: W
LayerCount: 2
Fore
SplineSet
1251 712 m 1,0,1
 1251 695 1251 695 1251 684 c 128,-1,2
 1251 673 1251 673 1239 661 c 0,3,4
 1232 654 1232 654 1212.5 656 c 128,-1,5
 1193 658 1193 658 1183 658 c 0,6,7
 1167 658 1167 658 1166.5 649 c 128,-1,8
 1166 640 1166 640 1166 627 c 0,9,10
 1166 616 1166 616 1168 603 c 128,-1,11
 1170 590 1170 590 1157 590 c 0,12,13
 1123 590 1123 590 1088 590 c 128,-1,14
 1053 590 1053 590 1018 590 c 0,15,16
 1004 590 1004 590 1006.5 583 c 128,-1,17
 1009 576 1009 576 1010 565 c 0,18,19
 1011 557 1011 557 1004.5 555 c 128,-1,20
 998 553 998 553 999 545 c 0,21,22
 1001 539 1001 539 1002 532.5 c 128,-1,23
 1003 526 1003 526 1004 519 c 1,24,25
 987 519 987 519 970 519.5 c 128,-1,26
 953 520 953 520 936 520 c 0,27,28
 933 521 933 521 920 496 c 128,-1,29
 907 471 907 471 903 466 c 0,30,31
 894 455 894 455 885.5 446.5 c 128,-1,32
 877 438 877 438 863 435 c 0,33,34
 854 432 854 432 844 432.5 c 128,-1,35
 834 433 834 433 825 433 c 0,36,37
 798 432 798 432 775 435.5 c 128,-1,38
 752 439 752 439 728 454 c 1,39,40
 728 409 728 409 728 363 c 128,-1,41
 728 317 728 317 728 272 c 0,42,43
 728 263 728 263 728 255 c 128,-1,44
 728 247 728 247 728 238 c 256,45,46
 728 229 728 229 720.5 231.5 c 128,-1,47
 713 234 713 234 709 229 c 0,48,49
 707 226 707 226 708 218.5 c 128,-1,50
 709 211 709 211 709 208 c 0,51,52
 709 195 709 195 709 181.5 c 128,-1,53
 709 168 709 168 709 155 c 0,54,55
 709 129 709 129 709 102.5 c 128,-1,56
 709 76 709 76 709 50 c 0,57,58
 709 48 709 48 709.5 43 c 128,-1,59
 710 38 710 38 707 38 c 0,60,61
 697 38 697 38 686.5 38 c 128,-1,62
 676 38 676 38 666 38 c 0,63,64
 641 38 641 38 616.5 38 c 128,-1,65
 592 38 592 38 567 38 c 0,66,67
 564 38 564 38 564.5 66.5 c 128,-1,68
 565 95 565 95 565 100 c 0,69,70
 565 127 565 127 565 154 c 128,-1,71
 565 181 565 181 565 209 c 0,72,73
 565 226 565 226 557.5 227.5 c 128,-1,74
 550 229 550 229 534 229 c 0,75,76
 521 229 521 229 508 229 c 128,-1,77
 495 229 495 229 483 229 c 0,78,79
 473 229 473 229 468.5 236 c 128,-1,80
 464 243 464 243 458 251 c 0,81,82
 456 254 456 254 459 263 c 128,-1,83
 462 272 462 272 463 275 c 0,84,85
 466 289 466 289 469 303.5 c 128,-1,86
 472 318 472 318 476 333 c 0,87,88
 484 370 484 370 492.5 407.5 c 128,-1,89
 501 445 501 445 510 482 c 0,90,91
 512 494 512 494 513.5 499.5 c 128,-1,92
 515 505 515 505 509 516 c 0,93,94
 502 528 502 528 495.5 541.5 c 128,-1,95
 489 555 489 555 479 565 c 0,96,97
 467 577 467 577 439 574 c 128,-1,98
 411 571 411 571 396 570 c 0,99,100
 388 569 388 569 383 564.5 c 128,-1,101
 378 560 378 560 373 555 c 0,102,103
 364 546 364 546 357.5 555 c 128,-1,104
 351 564 351 564 347 567 c 256,105,106
 343 570 343 570 332 568.5 c 128,-1,107
 321 567 321 567 317 567 c 0,108,109
 302 567 302 567 287 567 c 128,-1,110
 272 567 272 567 257 567 c 0,111,112
 255 567 255 567 243 567 c 2,113,-1
 231 567 l 1,114,115
 231 555 231 555 231 544 c 128,-1,116
 231 533 231 533 231 522 c 256,117,118
 231 511 231 511 231 500 c 128,-1,119
 231 489 231 489 231 478 c 0,120,121
 231 476 231 476 217.5 472.5 c 128,-1,122
 204 469 204 469 200 469 c 0,123,124
 189 469 189 469 180.5 470 c 128,-1,125
 172 471 172 471 162 474 c 0,126,127
 153 477 153 477 143 476 c 128,-1,128
 133 475 133 475 124 479 c 0,129,130
 117 481 117 481 110.5 488.5 c 128,-1,131
 104 496 104 496 101 502 c 0,132,133
 93 517 93 517 98.5 532 c 128,-1,134
 104 547 104 547 106 562 c 0,135,136
 109 601 109 601 110 641.5 c 128,-1,137
 111 682 111 682 113 721 c 0,138,139
 114 744 114 744 115 766 c 128,-1,140
 116 788 116 788 117 810 c 0,141,142
 118 824 118 824 132.5 834 c 128,-1,143
 147 844 147 844 147 858 c 1,144,145
 227 853 227 853 306 846 c 128,-1,146
 385 839 385 839 464 828 c 0,147,148
 472 827 472 827 479.5 825.5 c 128,-1,149
 487 824 487 824 495 824 c 1,150,151
 495 824 495 824 498 820 c 0,152,153
 501 817 501 817 502 816 c 0,154,155
 504 809 504 809 502 805.5 c 128,-1,156
 500 802 500 802 495 799 c 0,157,158
 479 789 479 789 459 789 c 128,-1,159
 439 789 439 789 421 789 c 0,160,161
 402 789 402 789 384 790.5 c 128,-1,162
 366 792 366 792 348 793 c 0,163,164
 334 794 334 794 320 795 c 128,-1,165
 306 796 306 796 293 797 c 0,166,167
 290 797 290 797 279.5 797 c 128,-1,168
 269 797 269 797 268 800 c 1,169,-1
 268 800 l 1,170,-1
 267 801 l 1,171,172
 265 789 265 789 273 789.5 c 128,-1,173
 281 790 281 790 290 789 c 0,174,175
 301 788 301 788 311.5 787 c 128,-1,176
 322 786 322 786 332 785 c 0,177,178
 353 783 353 783 373 782.5 c 128,-1,179
 393 782 393 782 414 782 c 0,180,181
 450 782 450 782 486 782 c 128,-1,182
 522 782 522 782 558 782 c 0,183,184
 600 782 600 782 641.5 782 c 128,-1,185
 683 782 683 782 725 782 c 0,186,187
 750 782 750 782 775.5 782 c 128,-1,188
 801 782 801 782 826 782 c 0,189,190
 830 782 830 782 830.5 791 c 128,-1,191
 831 800 831 800 831 805 c 0,192,193
 833 816 833 816 833 820.5 c 128,-1,194
 833 825 833 825 845 827 c 0,195,196
 861 829 861 829 879 829.5 c 128,-1,197
 897 830 897 830 913 826 c 0,198,199
 919 824 919 824 923.5 817 c 128,-1,200
 928 810 928 810 930 804 c 0,201,202
 935 795 935 795 936.5 794 c 128,-1,203
 938 793 938 793 947 793 c 0,204,205
 971 793 971 793 994.5 793 c 128,-1,206
 1018 793 1018 793 1042 793 c 0,207,208
 1045 793 1045 793 1048.5 793 c 128,-1,209
 1052 793 1052 793 1056 793 c 0,210,211
 1061 793 1061 793 1059.5 794 c 128,-1,212
 1058 795 1058 795 1060 799 c 0,213,214
 1062 804 1062 804 1061.5 810.5 c 128,-1,215
 1061 817 1061 817 1067 819 c 0,216,217
 1077 823 1077 823 1105.5 836 c 128,-1,218
 1134 849 1134 849 1145 840 c 0,219,220
 1162 826 1162 826 1162.5 812 c 128,-1,221
 1163 798 1163 798 1163 777 c 0,222,223
 1163 767 1163 767 1162 746 c 128,-1,224
 1161 725 1161 725 1179 725 c 0,225,226
 1190 725 1190 725 1201.5 725 c 128,-1,227
 1213 725 1213 725 1225 725 c 256,228,229
 1237 725 1237 725 1240.5 724 c 128,-1,230
 1244 723 1244 723 1251 712 c 1,231,-1
 1251 712 l 1,0,1
747 479 m 1,232,233
 770 471 770 471 792.5 471 c 128,-1,234
 815 471 815 471 840 471 c 0,235,236
 859 471 859 471 877 479 c 128,-1,237
 895 487 895 487 889 513 c 0,238,239
 883 542 883 542 853.5 541 c 128,-1,240
 824 540 824 540 802 540 c 0,241,242
 792 540 792 540 777.5 541 c 128,-1,243
 763 542 763 542 753 537 c 0,244,245
 739 530 739 530 736.5 509.5 c 128,-1,246
 734 489 734 489 747 479 c 1,247,-1
 747 479 l 1,232,233
179 786 m 1,248,249
 170 786 170 786 166 785.5 c 128,-1,250
 162 785 162 785 162 774 c 0,251,252
 162 767 162 767 162 759.5 c 128,-1,253
 162 752 162 752 162 744 c 0,254,255
 163 728 163 728 164 713 c 128,-1,256
 165 698 165 698 167 682 c 1,257,258
 173 708 173 708 179.5 733 c 128,-1,259
 186 758 186 758 194 783 c 1,260,261
 190 784 190 784 186.5 785 c 128,-1,262
 183 786 183 786 179 786 c 1,263,-1
 179 786 l 1,248,249
EndSplineSet
EndChar

